<svg version="1.1" xmlns="http://www.w3.org/2000/svg" viewBox="0 0 499.71732007504613 304.96007102101976" width="499.71732007504613" height="304.96007102101976">
  <!-- svg-source:excalidraw -->
  
  <defs>
    <style class="style-fonts">
      @font-face {
        font-family: "Virgil";
        src: url("https://excalidraw.com/Virgil.woff2");
      }
      @font-face {
        font-family: "Cascadia";
        src: url("https://excalidraw.com/Cascadia.woff2");
      }
      @font-face {
        font-family: "Assistant";
        src: url("https://excalidraw.com/Assistant-Regular.woff2");
      }
    </style>
    
  </defs>
  <rect x="0" y="0" width="499.71732007504613" height="304.96007102101976" fill="#ffffff"></rect><g stroke-linecap="round" transform="translate(228.210850249791 10) rotate(0 115.90271367214709 115.90271367214709)"><path d="M231.81 115.9 C231.81 119.27, 231.66 122.65, 231.36 126 C231.07 129.36, 230.63 132.71, 230.04 136.03 C229.46 139.35, 228.73 142.65, 227.86 145.9 C226.98 149.15, 225.97 152.38, 224.82 155.54 C223.66 158.71, 222.37 161.83, 220.95 164.89 C219.52 167.94, 217.96 170.94, 216.28 173.85 C214.59 176.77, 212.78 179.62, 210.84 182.38 C208.91 185.14, 206.85 187.82, 204.69 190.4 C202.52 192.98, 200.24 195.48, 197.86 197.86 C195.48 200.24, 192.98 202.52, 190.4 204.69 C187.82 206.85, 185.14 208.91, 182.38 210.84 C179.62 212.78, 176.77 214.59, 173.85 216.28 C170.94 217.96, 167.94 219.52, 164.89 220.95 C161.83 222.37, 158.71 223.66, 155.54 224.82 C152.38 225.97, 149.15 226.98, 145.9 227.86 C142.65 228.73, 139.35 229.46, 136.03 230.04 C132.71 230.63, 129.36 231.07, 126 231.36 C122.65 231.66, 119.27 231.81, 115.9 231.81 C112.54 231.81, 109.16 231.66, 105.8 231.36 C102.45 231.07, 99.09 230.63, 95.78 230.04 C92.46 229.46, 89.16 228.73, 85.9 227.86 C82.65 226.98, 79.43 225.97, 76.26 224.82 C73.1 223.66, 69.97 222.37, 66.92 220.95 C63.87 219.52, 60.87 217.96, 57.95 216.28 C55.04 214.59, 52.18 212.78, 49.42 210.84 C46.67 208.91, 43.98 206.85, 41.4 204.69 C38.82 202.52, 36.33 200.24, 33.95 197.86 C31.57 195.48, 29.28 192.98, 27.12 190.4 C24.95 187.82, 22.89 185.14, 20.96 182.38 C19.03 179.62, 17.21 176.77, 15.53 173.85 C13.84 170.94, 12.28 167.94, 10.86 164.89 C9.44 161.83, 8.14 158.71, 6.99 155.54 C5.84 152.38, 4.82 149.15, 3.95 145.9 C3.08 142.65, 2.35 139.35, 1.76 136.03 C1.18 132.71, 0.73 129.36, 0.44 126 C0.15 122.65, 0 119.27, 0 115.9 C0 112.54, 0.15 109.16, 0.44 105.8 C0.73 102.45, 1.18 99.09, 1.76 95.78 C2.35 92.46, 3.08 89.16, 3.95 85.9 C4.82 82.65, 5.84 79.43, 6.99 76.26 C8.14 73.1, 9.44 69.97, 10.86 66.92 C12.28 63.87, 13.84 60.87, 15.53 57.95 C17.21 55.04, 19.03 52.18, 20.96 49.42 C22.89 46.67, 24.95 43.98, 27.12 41.4 C29.28 38.82, 31.57 36.33, 33.95 33.95 C36.33 31.57, 38.82 29.28, 41.4 27.12 C43.98 24.95, 46.67 22.89, 49.42 20.96 C52.18 19.03, 55.04 17.21, 57.95 15.53 C60.87 13.84, 63.87 12.28, 66.92 10.86 C69.97 9.44, 73.1 8.14, 76.26 6.99 C79.43 5.84, 82.65 4.82, 85.9 3.95 C89.16 3.08, 92.46 2.35, 95.78 1.76 C99.09 1.18, 102.45 0.73, 105.8 0.44 C109.16 0.15, 112.54 0, 115.9 0 C119.27 0, 122.65 0.15, 126 0.44 C129.36 0.73, 132.71 1.18, 136.03 1.76 C139.35 2.35, 142.65 3.08, 145.9 3.95 C149.15 4.82, 152.38 5.84, 155.54 6.99 C158.71 8.14, 161.83 9.44, 164.89 10.86 C167.94 12.28, 170.94 13.84, 173.85 15.53 C176.77 17.21, 179.62 19.03, 182.38 20.96 C185.14 22.89, 187.82 24.95, 190.4 27.12 C192.98 29.28, 195.48 31.57, 197.86 33.95 C200.24 36.33, 202.52 38.82, 204.69 41.4 C206.85 43.98, 208.91 46.67, 210.84 49.42 C212.78 52.18, 214.59 55.04, 216.28 57.95 C217.96 60.87, 219.52 63.87, 220.95 66.92 C222.37 69.97, 223.66 73.1, 224.82 76.26 C225.97 79.43, 226.98 82.65, 227.86 85.9 C228.73 89.16, 229.46 92.46, 230.04 95.78 C230.63 99.09, 231.07 102.45, 231.36 105.8 C231.66 109.16, 231.73 114.22, 231.81 115.9 C231.88 117.59, 231.88 114.22, 231.81 115.9" stroke="#e03131" stroke-width="4" fill="none"></path></g><g stroke-linecap="round" transform="translate(22.435049942820797 245.81783925689587) rotate(0 233.64113506611267 24.571115882061946)"><path d="M0 0 C185.19 0, 370.38 0, 467.28 0 M0 0 C138.35 0, 276.7 0, 467.28 0 M467.28 0 C467.28 14.42, 467.28 28.84, 467.28 49.14 M467.28 0 C467.28 18.64, 467.28 37.29, 467.28 49.14 M467.28 49.14 C341.74 49.14, 216.19 49.14, 0 49.14 M467.28 49.14 C349.93 49.14, 232.58 49.14, 0 49.14 M0 49.14 C0 33.71, 0 18.28, 0 0 M0 49.14 C0 38.53, 0 27.93, 0 0" stroke="#1e1e1e" stroke-width="4" fill="none"></path></g><g stroke-linecap="round"><g transform="translate(119.28600906543505 69.74438764038513) rotate(0 71.81191787901062 87.58699492128503)"><path d="M0 0 C33.38 62.1, 66.77 124.19, 94.18 175.17 M0 0 C30.9 57.47, 61.8 114.94, 94.18 175.17 M94.18 175.17 C113.81 162.09, 133.43 149.01, 143.62 142.21 M94.18 175.17 C104.68 168.18, 115.17 161.18, 143.62 142.21" stroke="#1e1e1e" stroke-width="4" fill="none"></path></g></g><mask></mask><g stroke-linecap="round"><g transform="translate(263.38074264561374 211.955529931934) rotate(0 -4.708978221574512 16.48142377551062)"><path d="M0 0 C-2.12 7.42, -4.24 14.84, -9.42 32.96 M0 0 C-2.07 7.24, -4.14 14.48, -9.42 32.96" stroke="#e03131" stroke-width="4" fill="none"></path></g></g><mask></mask><g stroke-linecap="round"><g transform="translate(253.96278639199647 245.38927530511268) rotate(0 -92.84880667783747 -47.9429189916049)"><path d="M0 0 C-67.59 -34.9, -135.19 -69.81, -185.7 -95.89 M0 0 C-58.08 -29.99, -116.16 -59.98, -185.7 -95.89" stroke="#e03131" stroke-width="4" fill="none"></path></g><g transform="translate(253.96278639199647 245.38927530511268) rotate(0 -92.84880667783747 -47.9429189916049)"><path d="M-185.7 -95.89 L-170.71 -95.28 L-176.53 -84.02 L-185.7 -95.89" stroke="none" stroke-width="0" fill="#e03131" fill-rule="evenodd"></path><path d="M-185.7 -95.89 C-180.24 -95.67, -174.79 -95.45, -170.71 -95.28 M-185.7 -95.89 C-181.01 -95.7, -176.32 -95.51, -170.71 -95.28 M-170.71 -95.28 C-172.65 -91.53, -174.58 -87.79, -176.53 -84.02 M-170.71 -95.28 C-172.19 -92.41, -173.68 -89.53, -176.53 -84.02 M-176.53 -84.02 C-178.49 -86.56, -180.45 -89.1, -185.7 -95.89 M-176.53 -84.02 C-178.56 -86.65, -180.59 -89.28, -185.7 -95.89 M-185.7 -95.89 C-185.7 -95.89, -185.7 -95.89, -185.7 -95.89 M-185.7 -95.89 C-185.7 -95.89, -185.7 -95.89, -185.7 -95.89" stroke="#e03131" stroke-width="4" fill="none"></path></g></g><mask></mask><g stroke-linecap="round"><g transform="translate(70.78743061990508 80.50690336736156) rotate(0 17.006007375806803 82.13539732570511)"><path d="M0 0 C36.56 63.35, 73.12 126.7, 94.8 164.27 M0 0 C31.91 55.3, 63.82 110.59, 94.8 164.27 M94.8 164.27 C37.13 131.55, -20.54 98.82, -60.79 75.98 M94.8 164.27 C45.78 136.46, -3.23 108.64, -60.79 75.98" stroke="#1e1e1e" stroke-width="4" fill="none"></path></g><g transform="translate(70.78743061990508 80.50690336736156) rotate(0 17.006007375806803 82.13539732570511)"><path d="M-60.79 75.98 L-45.84 77.18 L-52.09 88.21 L-60.79 75.98" stroke="none" stroke-width="0" fill="#1e1e1e" fill-rule="evenodd"></path><path d="M-60.79 75.98 C-55.02 76.45, -49.25 76.91, -45.84 77.18 M-60.79 75.98 C-55.75 76.39, -50.72 76.79, -45.84 77.18 M-45.84 77.18 C-48.15 81.27, -50.47 85.35, -52.09 88.21 M-45.84 77.18 C-47.81 80.65, -49.78 84.13, -52.09 88.21 M-52.09 88.21 C-53.9 85.67, -55.71 83.12, -60.79 75.98 M-52.09 88.21 C-54.56 84.74, -57.02 81.28, -60.79 75.98 M-60.79 75.98 C-60.79 75.98, -60.79 75.98, -60.79 75.98 M-60.79 75.98 C-60.79 75.98, -60.79 75.98, -60.79 75.98" stroke="#1e1e1e" stroke-width="4" fill="none"></path></g></g><mask></mask></svg>