<svg version="1.1" xmlns="http://www.w3.org/2000/svg" viewBox="0 0 304.39651364111955 174.1640343873708" width="304.39651364111955" height="174.1640343873708">
  <!-- svg-source:excalidraw -->
  
  <defs>
    <style class="style-fonts">
      @font-face {
        font-family: "Virgil";
        src: url("https://excalidraw.com/Virgil.woff2");
      }
      @font-face {
        font-family: "Cascadia";
        src: url("https://excalidraw.com/Cascadia.woff2");
      }
      @font-face {
        font-family: "Assistant";
        src: url("https://excalidraw.com/Assistant-Regular.woff2");
      }
    </style>
    
  </defs>
  <rect x="0" y="0" width="304.39651364111955" height="174.1640343873708" fill="#ffffff"></rect><g stroke-linecap="round"><g transform="translate(59.616531329037684 82.35684508316098) rotate(0 116.05979295597251 1.9952973001026635)"><path d="M0 0 C61.29 1.05, 122.58 2.11, 232.12 3.99 M0 0 C55.08 0.95, 110.16 1.89, 232.12 3.99" stroke="#1e1e1e" stroke-width="2" fill="none"></path></g></g><mask></mask><g stroke-linecap="round"><g transform="translate(50.423940552882584 71.94360181357064) rotate(0 -15.954305538499028 3.5687262388748024)"><path d="M0 0 C-5.32 1.19, -26.59 5.95, -31.91 7.14 M0 0 C-5.32 1.19, -26.59 5.95, -31.91 7.14" stroke="#1e1e1e" stroke-width="2" fill="none"></path></g></g><mask></mask><g stroke-linecap="round"><g transform="translate(18.515329475884528 79.08105429132024) rotate(0 15.744380465624033 6.507677259124591)"><path d="M0 0 C5.25 2.17, 26.24 10.85, 31.49 13.02 M0 0 C5.25 2.17, 26.24 10.85, 31.49 13.02" stroke="#1e1e1e" stroke-width="2" fill="none"></path></g></g><mask></mask><g stroke-linecap="round"><g transform="translate(47.9048396783827 72.36345195932063) rotate(0 1.1724181997785763 9.236703206499442)"><path d="M0 0 C0.39 1.46, 2.34 5.67, 2.34 8.75 C2.34 11.83, 0.39 16.85, 0 18.47 M0 0 C0.39 1.46, 2.34 5.67, 2.34 8.75 C2.34 11.83, 0.39 16.85, 0 18.47" stroke="#1e1e1e" stroke-width="2" fill="none"></path></g></g><mask></mask><g stroke-linecap="round" transform="translate(43.44016903754789 77.3384225824596) rotate(0 1.8323380294546894 3.8937183125912043)"><path d="M3.66 3.89 C3.66 4.12, 3.66 4.35, 3.64 4.57 C3.62 4.79, 3.59 5.01, 3.55 5.23 C3.52 5.44, 3.47 5.65, 3.42 5.84 C3.37 6.04, 3.3 6.22, 3.24 6.4 C3.17 6.57, 3.09 6.73, 3.01 6.88 C2.93 7.02, 2.84 7.15, 2.75 7.27 C2.66 7.38, 2.56 7.48, 2.46 7.55 C2.36 7.63, 2.25 7.69, 2.15 7.73 C2.05 7.77, 1.94 7.79, 1.83 7.79 C1.73 7.79, 1.62 7.77, 1.51 7.73 C1.41 7.69, 1.31 7.63, 1.21 7.55 C1.11 7.48, 1.01 7.38, 0.92 7.27 C0.82 7.15, 0.74 7.02, 0.65 6.88 C0.57 6.73, 0.5 6.57, 0.43 6.4 C0.36 6.22, 0.3 6.04, 0.25 5.84 C0.19 5.65, 0.15 5.44, 0.11 5.23 C0.07 5.01, 0.05 4.79, 0.03 4.57 C0.01 4.35, 0 4.12, 0 3.89 C0 3.67, 0.01 3.44, 0.03 3.22 C0.05 3, 0.07 2.77, 0.11 2.56 C0.15 2.35, 0.19 2.14, 0.25 1.95 C0.3 1.75, 0.36 1.56, 0.43 1.39 C0.5 1.22, 0.57 1.06, 0.65 0.91 C0.74 0.77, 0.82 0.63, 0.92 0.52 C1.01 0.41, 1.11 0.31, 1.21 0.23 C1.31 0.16, 1.41 0.1, 1.51 0.06 C1.62 0.02, 1.73 0, 1.83 0 C1.94 0, 2.05 0.02, 2.15 0.06 C2.25 0.1, 2.36 0.16, 2.46 0.23 C2.56 0.31, 2.66 0.41, 2.75 0.52 C2.84 0.63, 2.93 0.77, 3.01 0.91 C3.09 1.06, 3.17 1.22, 3.24 1.39 C3.3 1.56, 3.37 1.75, 3.42 1.95 C3.47 2.14, 3.52 2.35, 3.55 2.56 C3.59 2.77, 3.62 3, 3.64 3.22 C3.66 3.44, 3.66 3.78, 3.66 3.89 C3.67 4.01, 3.67 3.78, 3.66 3.89" stroke="#1e1e1e" stroke-width="2" fill="none"></path></g><g stroke-linecap="round"><g stroke-opacity="0.9" fill-opacity="0.9" transform="translate(150.63194376064723 70.92523947936826) rotate(0 26.04202939268214 7.100309864136932)" fill-rule="evenodd"><path d="M0 0 L0 43.98 L52.08 13.91 L52.08 -29.78 L0 0" stroke="none" stroke-width="0" fill="#e9ecef" fill-rule="evenodd"></path><path d="M0 0 C0 12.52, 0 25.04, 0 43.98 M0 0 C0 11.32, 0 22.64, 0 43.98 M0 43.98 C18.73 33.16, 37.45 22.35, 52.08 13.91 M0 43.98 C16.26 34.59, 32.53 25.2, 52.08 13.91 M52.08 13.91 C52.08 -2.58, 52.08 -19.06, 52.08 -29.78 M52.08 13.91 C52.08 0.88, 52.08 -12.15, 52.08 -29.78 M52.08 -29.78 C36.65 -20.95, 21.21 -12.13, 0 0 M52.08 -29.78 C36.93 -21.11, 21.77 -12.45, 0 0 M0 0 C0 0, 0 0, 0 0 M0 0 C0 0, 0 0, 0 0" stroke="#1e1e1e" stroke-width="2" fill="none"></path></g></g><mask></mask><g stroke-linecap="round"><g transform="translate(58.951432229003444 82.02429553314386) rotate(0 115.06214430592115 -32.25730635165996)"><path d="M0 0 C87.64 -24.57, 175.29 -49.14, 230.12 -64.51 M0 0 C77.64 -21.77, 155.29 -43.53, 230.12 -64.51" stroke="#1e1e1e" stroke-width="2" fill="none"></path></g></g><mask></mask><g stroke-linecap="round"><g transform="translate(59.283981779020564 82.02429553314386) rotate(0 117.5562659310495 41.069869427113474)"><path d="M0 0 C87.84 30.69, 175.68 61.38, 235.11 82.14 M0 0 C56.58 19.77, 113.17 39.54, 235.11 82.14" stroke="#1e1e1e" stroke-width="2" fill="none"></path></g></g><mask></mask><g stroke-linecap="round"><g transform="translate(59.283981779020564 81.69174598312674) rotate(0 115.22841908092971 -13.468256775693078)"><path d="M0 0 C62.96 -7.36, 125.93 -14.72, 230.46 -26.94 M0 0 C61.07 -7.14, 122.15 -14.28, 230.46 -26.94" stroke="#1e1e1e" stroke-width="2" fill="none"></path></g></g><mask></mask><g stroke-opacity="0.9" fill-opacity="0.9" transform="translate(130.93430994400921 10) rotate(0 37.236328125 11.5)"><text x="0" y="18.400390625" font-family="Helvetica, Segoe UI Emoji" font-size="20px" fill="#1e1e1e" text-anchor="start" style="white-space: pre;" direction="ltr" dominant-baseline="alphabetic">viewport</text></g><g stroke-opacity="0.9" fill-opacity="0.9" transform="translate(10 36.110816919729245) rotate(0 27.79296875 11.5)"><text x="0" y="18.400390625" font-family="Helvetica, Segoe UI Emoji" font-size="20px" fill="#1e1e1e" text-anchor="start" style="white-space: pre;" direction="ltr" dominant-baseline="alphabetic">centro</text></g></svg>