<svg version="1.1" xmlns="http://www.w3.org/2000/svg" viewBox="0 0 644.2235538152624 341.2529857219953" width="644.2235538152624" height="341.2529857219953">
  <!-- svg-source:excalidraw -->
  
  <defs>
    <style class="style-fonts">
      @font-face {
        font-family: "Virgil";
        src: url("https://excalidraw.com/Virgil.woff2");
      }
      @font-face {
        font-family: "Cascadia";
        src: url("https://excalidraw.com/Cascadia.woff2");
      }
      @font-face {
        font-family: "Assistant";
        src: url("https://excalidraw.com/Assistant-Regular.woff2");
      }
    </style>
    
  </defs>
  <rect x="0" y="0" width="644.2235538152624" height="341.2529857219953" fill="#ffffff"></rect><g stroke-linecap="round"><g transform="translate(247.6172027542193 151.54643635921923) rotate(0 130.28833395090237 -25.867724951163012)"><path d="M0 0 C64.58 -12.82, 129.16 -25.64, 260.58 -51.74 M0 0 C63.63 -12.63, 127.26 -25.27, 260.58 -51.74" stroke="#e03131" stroke-width="1" fill="none"></path></g><g transform="translate(247.6172027542193 151.54643635921923) rotate(0 130.28833395090237 -25.867724951163012)"><path d="M260.58 -51.74 L248.48 -42.87 L246.01 -55.31 L260.58 -51.74" stroke="none" stroke-width="0" fill="#e03131" fill-rule="evenodd"></path><path d="M260.58 -51.74 C257.58 -49.54, 254.58 -47.34, 248.48 -42.87 M260.58 -51.74 C257.62 -49.57, 254.67 -47.41, 248.48 -42.87 M248.48 -42.87 C247.75 -46.51, 247.03 -50.15, 246.01 -55.31 M248.48 -42.87 C247.85 -46.01, 247.23 -49.14, 246.01 -55.31 M246.01 -55.31 C248.95 -54.58, 251.9 -53.86, 260.58 -51.74 M246.01 -55.31 C249.6 -54.43, 253.18 -53.55, 260.58 -51.74 M260.58 -51.74 C260.58 -51.74, 260.58 -51.74, 260.58 -51.74 M260.58 -51.74 C260.58 -51.74, 260.58 -51.74, 260.58 -51.74" stroke="#e03131" stroke-width="1" fill="none"></path></g></g><mask></mask><g stroke-linecap="round"><g transform="translate(188.80553549590798 226.20567542090834) rotate(0 148.08445479356902 29.003647647059353)"><path d="M0 0 C112.44 22.02, 224.88 44.04, 296.17 58.01 M0 0 C81.44 15.95, 162.88 31.9, 296.17 58.01" stroke="#e03131" stroke-width="1" fill="none"></path></g><g transform="translate(188.80553549590798 226.20567542090834) rotate(0 148.08445479356902 29.003647647059353)"><path d="M296.17 58.01 L281.61 61.62 L284.05 49.17 L296.17 58.01" stroke="none" stroke-width="0" fill="#e03131" fill-rule="evenodd"></path><path d="M296.17 58.01 C290.64 59.38, 285.11 60.75, 281.61 61.62 M296.17 58.01 C292.17 59, 288.16 59.99, 281.61 61.62 M281.61 61.62 C282.24 58.4, 282.87 55.19, 284.05 49.17 M281.61 61.62 C282.52 56.97, 283.43 52.32, 284.05 49.17 M284.05 49.17 C287.04 51.36, 290.04 53.54, 296.17 58.01 M284.05 49.17 C286.69 51.1, 289.32 53.02, 296.17 58.01 M296.17 58.01 C296.17 58.01, 296.17 58.01, 296.17 58.01 M296.17 58.01 C296.17 58.01, 296.17 58.01, 296.17 58.01" stroke="#e03131" stroke-width="1" fill="none"></path></g></g><mask></mask><g stroke-linecap="round"><g transform="translate(187.83623413894685 158.04531601019062) rotate(0 164.39016726529476 -44.048212562352916)"><path d="M0 0 C96.26 -25.79, 192.51 -51.58, 328.78 -88.1 M0 0 C93.89 -25.16, 187.79 -50.32, 328.78 -88.1" stroke="#e03131" stroke-width="1" fill="none"></path></g><g transform="translate(187.83623413894685 158.04531601019062) rotate(0 164.39016726529476 -44.048212562352916)"><path d="M328.78 -88.1 L317.29 -78.45 L314.01 -90.7 L328.78 -88.1" stroke="none" stroke-width="0" fill="#e03131" fill-rule="evenodd"></path><path d="M328.78 -88.1 C325.42 -85.27, 322.05 -82.45, 317.29 -78.45 M328.78 -88.1 C325.5 -85.34, 322.22 -82.59, 317.29 -78.45 M317.29 -78.45 C315.99 -83.31, 314.69 -88.16, 314.01 -90.7 M317.29 -78.45 C316.16 -82.66, 315.03 -86.87, 314.01 -90.7 M314.01 -90.7 C318.25 -89.95, 322.49 -89.2, 328.78 -88.1 M314.01 -90.7 C318.35 -89.94, 322.69 -89.17, 328.78 -88.1 M328.78 -88.1 C328.78 -88.1, 328.78 -88.1, 328.78 -88.1 M328.78 -88.1 C328.78 -88.1, 328.78 -88.1, 328.78 -88.1" stroke="#e03131" stroke-width="1" fill="none"></path></g></g><mask></mask><g stroke-linecap="round"><g stroke-opacity="0.9" fill-opacity="0.9" transform="translate(161.60099810410713 124.37846605924929) rotate(0 130.0644681970441 65.89534307570838)" fill-rule="evenodd"><path d="M0 0 L0 133.03 L260.13 164.48 L260.13 -32.68 L0 0" stroke="none" stroke-width="0" fill="#e9ecef" fill-rule="evenodd"></path><path d="M0 0 C0 45.59, 0 91.18, 0 133.03 M0 0 C0 26.74, 0 53.49, 0 133.03 M0 133.03 C67.04 141.14, 134.08 149.24, 260.13 164.48 M0 133.03 C63.18 140.67, 126.35 148.3, 260.13 164.48 M260.13 164.48 C260.13 86.05, 260.13 7.62, 260.13 -32.68 M260.13 164.48 C260.13 120.99, 260.13 77.5, 260.13 -32.68 M260.13 -32.68 C201.55 -25.32, 142.97 -17.96, 0 0 M260.13 -32.68 C206.37 -25.93, 152.61 -19.18, 0 0 M0 0 C0 0, 0 0, 0 0 M0 0 C0 0, 0 0, 0 0" stroke="#1e1e1e" stroke-width="2" fill="none"></path></g></g><mask></mask><g transform="translate(37.744159671239686 192.6144094551346) rotate(0 0.00004999999998744897 0.00004999999998744897)" stroke="none"><path fill="#1e1e1e" d="M 3.14,-3.14 Q 3.14,-3.14 3.55,-2.55 3.97,-1.97 4.18,-1.28 4.40,-0.59 4.38,0.11 4.36,0.83 4.11,1.51 3.86,2.18 3.41,2.74 2.96,3.30 2.36,3.69 1.75,4.08 1.05,4.25 0.36,4.42 -0.35,4.36 -1.07,4.31 -1.73,4.02 -2.39,3.74 -2.92,3.26 -3.46,2.78 -3.81,2.15 -4.16,1.53 -4.30,0.82 -4.43,0.11 -4.34,-0.59 -4.24,-1.30 -3.92,-1.94 -3.60,-2.59 -3.09,-3.09 -2.59,-3.60 -1.94,-3.92 -1.30,-4.24 -0.59,-4.34 0.12,-4.43 0.82,-4.30 1.53,-4.16 2.15,-3.81 2.78,-3.46 3.26,-2.92 3.74,-2.39 4.02,-1.73 4.31,-1.07 4.36,-0.35 4.42,0.36 4.25,1.05 4.07,1.75 3.69,2.36 3.30,2.96 2.74,3.41 2.18,3.86 1.51,4.11 0.83,4.36 0.11,4.38 -0.60,4.40 -1.28,4.18 -1.97,3.97 -2.55,3.55 -3.14,3.13 -3.14,3.14 -3.14,3.14 -3.47,2.71 -3.80,2.29 -4.02,1.80 -4.24,1.32 -4.33,0.79 -4.43,0.26 -4.40,-0.26 -4.36,-0.80 -4.20,-1.31 -4.04,-1.82 -3.77,-2.28 -3.49,-2.73 -3.11,-3.11 -2.73,-3.49 -2.28,-3.77 -1.82,-4.05 -1.31,-4.20 -0.80,-4.36 -0.26,-4.40 0.26,-4.43 0.79,-4.33 1.32,-4.24 1.80,-4.02 2.29,-3.80 2.71,-3.47 3.14,-3.14 3.14,-3.14 L 3.14,-3.14 Z"></path></g><g stroke-linecap="round"><g transform="translate(276.32806147071983 109.9212902700259) rotate(0 0 80.70057056902075)"><path d="M0 0 C0 60.02, 0 120.04, 0 161.4 M0 0 C0 63.31, 0 126.62, 0 161.4" stroke="#1e1e1e" stroke-width="1" fill="none"></path></g></g><mask></mask><g stroke-linecap="round"><g transform="translate(160.6135542511031 191.18358174787977) rotate(0 130.50649115222149 0)"><path d="M0 0 C103.98 0, 207.96 0, 261.01 0 M0 0 C104.07 0, 208.15 0, 261.01 0" stroke="#1e1e1e" stroke-width="1" fill="none"></path></g></g><mask></mask><g stroke-linecap="round"><g transform="translate(214.53876149907984 117.41090238780049) rotate(0 0 73.39819875419056)"><path d="M0 0 C0 51.41, 0 102.82, 0 146.8 M0 0 C0 43.85, 0 87.69, 0 146.8" stroke="#1e1e1e" stroke-width="1" fill="none"></path></g></g><mask></mask><g stroke-linecap="round"><g transform="translate(344.10905113657964 102.05719754636266) rotate(0 0 88.75190359562839)"><path d="M0 0 C0 44.68, 0 89.36, 0 177.5 M0 0 C0 67.52, 0 135.05, 0 177.5" stroke="#1e1e1e" stroke-width="1" fill="none"></path></g></g><mask></mask><g transform="translate(234.917840709718 70.76079715664736) rotate(0 37.236328125 11.5)"><text x="0" y="18.400390625" font-family="Helvetica, Segoe UI Emoji" font-size="20px" fill="#1e1e1e" text-anchor="start" style="white-space: pre;" direction="ltr" dominant-baseline="alphabetic">viewport</text></g><g transform="translate(10 155.2448617018399) rotate(0 27.79296875 11.5)"><text x="0" y="18.400390625" font-family="Helvetica, Segoe UI Emoji" font-size="20px" fill="#1e1e1e" text-anchor="start" style="white-space: pre;" direction="ltr" dominant-baseline="alphabetic">centro</text></g><g stroke-linecap="round"><g transform="translate(37.41535869347314 191.61217425440634) rotate(0 75.25236212800266 -16.784913485799905)"><path d="M0 0 C39.12 -8.73, 78.25 -17.45, 150.5 -33.57 M0 0 C39.78 -8.87, 79.56 -17.75, 150.5 -33.57" stroke="#e03131" stroke-width="1" fill="none"></path></g></g><mask></mask><g stroke-opacity="0.9" fill-opacity="0.9" transform="translate(92.82906160915928 140.78596532497775) rotate(0 24.453125 11.499999999999986)"><text x="0" y="18.400390625" font-family="Helvetica, Segoe UI Emoji" font-size="20px" fill="#e03131" text-anchor="start" style="white-space: pre;" direction="ltr" dominant-baseline="alphabetic">rayos</text></g><g stroke-linecap="round"><g stroke-opacity="0.9" fill-opacity="0.9" transform="translate(37.36245364006976 191.64826225630077) rotate(0 104.94798387668033 -19.99468288240149)"><path d="M0 0 C48.5 -9.24, 97 -18.48, 209.9 -39.99 M0 0 C46.78 -8.91, 93.55 -17.82, 209.9 -39.99" stroke="#e03131" stroke-width="1" fill="none"></path></g></g><mask></mask><g stroke-linecap="round"><g stroke-opacity="0.9" fill-opacity="0.9" transform="translate(37.70561669260201 191.5666659016038) rotate(0 75.07396670721411 16.782530797702634)"><path d="M0 0 C35.41 7.92, 70.83 15.83, 150.15 33.57 M0 0 C48.74 10.9, 97.48 21.79, 150.15 33.57" stroke="#e03131" stroke-width="1" fill="none"></path></g></g><mask></mask><g stroke-linecap="round" transform="translate(478.2235363766464 175.25296828337923) rotate(0 78.00000871930803 78.00000871930803)"><path d="M156 78 C156 80.72, 155.86 83.45, 155.57 86.15 C155.29 88.86, 154.86 91.56, 154.3 94.22 C153.73 96.88, 153.02 99.52, 152.18 102.1 C151.34 104.69, 150.36 107.24, 149.26 109.73 C148.15 112.21, 146.91 114.65, 145.55 117 C144.19 119.35, 142.7 121.65, 141.1 123.85 C139.51 126.05, 137.78 128.17, 135.97 130.19 C134.15 132.21, 132.21 134.15, 130.19 135.97 C128.17 137.78, 126.05 139.51, 123.85 141.1 C121.65 142.7, 119.35 144.19, 117 145.55 C114.65 146.91, 112.21 148.15, 109.73 149.26 C107.24 150.36, 104.69 151.34, 102.1 152.18 C99.52 153.02, 96.88 153.73, 94.22 154.3 C91.56 154.86, 88.86 155.29, 86.15 155.57 C83.45 155.86, 80.72 156, 78 156 C75.28 156, 72.55 155.86, 69.85 155.57 C67.14 155.29, 64.44 154.86, 61.78 154.3 C59.12 153.73, 56.48 153.02, 53.9 152.18 C51.31 151.34, 48.76 150.36, 46.27 149.26 C43.79 148.15, 41.35 146.91, 39 145.55 C36.65 144.19, 34.35 142.7, 32.15 141.1 C29.95 139.51, 27.83 137.78, 25.81 135.97 C23.79 134.15, 21.85 132.21, 20.03 130.19 C18.22 128.17, 16.49 126.05, 14.9 123.85 C13.3 121.65, 11.81 119.35, 10.45 117 C9.09 114.65, 7.85 112.21, 6.74 109.73 C5.64 107.24, 4.66 104.69, 3.82 102.1 C2.98 99.52, 2.27 96.88, 1.7 94.22 C1.14 91.56, 0.71 88.86, 0.43 86.15 C0.14 83.45, 0 80.72, 0 78 C0 75.28, 0.14 72.55, 0.43 69.85 C0.71 67.14, 1.14 64.44, 1.7 61.78 C2.27 59.12, 2.98 56.48, 3.82 53.9 C4.66 51.31, 5.64 48.76, 6.74 46.27 C7.85 43.79, 9.09 41.35, 10.45 39 C11.81 36.65, 13.3 34.35, 14.9 32.15 C16.49 29.95, 18.22 27.83, 20.03 25.81 C21.85 23.79, 23.79 21.85, 25.81 20.03 C27.83 18.22, 29.95 16.49, 32.15 14.9 C34.35 13.3, 36.65 11.81, 39 10.45 C41.35 9.09, 43.79 7.85, 46.27 6.74 C48.76 5.64, 51.31 4.66, 53.9 3.82 C56.48 2.98, 59.12 2.27, 61.78 1.7 C64.44 1.14, 67.14 0.71, 69.85 0.43 C72.55 0.14, 75.28 0, 78 0 C80.72 0, 83.45 0.14, 86.15 0.43 C88.86 0.71, 91.56 1.14, 94.22 1.7 C96.88 2.27, 99.52 2.98, 102.1 3.82 C104.69 4.66, 107.24 5.64, 109.73 6.74 C112.21 7.85, 114.65 9.09, 117 10.45 C119.35 11.81, 121.65 13.3, 123.85 14.9 C126.05 16.49, 128.17 18.22, 130.19 20.03 C132.21 21.85, 134.15 23.79, 135.97 25.81 C137.78 27.83, 139.51 29.95, 141.1 32.15 C142.7 34.35, 144.19 36.65, 145.55 39 C146.91 41.35, 148.15 43.79, 149.26 46.27 C150.36 48.76, 151.34 51.31, 152.18 53.9 C153.02 56.48, 153.73 59.12, 154.3 61.78 C154.86 64.44, 155.29 67.14, 155.57 69.85 C155.86 72.55, 155.93 76.64, 156 78 C156.07 79.36, 156.07 76.64, 156 78" stroke="none" stroke-width="0" fill="#ffffff"></path><path d="M156 78 C156 80.72, 155.86 83.45, 155.57 86.15 C155.29 88.86, 154.86 91.56, 154.3 94.22 C153.73 96.88, 153.02 99.52, 152.18 102.1 C151.34 104.69, 150.36 107.24, 149.26 109.73 C148.15 112.21, 146.91 114.65, 145.55 117 C144.19 119.35, 142.7 121.65, 141.1 123.85 C139.51 126.05, 137.78 128.17, 135.97 130.19 C134.15 132.21, 132.21 134.15, 130.19 135.97 C128.17 137.78, 126.05 139.51, 123.85 141.1 C121.65 142.7, 119.35 144.19, 117 145.55 C114.65 146.91, 112.21 148.15, 109.73 149.26 C107.24 150.36, 104.69 151.34, 102.1 152.18 C99.52 153.02, 96.88 153.73, 94.22 154.3 C91.56 154.86, 88.86 155.29, 86.15 155.57 C83.45 155.86, 80.72 156, 78 156 C75.28 156, 72.55 155.86, 69.85 155.57 C67.14 155.29, 64.44 154.86, 61.78 154.3 C59.12 153.73, 56.48 153.02, 53.9 152.18 C51.31 151.34, 48.76 150.36, 46.27 149.26 C43.79 148.15, 41.35 146.91, 39 145.55 C36.65 144.19, 34.35 142.7, 32.15 141.1 C29.95 139.51, 27.83 137.78, 25.81 135.97 C23.79 134.15, 21.85 132.21, 20.03 130.19 C18.22 128.17, 16.49 126.05, 14.9 123.85 C13.3 121.65, 11.81 119.35, 10.45 117 C9.09 114.65, 7.85 112.21, 6.74 109.73 C5.64 107.24, 4.66 104.69, 3.82 102.1 C2.98 99.52, 2.27 96.88, 1.7 94.22 C1.14 91.56, 0.71 88.86, 0.43 86.15 C0.14 83.45, 0 80.72, 0 78 C0 75.28, 0.14 72.55, 0.43 69.85 C0.71 67.14, 1.14 64.44, 1.7 61.78 C2.27 59.12, 2.98 56.48, 3.82 53.9 C4.66 51.31, 5.64 48.76, 6.74 46.27 C7.85 43.79, 9.09 41.35, 10.45 39 C11.81 36.65, 13.3 34.35, 14.9 32.15 C16.49 29.95, 18.22 27.83, 20.03 25.81 C21.85 23.79, 23.79 21.85, 25.81 20.03 C27.83 18.22, 29.95 16.49, 32.15 14.9 C34.35 13.3, 36.65 11.81, 39 10.45 C41.35 9.09, 43.79 7.85, 46.27 6.74 C48.76 5.64, 51.31 4.66, 53.9 3.82 C56.48 2.98, 59.12 2.27, 61.78 1.7 C64.44 1.14, 67.14 0.71, 69.85 0.43 C72.55 0.14, 75.28 0, 78 0 C80.72 0, 83.45 0.14, 86.15 0.43 C88.86 0.71, 91.56 1.14, 94.22 1.7 C96.88 2.27, 99.52 2.98, 102.1 3.82 C104.69 4.66, 107.24 5.64, 109.73 6.74 C112.21 7.85, 114.65 9.09, 117 10.45 C119.35 11.81, 121.65 13.3, 123.85 14.9 C126.05 16.49, 128.17 18.22, 130.19 20.03 C132.21 21.85, 134.15 23.79, 135.97 25.81 C137.78 27.83, 139.51 29.95, 141.1 32.15 C142.7 34.35, 144.19 36.65, 145.55 39 C146.91 41.35, 148.15 43.79, 149.26 46.27 C150.36 48.76, 151.34 51.31, 152.18 53.9 C153.02 56.48, 153.73 59.12, 154.3 61.78 C154.86 64.44, 155.29 67.14, 155.57 69.85 C155.86 72.55, 155.93 76.64, 156 78 C156.07 79.36, 156.07 76.64, 156 78" stroke="#000000" stroke-width="1" fill="none"></path></g><g stroke-opacity="0.9" fill-opacity="0.9" transform="translate(524.5877973524214 10) rotate(0 32.24609375 11.5)"><text x="0" y="18.400390625" font-family="Helvetica, Segoe UI Emoji" font-size="20px" fill="#1e1e1e" text-anchor="start" style="white-space: pre;" direction="ltr" dominant-baseline="alphabetic">escena</text></g><g stroke-linecap="round" transform="translate(489.8478485402843 108.10300042233581) rotate(0 64.09866518554054 64.09866518554057)"><path d="M128.2 64.1 C128.2 66.67, 128.04 69.27, 127.73 71.82 C127.42 74.38, 126.95 76.94, 126.33 79.44 C125.72 81.94, 124.95 84.42, 124.03 86.83 C123.12 89.24, 122.05 91.61, 120.86 93.89 C119.66 96.17, 118.31 98.39, 116.85 100.51 C115.39 102.63, 113.79 104.68, 112.08 106.6 C110.37 108.53, 108.53 110.37, 106.6 112.08 C104.68 113.79, 102.63 115.39, 100.51 116.85 C98.39 118.31, 96.17 119.66, 93.89 120.86 C91.61 122.05, 89.24 123.12, 86.83 124.03 C84.42 124.95, 81.94 125.72, 79.44 126.33 C76.94 126.95, 74.38 127.42, 71.82 127.73 C69.27 128.04, 66.67 128.2, 64.1 128.2 C61.52 128.2, 58.93 128.04, 56.37 127.73 C53.82 127.42, 51.26 126.95, 48.76 126.33 C46.26 125.72, 43.78 124.95, 41.37 124.03 C38.96 123.12, 36.59 122.05, 34.31 120.86 C32.03 119.66, 29.81 118.31, 27.69 116.85 C25.57 115.39, 23.52 113.79, 21.59 112.08 C19.67 110.37, 17.83 108.53, 16.12 106.6 C14.41 104.68, 12.81 102.63, 11.35 100.51 C9.88 98.39, 8.54 96.17, 7.34 93.89 C6.15 91.61, 5.08 89.24, 4.17 86.83 C3.25 84.42, 2.48 81.94, 1.86 79.44 C1.25 76.94, 0.78 74.38, 0.47 71.82 C0.16 69.27, 0 66.67, 0 64.1 C0 61.52, 0.16 58.93, 0.47 56.37 C0.78 53.82, 1.25 51.26, 1.86 48.76 C2.48 46.26, 3.25 43.78, 4.17 41.37 C5.08 38.96, 6.15 36.59, 7.34 34.31 C8.54 32.03, 9.88 29.81, 11.35 27.69 C12.81 25.57, 14.41 23.52, 16.12 21.59 C17.83 19.67, 19.67 17.83, 21.59 16.12 C23.52 14.41, 25.57 12.81, 27.69 11.35 C29.81 9.88, 32.03 8.54, 34.31 7.34 C36.59 6.15, 38.96 5.08, 41.37 4.17 C43.78 3.25, 46.26 2.48, 48.76 1.86 C51.26 1.25, 53.82 0.78, 56.37 0.47 C58.93 0.16, 61.52 0, 64.1 0 C66.67 0, 69.27 0.16, 71.82 0.47 C74.38 0.78, 76.94 1.25, 79.44 1.86 C81.94 2.48, 84.42 3.25, 86.83 4.17 C89.24 5.08, 91.61 6.15, 93.89 7.34 C96.17 8.54, 98.39 9.88, 100.51 11.35 C102.63 12.81, 104.68 14.41, 106.6 16.12 C108.53 17.83, 110.37 19.67, 112.08 21.59 C113.79 23.52, 115.39 25.57, 116.85 27.69 C118.31 29.81, 119.66 32.03, 120.86 34.31 C122.05 36.59, 123.12 38.96, 124.03 41.37 C124.95 43.78, 125.72 46.26, 126.33 48.76 C126.95 51.26, 127.42 53.82, 127.73 56.37 C128.04 58.93, 128.2 61.52, 128.2 64.1" stroke="none" stroke-width="0" fill="#ffffff"></path><path d="M128.2 64.1 C128.2 66.67, 128.04 69.27, 127.73 71.82 C127.42 74.38, 126.95 76.94, 126.33 79.44 C125.72 81.94, 124.95 84.42, 124.03 86.83 C123.12 89.24, 122.05 91.61, 120.86 93.89 C119.66 96.17, 118.31 98.39, 116.85 100.51 C115.39 102.63, 113.79 104.68, 112.08 106.6 C110.37 108.53, 108.53 110.37, 106.6 112.08 C104.68 113.79, 102.63 115.39, 100.51 116.85 C98.39 118.31, 96.17 119.66, 93.89 120.86 C91.61 122.05, 89.24 123.12, 86.83 124.03 C84.42 124.95, 81.94 125.72, 79.44 126.33 C76.94 126.95, 74.38 127.42, 71.82 127.73 C69.27 128.04, 66.67 128.2, 64.1 128.2 C61.52 128.2, 58.93 128.04, 56.37 127.73 C53.82 127.42, 51.26 126.95, 48.76 126.33 C46.26 125.72, 43.78 124.95, 41.37 124.03 C38.96 123.12, 36.59 122.05, 34.31 120.86 C32.03 119.66, 29.81 118.31, 27.69 116.85 C25.57 115.39, 23.52 113.79, 21.59 112.08 C19.67 110.37, 17.83 108.53, 16.12 106.6 C14.41 104.68, 12.81 102.63, 11.35 100.51 C9.88 98.39, 8.54 96.17, 7.34 93.89 C6.15 91.61, 5.08 89.24, 4.17 86.83 C3.25 84.42, 2.48 81.94, 1.86 79.44 C1.25 76.94, 0.78 74.38, 0.47 71.82 C0.16 69.27, 0 66.67, 0 64.1 C0 61.52, 0.16 58.93, 0.47 56.37 C0.78 53.82, 1.25 51.26, 1.86 48.76 C2.48 46.26, 3.25 43.78, 4.17 41.37 C5.08 38.96, 6.15 36.59, 7.34 34.31 C8.54 32.03, 9.88 29.81, 11.35 27.69 C12.81 25.57, 14.41 23.52, 16.12 21.59 C17.83 19.67, 19.67 17.83, 21.59 16.12 C23.52 14.41, 25.57 12.81, 27.69 11.35 C29.81 9.88, 32.03 8.54, 34.31 7.34 C36.59 6.15, 38.96 5.08, 41.37 4.17 C43.78 3.25, 46.26 2.48, 48.76 1.86 C51.26 1.25, 53.82 0.78, 56.37 0.47 C58.93 0.16, 61.52 0, 64.1 0 C66.67 0, 69.27 0.16, 71.82 0.47 C74.38 0.78, 76.94 1.25, 79.44 1.86 C81.94 2.48, 84.42 3.25, 86.83 4.17 C89.24 5.08, 91.61 6.15, 93.89 7.34 C96.17 8.54, 98.39 9.88, 100.51 11.35 C102.63 12.81, 104.68 14.41, 106.6 16.12 C108.53 17.83, 110.37 19.67, 112.08 21.59 C113.79 23.52, 115.39 25.57, 116.85 27.69 C118.31 29.81, 119.66 32.03, 120.86 34.31 C122.05 36.59, 123.12 38.96, 124.03 41.37 C124.95 43.78, 125.72 46.26, 126.33 48.76 C126.95 51.26, 127.42 53.82, 127.73 56.37 C128.04 58.93, 128.2 61.52, 128.2 64.1" stroke="#000000" stroke-width="1" fill="none"></path></g><g stroke-linecap="round" transform="translate(509.8877077591163 48.596282753499054) rotate(0 44.01894674787667 44.01894674787667)"><path d="M88.04 44.02 C88.04 46.11, 87.89 48.22, 87.59 50.28 C87.29 52.35, 86.84 54.42, 86.25 56.42 C85.67 58.42, 84.93 60.41, 84.06 62.31 C83.19 64.2, 82.18 66.06, 81.05 67.82 C79.92 69.57, 78.65 71.27, 77.29 72.85 C75.92 74.42, 74.42 75.92, 72.85 77.29 C71.27 78.65, 69.57 79.92, 67.82 81.05 C66.06 82.18, 64.2 83.19, 62.31 84.06 C60.41 84.93, 58.42 85.67, 56.42 86.25 C54.42 86.84, 52.35 87.29, 50.28 87.59 C48.22 87.89, 46.11 88.04, 44.02 88.04 C41.93 88.04, 39.82 87.89, 37.75 87.59 C35.69 87.29, 33.62 86.84, 31.62 86.25 C29.61 85.67, 27.63 84.93, 25.73 84.06 C23.83 83.19, 21.98 82.18, 20.22 81.05 C18.46 79.92, 16.77 78.65, 15.19 77.29 C13.61 75.92, 12.12 74.42, 10.75 72.85 C9.38 71.27, 8.12 69.57, 6.99 67.82 C5.86 66.06, 4.85 64.2, 3.98 62.31 C3.11 60.41, 2.37 58.42, 1.78 56.42 C1.19 54.42, 0.75 52.35, 0.45 50.28 C0.15 48.22, 0 46.11, 0 44.02 C0 41.93, 0.15 39.82, 0.45 37.75 C0.75 35.69, 1.19 33.62, 1.78 31.62 C2.37 29.61, 3.11 27.63, 3.98 25.73 C4.85 23.83, 5.86 21.98, 6.99 20.22 C8.12 18.46, 9.38 16.77, 10.75 15.19 C12.12 13.61, 13.61 12.12, 15.19 10.75 C16.77 9.38, 18.46 8.12, 20.22 6.99 C21.98 5.86, 23.83 4.85, 25.73 3.98 C27.63 3.11, 29.61 2.37, 31.62 1.78 C33.62 1.19, 35.69 0.75, 37.75 0.45 C39.82 0.15, 41.93 0, 44.02 0 C46.11 0, 48.22 0.15, 50.28 0.45 C52.35 0.75, 54.42 1.19, 56.42 1.78 C58.42 2.37, 60.41 3.11, 62.31 3.98 C64.2 4.85, 66.06 5.86, 67.82 6.99 C69.57 8.12, 71.27 9.38, 72.85 10.75 C74.42 12.12, 75.92 13.61, 77.29 15.19 C78.65 16.77, 79.92 18.46, 81.05 20.22 C82.18 21.98, 83.19 23.83, 84.06 25.73 C84.93 27.63, 85.67 29.61, 86.25 31.62 C86.84 33.62, 87.29 35.69, 87.59 37.75 C87.89 39.82, 87.96 42.97, 88.04 44.02 C88.11 45.06, 88.11 42.97, 88.04 44.02" stroke="none" stroke-width="0" fill="#ffffff"></path><path d="M88.04 44.02 C88.04 46.11, 87.89 48.22, 87.59 50.28 C87.29 52.35, 86.84 54.42, 86.25 56.42 C85.67 58.42, 84.93 60.41, 84.06 62.31 C83.19 64.2, 82.18 66.06, 81.05 67.82 C79.92 69.57, 78.65 71.27, 77.29 72.85 C75.92 74.42, 74.42 75.92, 72.85 77.29 C71.27 78.65, 69.57 79.92, 67.82 81.05 C66.06 82.18, 64.2 83.19, 62.31 84.06 C60.41 84.93, 58.42 85.67, 56.42 86.25 C54.42 86.84, 52.35 87.29, 50.28 87.59 C48.22 87.89, 46.11 88.04, 44.02 88.04 C41.93 88.04, 39.82 87.89, 37.75 87.59 C35.69 87.29, 33.62 86.84, 31.62 86.25 C29.61 85.67, 27.63 84.93, 25.73 84.06 C23.83 83.19, 21.98 82.18, 20.22 81.05 C18.46 79.92, 16.77 78.65, 15.19 77.29 C13.61 75.92, 12.12 74.42, 10.75 72.85 C9.38 71.27, 8.12 69.57, 6.99 67.82 C5.86 66.06, 4.85 64.2, 3.98 62.31 C3.11 60.41, 2.37 58.42, 1.78 56.42 C1.19 54.42, 0.75 52.35, 0.45 50.28 C0.15 48.22, 0 46.11, 0 44.02 C0 41.93, 0.15 39.82, 0.45 37.75 C0.75 35.69, 1.19 33.62, 1.78 31.62 C2.37 29.61, 3.11 27.63, 3.98 25.73 C4.85 23.83, 5.86 21.98, 6.99 20.22 C8.12 18.46, 9.38 16.77, 10.75 15.19 C12.12 13.61, 13.61 12.12, 15.19 10.75 C16.77 9.38, 18.46 8.12, 20.22 6.99 C21.98 5.86, 23.83 4.85, 25.73 3.98 C27.63 3.11, 29.61 2.37, 31.62 1.78 C33.62 1.19, 35.69 0.75, 37.75 0.45 C39.82 0.15, 41.93 0, 44.02 0 C46.11 0, 48.22 0.15, 50.28 0.45 C52.35 0.75, 54.42 1.19, 56.42 1.78 C58.42 2.37, 60.41 3.11, 62.31 3.98 C64.2 4.85, 66.06 5.86, 67.82 6.99 C69.57 8.12, 71.27 9.38, 72.85 10.75 C74.42 12.12, 75.92 13.61, 77.29 15.19 C78.65 16.77, 79.92 18.46, 81.05 20.22 C82.18 21.98, 83.19 23.83, 84.06 25.73 C84.93 27.63, 85.67 29.61, 86.25 31.62 C86.84 33.62, 87.29 35.69, 87.59 37.75 C87.89 39.82, 87.96 42.97, 88.04 44.02 C88.11 45.06, 88.11 42.97, 88.04 44.02" stroke="#000000" stroke-width="1" fill="none"></path></g><g stroke-opacity="0.9" fill-opacity="0.9" stroke-linecap="round" transform="translate(508.04306059450164 145.71077519473357) rotate(33.46537934635546 11.796743212854949 7.752145539876096)"><path d="M23.59 7.75 C23.59 8.2, 23.53 8.66, 23.41 9.1 C23.3 9.54, 23.12 9.98, 22.88 10.4 C22.65 10.83, 22.35 11.24, 22.01 11.63 C21.67 12.02, 21.27 12.39, 20.83 12.74 C20.39 13.08, 19.9 13.4, 19.38 13.69 C18.86 13.98, 18.29 14.24, 17.7 14.47 C17.1 14.69, 16.47 14.88, 15.83 15.04 C15.19 15.19, 14.52 15.31, 13.85 15.39 C13.17 15.46, 12.48 15.5, 11.8 15.5 C11.11 15.5, 10.42 15.46, 9.75 15.39 C9.08 15.31, 8.4 15.19, 7.76 15.04 C7.12 14.88, 6.49 14.69, 5.9 14.47 C5.31 14.24, 4.74 13.98, 4.21 13.69 C3.69 13.4, 3.2 13.08, 2.76 12.74 C2.32 12.39, 1.92 12.02, 1.58 11.63 C1.24 11.24, 0.94 10.83, 0.71 10.4 C0.48 9.98, 0.3 9.54, 0.18 9.1 C0.06 8.66, 0 8.2, 0 7.75 C0 7.3, 0.06 6.85, 0.18 6.41 C0.3 5.96, 0.48 5.52, 0.71 5.1 C0.94 4.68, 1.24 4.26, 1.58 3.88 C1.92 3.49, 2.32 3.11, 2.76 2.77 C3.2 2.43, 3.69 2.1, 4.21 1.81 C4.74 1.53, 5.31 1.26, 5.9 1.04 C6.49 0.81, 7.12 0.62, 7.76 0.47 C8.4 0.31, 9.08 0.2, 9.75 0.12 C10.42 0.04, 11.11 0, 11.8 0 C12.48 0, 13.17 0.04, 13.85 0.12 C14.52 0.2, 15.19 0.31, 15.83 0.47 C16.47 0.62, 17.1 0.81, 17.7 1.04 C18.29 1.26, 18.86 1.53, 19.38 1.81 C19.9 2.1, 20.39 2.43, 20.83 2.77 C21.27 3.11, 21.67 3.49, 22.01 3.88 C22.35 4.26, 22.65 4.68, 22.88 5.1 C23.12 5.52, 23.3 5.96, 23.41 6.41 C23.53 6.85, 23.56 7.53, 23.59 7.75 C23.62 7.98, 23.62 7.53, 23.59 7.75" stroke="none" stroke-width="0" fill="#1e1e1e"></path><path d="M23.59 7.75 C23.59 8.2, 23.53 8.66, 23.41 9.1 C23.3 9.54, 23.12 9.98, 22.88 10.4 C22.65 10.83, 22.35 11.24, 22.01 11.63 C21.67 12.02, 21.27 12.39, 20.83 12.74 C20.39 13.08, 19.9 13.4, 19.38 13.69 C18.86 13.98, 18.29 14.24, 17.7 14.47 C17.1 14.69, 16.47 14.88, 15.83 15.04 C15.19 15.19, 14.52 15.31, 13.85 15.39 C13.17 15.46, 12.48 15.5, 11.8 15.5 C11.11 15.5, 10.42 15.46, 9.75 15.39 C9.08 15.31, 8.4 15.19, 7.76 15.04 C7.12 14.88, 6.49 14.69, 5.9 14.47 C5.31 14.24, 4.74 13.98, 4.21 13.69 C3.69 13.4, 3.2 13.08, 2.76 12.74 C2.32 12.39, 1.92 12.02, 1.58 11.63 C1.24 11.24, 0.94 10.83, 0.71 10.4 C0.48 9.98, 0.3 9.54, 0.18 9.1 C0.06 8.66, 0 8.2, 0 7.75 C0 7.3, 0.06 6.85, 0.18 6.41 C0.3 5.96, 0.48 5.52, 0.71 5.1 C0.94 4.68, 1.24 4.26, 1.58 3.88 C1.92 3.49, 2.32 3.11, 2.76 2.77 C3.2 2.43, 3.69 2.1, 4.21 1.81 C4.74 1.53, 5.31 1.26, 5.9 1.04 C6.49 0.81, 7.12 0.62, 7.76 0.47 C8.4 0.31, 9.08 0.2, 9.75 0.12 C10.42 0.04, 11.11 0, 11.8 0 C12.48 0, 13.17 0.04, 13.85 0.12 C14.52 0.2, 15.19 0.31, 15.83 0.47 C16.47 0.62, 17.1 0.81, 17.7 1.04 C18.29 1.26, 18.86 1.53, 19.38 1.81 C19.9 2.1, 20.39 2.43, 20.83 2.77 C21.27 3.11, 21.67 3.49, 22.01 3.88 C22.35 4.26, 22.65 4.68, 22.88 5.1 C23.12 5.52, 23.3 5.96, 23.41 6.41 C23.53 6.85, 23.56 7.53, 23.59 7.75 C23.62 7.98, 23.62 7.53, 23.59 7.75" stroke="#1e1e1e" stroke-width="1" fill="none"></path></g><g stroke-opacity="0.9" fill-opacity="0.9" stroke-linecap="round" transform="translate(502.98731350327853 174.3600087116671) rotate(33.690067525979806 11.796743212854949 7.752145539876096)"><path d="M23.59 7.75 C23.59 8.2, 23.53 8.66, 23.41 9.1 C23.3 9.54, 23.12 9.98, 22.88 10.4 C22.65 10.83, 22.35 11.24, 22.01 11.63 C21.67 12.02, 21.27 12.39, 20.83 12.74 C20.39 13.08, 19.9 13.4, 19.38 13.69 C18.86 13.98, 18.29 14.24, 17.7 14.47 C17.1 14.69, 16.47 14.88, 15.83 15.04 C15.19 15.19, 14.52 15.31, 13.85 15.39 C13.17 15.46, 12.48 15.5, 11.8 15.5 C11.11 15.5, 10.42 15.46, 9.75 15.39 C9.08 15.31, 8.4 15.19, 7.76 15.04 C7.12 14.88, 6.49 14.69, 5.9 14.47 C5.31 14.24, 4.74 13.98, 4.21 13.69 C3.69 13.4, 3.2 13.08, 2.76 12.74 C2.32 12.39, 1.92 12.02, 1.58 11.63 C1.24 11.24, 0.94 10.83, 0.71 10.4 C0.48 9.98, 0.3 9.54, 0.18 9.1 C0.06 8.66, 0 8.2, 0 7.75 C0 7.3, 0.06 6.85, 0.18 6.41 C0.3 5.96, 0.48 5.52, 0.71 5.1 C0.94 4.68, 1.24 4.26, 1.58 3.88 C1.92 3.49, 2.32 3.11, 2.76 2.77 C3.2 2.43, 3.69 2.1, 4.21 1.81 C4.74 1.53, 5.31 1.26, 5.9 1.04 C6.49 0.81, 7.12 0.62, 7.76 0.47 C8.4 0.31, 9.08 0.2, 9.75 0.12 C10.42 0.04, 11.11 0, 11.8 0 C12.48 0, 13.17 0.04, 13.85 0.12 C14.52 0.2, 15.19 0.31, 15.83 0.47 C16.47 0.62, 17.1 0.81, 17.7 1.04 C18.29 1.26, 18.86 1.53, 19.38 1.81 C19.9 2.1, 20.39 2.43, 20.83 2.77 C21.27 3.11, 21.67 3.49, 22.01 3.88 C22.35 4.26, 22.65 4.68, 22.88 5.1 C23.12 5.52, 23.3 5.96, 23.41 6.41 C23.53 6.85, 23.56 7.53, 23.59 7.75 C23.62 7.98, 23.62 7.53, 23.59 7.75" stroke="none" stroke-width="0" fill="#1e1e1e"></path><path d="M23.59 7.75 C23.59 8.2, 23.53 8.66, 23.41 9.1 C23.3 9.54, 23.12 9.98, 22.88 10.4 C22.65 10.83, 22.35 11.24, 22.01 11.63 C21.67 12.02, 21.27 12.39, 20.83 12.74 C20.39 13.08, 19.9 13.4, 19.38 13.69 C18.86 13.98, 18.29 14.24, 17.7 14.47 C17.1 14.69, 16.47 14.88, 15.83 15.04 C15.19 15.19, 14.52 15.31, 13.85 15.39 C13.17 15.46, 12.48 15.5, 11.8 15.5 C11.11 15.5, 10.42 15.46, 9.75 15.39 C9.08 15.31, 8.4 15.19, 7.76 15.04 C7.12 14.88, 6.49 14.69, 5.9 14.47 C5.31 14.24, 4.74 13.98, 4.21 13.69 C3.69 13.4, 3.2 13.08, 2.76 12.74 C2.32 12.39, 1.92 12.02, 1.58 11.63 C1.24 11.24, 0.94 10.83, 0.71 10.4 C0.48 9.98, 0.3 9.54, 0.18 9.1 C0.06 8.66, 0 8.2, 0 7.75 C0 7.3, 0.06 6.85, 0.18 6.41 C0.3 5.96, 0.48 5.52, 0.71 5.1 C0.94 4.68, 1.24 4.26, 1.58 3.88 C1.92 3.49, 2.32 3.11, 2.76 2.77 C3.2 2.43, 3.69 2.1, 4.21 1.81 C4.74 1.53, 5.31 1.26, 5.9 1.04 C6.49 0.81, 7.12 0.62, 7.76 0.47 C8.4 0.31, 9.08 0.2, 9.75 0.12 C10.42 0.04, 11.11 0, 11.8 0 C12.48 0, 13.17 0.04, 13.85 0.12 C14.52 0.2, 15.19 0.31, 15.83 0.47 C16.47 0.62, 17.1 0.81, 17.7 1.04 C18.29 1.26, 18.86 1.53, 19.38 1.81 C19.9 2.1, 20.39 2.43, 20.83 2.77 C21.27 3.11, 21.67 3.49, 22.01 3.88 C22.35 4.26, 22.65 4.68, 22.88 5.1 C23.12 5.52, 23.3 5.96, 23.41 6.41 C23.53 6.85, 23.56 7.53, 23.59 7.75 C23.62 7.98, 23.62 7.53, 23.59 7.75" stroke="#1e1e1e" stroke-width="1" fill="none"></path></g><g stroke-opacity="0.9" fill-opacity="0.9" stroke-linecap="round" transform="translate(516.201439541006 89.36909114238256) rotate(26.565051177078246 6.671812521084746 4.436013915789459)"><path d="M13.34 4.44 C13.34 4.69, 13.31 4.95, 13.24 5.21 C13.18 5.46, 13.07 5.71, 12.94 5.95 C12.81 6.19, 12.64 6.43, 12.45 6.65 C12.26 6.88, 12.03 7.09, 11.78 7.29 C11.53 7.48, 11.26 7.67, 10.96 7.83 C10.66 8, 10.34 8.15, 10.01 8.28 C9.67 8.41, 9.32 8.52, 8.95 8.6 C8.59 8.69, 8.21 8.76, 7.83 8.8 C7.45 8.85, 7.06 8.87, 6.67 8.87 C6.29 8.87, 5.89 8.85, 5.51 8.8 C5.13 8.76, 4.75 8.69, 4.39 8.6 C4.03 8.52, 3.67 8.41, 3.34 8.28 C3 8.15, 2.68 8, 2.38 7.83 C2.09 7.67, 1.81 7.48, 1.56 7.29 C1.31 7.09, 1.09 6.88, 0.89 6.65 C0.7 6.43, 0.53 6.19, 0.4 5.95 C0.27 5.71, 0.17 5.46, 0.1 5.21 C0.03 4.95, 0 4.69, 0 4.44 C0 4.18, 0.03 3.92, 0.1 3.67 C0.17 3.41, 0.27 3.16, 0.4 2.92 C0.53 2.68, 0.7 2.44, 0.89 2.22 C1.09 2, 1.31 1.78, 1.56 1.58 C1.81 1.39, 2.09 1.2, 2.38 1.04 C2.68 0.87, 3 0.72, 3.34 0.59 C3.67 0.47, 4.03 0.36, 4.39 0.27 C4.75 0.18, 5.13 0.11, 5.51 0.07 C5.89 0.02, 6.29 0, 6.67 0 C7.06 0, 7.45 0.02, 7.83 0.07 C8.21 0.11, 8.59 0.18, 8.95 0.27 C9.32 0.36, 9.67 0.47, 10.01 0.59 C10.34 0.72, 10.66 0.87, 10.96 1.04 C11.26 1.2, 11.53 1.39, 11.78 1.58 C12.03 1.78, 12.26 2, 12.45 2.22 C12.64 2.44, 12.81 2.68, 12.94 2.92 C13.07 3.16, 13.18 3.41, 13.24 3.67 C13.31 3.92, 13.33 4.31, 13.34 4.44 C13.36 4.56, 13.36 4.31, 13.34 4.44" stroke="none" stroke-width="0" fill="#1e1e1e"></path><path d="M13.34 4.44 C13.34 4.69, 13.31 4.95, 13.24 5.21 C13.18 5.46, 13.07 5.71, 12.94 5.95 C12.81 6.19, 12.64 6.43, 12.45 6.65 C12.26 6.88, 12.03 7.09, 11.78 7.29 C11.53 7.48, 11.26 7.67, 10.96 7.83 C10.66 8, 10.34 8.15, 10.01 8.28 C9.67 8.41, 9.32 8.52, 8.95 8.6 C8.59 8.69, 8.21 8.76, 7.83 8.8 C7.45 8.85, 7.06 8.87, 6.67 8.87 C6.29 8.87, 5.89 8.85, 5.51 8.8 C5.13 8.76, 4.75 8.69, 4.39 8.6 C4.03 8.52, 3.67 8.41, 3.34 8.28 C3 8.15, 2.68 8, 2.38 7.83 C2.09 7.67, 1.81 7.48, 1.56 7.29 C1.31 7.09, 1.09 6.88, 0.89 6.65 C0.7 6.43, 0.53 6.19, 0.4 5.95 C0.27 5.71, 0.17 5.46, 0.1 5.21 C0.03 4.95, 0 4.69, 0 4.44 C0 4.18, 0.03 3.92, 0.1 3.67 C0.17 3.41, 0.27 3.16, 0.4 2.92 C0.53 2.68, 0.7 2.44, 0.89 2.22 C1.09 2, 1.31 1.78, 1.56 1.58 C1.81 1.39, 2.09 1.2, 2.38 1.04 C2.68 0.87, 3 0.72, 3.34 0.59 C3.67 0.47, 4.03 0.36, 4.39 0.27 C4.75 0.18, 5.13 0.11, 5.51 0.07 C5.89 0.02, 6.29 0, 6.67 0 C7.06 0, 7.45 0.02, 7.83 0.07 C8.21 0.11, 8.59 0.18, 8.95 0.27 C9.32 0.36, 9.67 0.47, 10.01 0.59 C10.34 0.72, 10.66 0.87, 10.96 1.04 C11.26 1.2, 11.53 1.39, 11.78 1.58 C12.03 1.78, 12.26 2, 12.45 2.22 C12.64 2.44, 12.81 2.68, 12.94 2.92 C13.07 3.16, 13.18 3.41, 13.24 3.67 C13.31 3.92, 13.33 4.31, 13.34 4.44 C13.36 4.56, 13.36 4.31, 13.34 4.44" stroke="#1e1e1e" stroke-width="1" fill="none"></path></g></svg>