<svg version="1.1" xmlns="http://www.w3.org/2000/svg" viewBox="0 0 271.61105331055603 123.3212101241341" width="271.61105331055603" height="123.3212101241341">
  <!-- svg-source:excalidraw -->
  
  <defs>
    <style class="style-fonts">
      @font-face {
        font-family: "Virgil";
        src: url("https://excalidraw.com/Virgil.woff2");
      }
      @font-face {
        font-family: "Cascadia";
        src: url("https://excalidraw.com/Cascadia.woff2");
      }
      @font-face {
        font-family: "Assistant";
        src: url("https://excalidraw.com/Assistant-Regular.woff2");
      }
    </style>
    
  </defs>
  <rect x="0" y="0" width="271.61105331055603" height="123.3212101241341" fill="#ffffff"></rect><g stroke-linecap="round"><g stroke-opacity="0.9" fill-opacity="0.9" transform="translate(158.87904885026575 58.62379418016832) rotate(0 50.50207110814452 -3.710952297579297)"><path d="M0 0 C16.83 -1.24, 84.17 -6.18, 101 -7.42 M0 0 C16.83 -1.24, 84.17 -6.18, 101 -7.42" stroke="#e03131" stroke-width="1" fill="none"></path></g><g stroke-opacity="0.9" fill-opacity="0.9" transform="translate(158.87904885026575 58.62379418016832) rotate(0 50.50207110814452 -3.710952297579297)"><path d="M101 -7.42 L87.91 -0.1 L86.98 -12.75 L101 -7.42" stroke="none" stroke-width="0" fill="#e03131" fill-rule="evenodd"></path><path d="M101 -7.42 C97.45 -5.44, 93.9 -3.45, 87.91 -0.1 M101 -7.42 C96.25 -4.76, 91.49 -2.1, 87.91 -0.1 M87.91 -0.1 C87.72 -2.7, 87.53 -5.3, 86.98 -12.75 M87.91 -0.1 C87.63 -3.97, 87.34 -7.83, 86.98 -12.75 M86.98 -12.75 C90.88 -11.27, 94.78 -9.78, 101 -7.42 M86.98 -12.75 C90.09 -11.57, 93.19 -10.39, 101 -7.42 M101 -7.42 C101 -7.42, 101 -7.42, 101 -7.42 M101 -7.42 C101 -7.42, 101 -7.42, 101 -7.42" stroke="#e03131" stroke-width="1" fill="none"></path></g></g><mask></mask><g stroke-linecap="round"><g stroke-opacity="0.9" fill-opacity="0.9" transform="translate(179.6019474152452 70.49898575987146) rotate(0 41.00455294765541 0.3141572979943703)"><path d="M0 0 C13.67 0.1, 68.34 0.52, 82.01 0.63 M0 0 C13.67 0.1, 68.34 0.52, 82.01 0.63" stroke="#e03131" stroke-width="1" fill="none"></path></g><g stroke-opacity="0.9" fill-opacity="0.9" transform="translate(179.6019474152452 70.49898575987146) rotate(0 41.00455294765541 0.3141572979943703)"><path d="M82.01 0.63 L68.37 6.86 L68.46 -5.81 L82.01 0.63" stroke="none" stroke-width="0" fill="#e03131" fill-rule="evenodd"></path><path d="M82.01 0.63 C77.85 2.53, 73.69 4.43, 68.37 6.86 M82.01 0.63 C77.6 2.64, 73.2 4.66, 68.37 6.86 M68.37 6.86 C68.39 4.28, 68.41 1.7, 68.46 -5.81 M68.37 6.86 C68.4 2.61, 68.43 -1.65, 68.46 -5.81 M68.46 -5.81 C72.8 -3.75, 77.15 -1.69, 82.01 0.63 M68.46 -5.81 C71.28 -4.47, 74.1 -3.13, 82.01 0.63 M82.01 0.63 C82.01 0.63, 82.01 0.63, 82.01 0.63 M82.01 0.63 C82.01 0.63, 82.01 0.63, 82.01 0.63" stroke="#e03131" stroke-width="1" fill="none"></path></g></g><mask></mask><g stroke-linecap="round"><g stroke-opacity="0.9" fill-opacity="0.9" transform="translate(179.75631783521226 94.89289583180795) rotate(0 38.60658253528902 6.968099254600077)"><path d="M0 0 C12.87 2.32, 64.34 11.61, 77.21 13.94 M0 0 C12.87 2.32, 64.34 11.61, 77.21 13.94" stroke="#e03131" stroke-width="1" fill="none"></path></g><g stroke-opacity="0.9" fill-opacity="0.9" transform="translate(179.75631783521226 94.89289583180795) rotate(0 38.60658253528902 6.968099254600077)"><path d="M77.21 13.94 L62.71 17.76 L64.96 5.28 L77.21 13.94" stroke="none" stroke-width="0" fill="#e03131" fill-rule="evenodd"></path><path d="M77.21 13.94 C72.83 15.09, 68.44 16.25, 62.71 17.76 M77.21 13.94 C73.46 14.93, 69.71 15.92, 62.71 17.76 M62.71 17.76 C63.58 12.91, 64.46 8.06, 64.96 5.28 M62.71 17.76 C63.58 12.91, 64.46 8.07, 64.96 5.28 M64.96 5.28 C69.8 8.7, 74.64 12.12, 77.21 13.94 M64.96 5.28 C68.89 8.06, 72.81 10.83, 77.21 13.94 M77.21 13.94 C77.21 13.94, 77.21 13.94, 77.21 13.94 M77.21 13.94 C77.21 13.94, 77.21 13.94, 77.21 13.94" stroke="#e03131" stroke-width="1" fill="none"></path></g></g><mask></mask><g stroke-linecap="round"><g stroke-opacity="0.9" fill-opacity="0.9" transform="translate(142.56514826319778 51.280121665817035) rotate(0 28.76520233031448 24.85615191809586)" fill-rule="evenodd"><path d="M0 0 L0 50.18 L57.53 62.04 L57.53 -12.33 L0 0" stroke="none" stroke-width="0" fill="#e9ecef" fill-rule="evenodd"></path><path d="M0 0 C0 10.11, 0 20.22, 0 50.18 M0 50.18 C17.18 53.72, 34.35 57.26, 57.53 62.04 M57.53 62.04 C57.53 35.68, 57.53 9.32, 57.53 -12.33 M57.53 -12.33 C41.03 -8.79, 24.52 -5.25, 0 0 M0 0 C0 0, 0 0, 0 0" stroke="#1e1e1e" stroke-width="2.5" fill="none" stroke-dasharray="1.5 8"></path></g></g><mask></mask><g stroke-opacity="0.9" fill-opacity="0.9" transform="translate(147.72478764231278 10) rotate(0 20.56640625 11.499999999999972)"><text x="0" y="18.400390625" font-family="Helvetica, Segoe UI Emoji" font-size="20px" fill="#1e1e1e" text-anchor="start" style="white-space: pre;" direction="ltr" dominant-baseline="alphabetic">pixel</text></g><g transform="translate(37.744159671239686 67.54359929171466) rotate(0 0.00004999999998744897 0.00004999999998744897)" stroke="none"><path fill="#1e1e1e" d="M 3.14,-3.14 Q 3.14,-3.14 3.55,-2.55 3.97,-1.97 4.18,-1.28 4.40,-0.59 4.38,0.11 4.36,0.83 4.11,1.51 3.86,2.18 3.41,2.74 2.96,3.30 2.36,3.69 1.75,4.07 1.05,4.25 0.36,4.42 -0.35,4.36 -1.07,4.30 -1.73,4.02 -2.39,3.74 -2.92,3.26 -3.46,2.78 -3.81,2.15 -4.16,1.53 -4.30,0.82 -4.43,0.11 -4.34,-0.59 -4.24,-1.30 -3.92,-1.94 -3.60,-2.59 -3.09,-3.09 -2.59,-3.60 -1.94,-3.92 -1.30,-4.24 -0.59,-4.34 0.12,-4.43 0.82,-4.30 1.53,-4.16 2.15,-3.81 2.78,-3.46 3.26,-2.92 3.74,-2.39 4.02,-1.73 4.31,-1.07 4.36,-0.35 4.42,0.36 4.25,1.05 4.07,1.75 3.69,2.36 3.30,2.96 2.74,3.41 2.18,3.86 1.51,4.11 0.83,4.36 0.11,4.38 -0.60,4.40 -1.28,4.18 -1.97,3.97 -2.55,3.55 -3.14,3.13 -3.14,3.14 -3.14,3.14 -3.47,2.71 -3.80,2.29 -4.02,1.80 -4.24,1.32 -4.33,0.79 -4.43,0.26 -4.40,-0.26 -4.36,-0.80 -4.20,-1.31 -4.04,-1.82 -3.77,-2.28 -3.49,-2.73 -3.11,-3.11 -2.73,-3.49 -2.28,-3.77 -1.82,-4.05 -1.31,-4.20 -0.80,-4.36 -0.26,-4.40 0.26,-4.43 0.79,-4.33 1.32,-4.24 1.80,-4.02 2.29,-3.80 2.71,-3.47 3.14,-3.14 3.14,-3.14 L 3.14,-3.14 Z"></path></g><g transform="translate(10 30.174051538419974) rotate(0 27.79296875 11.5)"><text x="0" y="18.400390625" font-family="Helvetica, Segoe UI Emoji" font-size="20px" fill="#1e1e1e" text-anchor="start" style="white-space: pre;" direction="ltr" dominant-baseline="alphabetic">centro</text></g><g stroke-opacity="0.9" fill-opacity="0.9" stroke-linecap="round" transform="translate(154.87615398996752 56.02076096830882) rotate(0 1.5014760723618394 2.6275831266331693)"><path d="M3 2.63 C3 2.78, 3 2.93, 2.98 3.08 C2.97 3.23, 2.94 3.38, 2.91 3.53 C2.88 3.67, 2.85 3.81, 2.8 3.94 C2.76 4.07, 2.71 4.2, 2.65 4.32 C2.6 4.43, 2.53 4.54, 2.47 4.64 C2.4 4.74, 2.33 4.83, 2.25 4.9 C2.18 4.98, 2.1 5.04, 2.02 5.1 C1.93 5.15, 1.85 5.19, 1.76 5.22 C1.68 5.24, 1.59 5.26, 1.5 5.26 C1.41 5.26, 1.33 5.24, 1.24 5.22 C1.16 5.19, 1.07 5.15, 0.99 5.1 C0.91 5.04, 0.83 4.98, 0.75 4.9 C0.68 4.83, 0.6 4.74, 0.54 4.64 C0.47 4.54, 0.41 4.43, 0.35 4.32 C0.3 4.2, 0.24 4.07, 0.2 3.94 C0.16 3.81, 0.12 3.67, 0.09 3.53 C0.06 3.38, 0.04 3.23, 0.02 3.08 C0.01 2.93, 0 2.78, 0 2.63 C0 2.48, 0.01 2.32, 0.02 2.17 C0.04 2.02, 0.06 1.87, 0.09 1.73 C0.12 1.59, 0.16 1.45, 0.2 1.31 C0.24 1.18, 0.3 1.06, 0.35 0.94 C0.41 0.82, 0.47 0.71, 0.54 0.61 C0.6 0.52, 0.68 0.43, 0.75 0.35 C0.83 0.28, 0.91 0.21, 0.99 0.16 C1.07 0.11, 1.16 0.07, 1.24 0.04 C1.33 0.01, 1.41 0, 1.5 0 C1.59 0, 1.68 0.01, 1.76 0.04 C1.85 0.07, 1.93 0.11, 2.02 0.16 C2.1 0.21, 2.18 0.28, 2.25 0.35 C2.33 0.43, 2.4 0.52, 2.47 0.61 C2.53 0.71, 2.6 0.82, 2.65 0.94 C2.71 1.06, 2.76 1.18, 2.8 1.31 C2.85 1.45, 2.88 1.59, 2.91 1.73 C2.94 1.87, 2.97 2.02, 2.98 2.17 C3 2.32, 3 2.55, 3 2.63 C3.01 2.7, 3.01 2.55, 3 2.63" stroke="none" stroke-width="0" fill="#1e1e1e"></path><path d="M3 2.63 C3 2.78, 3 2.93, 2.98 3.08 C2.97 3.23, 2.94 3.38, 2.91 3.53 C2.88 3.67, 2.85 3.81, 2.8 3.94 C2.76 4.07, 2.71 4.2, 2.65 4.32 C2.6 4.43, 2.53 4.54, 2.47 4.64 C2.4 4.74, 2.33 4.83, 2.25 4.9 C2.18 4.98, 2.1 5.04, 2.02 5.1 C1.93 5.15, 1.85 5.19, 1.76 5.22 C1.68 5.24, 1.59 5.26, 1.5 5.26 C1.41 5.26, 1.33 5.24, 1.24 5.22 C1.16 5.19, 1.07 5.15, 0.99 5.1 C0.91 5.04, 0.83 4.98, 0.75 4.9 C0.68 4.83, 0.6 4.74, 0.54 4.64 C0.47 4.54, 0.41 4.43, 0.35 4.32 C0.3 4.2, 0.24 4.07, 0.2 3.94 C0.16 3.81, 0.12 3.67, 0.09 3.53 C0.06 3.38, 0.04 3.23, 0.02 3.08 C0.01 2.93, 0 2.78, 0 2.63 C0 2.48, 0.01 2.32, 0.02 2.17 C0.04 2.02, 0.06 1.87, 0.09 1.73 C0.12 1.59, 0.16 1.45, 0.2 1.31 C0.24 1.18, 0.3 1.06, 0.35 0.94 C0.41 0.82, 0.47 0.71, 0.54 0.61 C0.6 0.52, 0.68 0.43, 0.75 0.35 C0.83 0.28, 0.91 0.21, 0.99 0.16 C1.07 0.11, 1.16 0.07, 1.24 0.04 C1.33 0.01, 1.41 0, 1.5 0 C1.59 0, 1.68 0.01, 1.76 0.04 C1.85 0.07, 1.93 0.11, 2.02 0.16 C2.1 0.21, 2.18 0.28, 2.25 0.35 C2.33 0.43, 2.4 0.52, 2.47 0.61 C2.53 0.71, 2.6 0.82, 2.65 0.94 C2.71 1.06, 2.76 1.18, 2.8 1.31 C2.85 1.45, 2.88 1.59, 2.91 1.73 C2.94 1.87, 2.97 2.02, 2.98 2.17 C3 2.32, 3 2.55, 3 2.63 C3.01 2.7, 3.01 2.55, 3 2.63" stroke="#1e1e1e" stroke-width="1" fill="none"></path></g><g stroke-opacity="0.9" fill-opacity="0.9" stroke-linecap="round" transform="translate(178.10047144756658 67.8862229184005) rotate(0 1.5014760723618394 2.6275831266331693)"><path d="M3 2.63 C3 2.78, 3 2.93, 2.98 3.08 C2.97 3.23, 2.94 3.38, 2.91 3.53 C2.88 3.67, 2.85 3.81, 2.8 3.94 C2.76 4.07, 2.71 4.2, 2.65 4.32 C2.6 4.43, 2.53 4.54, 2.47 4.64 C2.4 4.74, 2.33 4.83, 2.25 4.9 C2.18 4.98, 2.1 5.04, 2.02 5.1 C1.93 5.15, 1.85 5.19, 1.76 5.22 C1.68 5.24, 1.59 5.26, 1.5 5.26 C1.41 5.26, 1.33 5.24, 1.24 5.22 C1.16 5.19, 1.07 5.15, 0.99 5.1 C0.91 5.04, 0.83 4.98, 0.75 4.9 C0.68 4.83, 0.6 4.74, 0.54 4.64 C0.47 4.54, 0.41 4.43, 0.35 4.32 C0.3 4.2, 0.24 4.07, 0.2 3.94 C0.16 3.81, 0.12 3.67, 0.09 3.53 C0.06 3.38, 0.04 3.23, 0.02 3.08 C0.01 2.93, 0 2.78, 0 2.63 C0 2.48, 0.01 2.32, 0.02 2.17 C0.04 2.02, 0.06 1.87, 0.09 1.73 C0.12 1.59, 0.16 1.45, 0.2 1.31 C0.24 1.18, 0.3 1.06, 0.35 0.94 C0.41 0.82, 0.47 0.71, 0.54 0.61 C0.6 0.52, 0.68 0.43, 0.75 0.35 C0.83 0.28, 0.91 0.21, 0.99 0.16 C1.07 0.11, 1.16 0.07, 1.24 0.04 C1.33 0.01, 1.41 0, 1.5 0 C1.59 0, 1.68 0.01, 1.76 0.04 C1.85 0.07, 1.93 0.11, 2.02 0.16 C2.1 0.21, 2.18 0.28, 2.25 0.35 C2.33 0.43, 2.4 0.52, 2.47 0.61 C2.53 0.71, 2.6 0.82, 2.65 0.94 C2.71 1.06, 2.76 1.18, 2.8 1.31 C2.85 1.45, 2.88 1.59, 2.91 1.73 C2.94 1.87, 2.97 2.02, 2.98 2.17 C3 2.32, 3 2.55, 3 2.63 C3.01 2.7, 3.01 2.55, 3 2.63" stroke="none" stroke-width="0" fill="#1e1e1e"></path><path d="M3 2.63 C3 2.78, 3 2.93, 2.98 3.08 C2.97 3.23, 2.94 3.38, 2.91 3.53 C2.88 3.67, 2.85 3.81, 2.8 3.94 C2.76 4.07, 2.71 4.2, 2.65 4.32 C2.6 4.43, 2.53 4.54, 2.47 4.64 C2.4 4.74, 2.33 4.83, 2.25 4.9 C2.18 4.98, 2.1 5.04, 2.02 5.1 C1.93 5.15, 1.85 5.19, 1.76 5.22 C1.68 5.24, 1.59 5.26, 1.5 5.26 C1.41 5.26, 1.33 5.24, 1.24 5.22 C1.16 5.19, 1.07 5.15, 0.99 5.1 C0.91 5.04, 0.83 4.98, 0.75 4.9 C0.68 4.83, 0.6 4.74, 0.54 4.64 C0.47 4.54, 0.41 4.43, 0.35 4.32 C0.3 4.2, 0.24 4.07, 0.2 3.94 C0.16 3.81, 0.12 3.67, 0.09 3.53 C0.06 3.38, 0.04 3.23, 0.02 3.08 C0.01 2.93, 0 2.78, 0 2.63 C0 2.48, 0.01 2.32, 0.02 2.17 C0.04 2.02, 0.06 1.87, 0.09 1.73 C0.12 1.59, 0.16 1.45, 0.2 1.31 C0.24 1.18, 0.3 1.06, 0.35 0.94 C0.41 0.82, 0.47 0.71, 0.54 0.61 C0.6 0.52, 0.68 0.43, 0.75 0.35 C0.83 0.28, 0.91 0.21, 0.99 0.16 C1.07 0.11, 1.16 0.07, 1.24 0.04 C1.33 0.01, 1.41 0, 1.5 0 C1.59 0, 1.68 0.01, 1.76 0.04 C1.85 0.07, 1.93 0.11, 2.02 0.16 C2.1 0.21, 2.18 0.28, 2.25 0.35 C2.33 0.43, 2.4 0.52, 2.47 0.61 C2.53 0.71, 2.6 0.82, 2.65 0.94 C2.71 1.06, 2.76 1.18, 2.8 1.31 C2.85 1.45, 2.88 1.59, 2.91 1.73 C2.94 1.87, 2.97 2.02, 2.98 2.17 C3 2.32, 3 2.55, 3 2.63 C3.01 2.7, 3.01 2.55, 3 2.63" stroke="#1e1e1e" stroke-width="1" fill="none"></path></g><g stroke-opacity="0.9" fill-opacity="0.9" stroke-linecap="round" transform="translate(175.7860500364244 91.68081768690178) rotate(0 1.5014760723618394 2.6275831266331693)"><path d="M3 2.63 C3 2.78, 3 2.93, 2.98 3.08 C2.97 3.23, 2.94 3.38, 2.91 3.53 C2.88 3.67, 2.85 3.81, 2.8 3.94 C2.76 4.07, 2.71 4.2, 2.65 4.32 C2.6 4.43, 2.53 4.54, 2.47 4.64 C2.4 4.74, 2.33 4.83, 2.25 4.9 C2.18 4.98, 2.1 5.04, 2.02 5.1 C1.93 5.15, 1.85 5.19, 1.76 5.22 C1.68 5.24, 1.59 5.26, 1.5 5.26 C1.41 5.26, 1.33 5.24, 1.24 5.22 C1.16 5.19, 1.07 5.15, 0.99 5.1 C0.91 5.04, 0.83 4.98, 0.75 4.9 C0.68 4.83, 0.6 4.74, 0.54 4.64 C0.47 4.54, 0.41 4.43, 0.35 4.32 C0.3 4.2, 0.24 4.07, 0.2 3.94 C0.16 3.81, 0.12 3.67, 0.09 3.53 C0.06 3.38, 0.04 3.23, 0.02 3.08 C0.01 2.93, 0 2.78, 0 2.63 C0 2.48, 0.01 2.32, 0.02 2.17 C0.04 2.02, 0.06 1.87, 0.09 1.73 C0.12 1.59, 0.16 1.45, 0.2 1.31 C0.24 1.18, 0.3 1.06, 0.35 0.94 C0.41 0.82, 0.47 0.71, 0.54 0.61 C0.6 0.52, 0.68 0.43, 0.75 0.35 C0.83 0.28, 0.91 0.21, 0.99 0.16 C1.07 0.11, 1.16 0.07, 1.24 0.04 C1.33 0.01, 1.41 0, 1.5 0 C1.59 0, 1.68 0.01, 1.76 0.04 C1.85 0.07, 1.93 0.11, 2.02 0.16 C2.1 0.21, 2.18 0.28, 2.25 0.35 C2.33 0.43, 2.4 0.52, 2.47 0.61 C2.53 0.71, 2.6 0.82, 2.65 0.94 C2.71 1.06, 2.76 1.18, 2.8 1.31 C2.85 1.45, 2.88 1.59, 2.91 1.73 C2.94 1.87, 2.97 2.02, 2.98 2.17 C3 2.32, 3 2.55, 3 2.63 C3.01 2.7, 3.01 2.55, 3 2.63" stroke="none" stroke-width="0" fill="#1e1e1e"></path><path d="M3 2.63 C3 2.78, 3 2.93, 2.98 3.08 C2.97 3.23, 2.94 3.38, 2.91 3.53 C2.88 3.67, 2.85 3.81, 2.8 3.94 C2.76 4.07, 2.71 4.2, 2.65 4.32 C2.6 4.43, 2.53 4.54, 2.47 4.64 C2.4 4.74, 2.33 4.83, 2.25 4.9 C2.18 4.98, 2.1 5.04, 2.02 5.1 C1.93 5.15, 1.85 5.19, 1.76 5.22 C1.68 5.24, 1.59 5.26, 1.5 5.26 C1.41 5.26, 1.33 5.24, 1.24 5.22 C1.16 5.19, 1.07 5.15, 0.99 5.1 C0.91 5.04, 0.83 4.98, 0.75 4.9 C0.68 4.83, 0.6 4.74, 0.54 4.64 C0.47 4.54, 0.41 4.43, 0.35 4.32 C0.3 4.2, 0.24 4.07, 0.2 3.94 C0.16 3.81, 0.12 3.67, 0.09 3.53 C0.06 3.38, 0.04 3.23, 0.02 3.08 C0.01 2.93, 0 2.78, 0 2.63 C0 2.48, 0.01 2.32, 0.02 2.17 C0.04 2.02, 0.06 1.87, 0.09 1.73 C0.12 1.59, 0.16 1.45, 0.2 1.31 C0.24 1.18, 0.3 1.06, 0.35 0.94 C0.41 0.82, 0.47 0.71, 0.54 0.61 C0.6 0.52, 0.68 0.43, 0.75 0.35 C0.83 0.28, 0.91 0.21, 0.99 0.16 C1.07 0.11, 1.16 0.07, 1.24 0.04 C1.33 0.01, 1.41 0, 1.5 0 C1.59 0, 1.68 0.01, 1.76 0.04 C1.85 0.07, 1.93 0.11, 2.02 0.16 C2.1 0.21, 2.18 0.28, 2.25 0.35 C2.33 0.43, 2.4 0.52, 2.47 0.61 C2.53 0.71, 2.6 0.82, 2.65 0.94 C2.71 1.06, 2.76 1.18, 2.8 1.31 C2.85 1.45, 2.88 1.59, 2.91 1.73 C2.94 1.87, 2.97 2.02, 2.98 2.17 C3 2.32, 3 2.55, 3 2.63 C3.01 2.7, 3.01 2.55, 3 2.63" stroke="#1e1e1e" stroke-width="1" fill="none"></path></g><g stroke-linecap="round"><g transform="translate(37.876651926936745 67.40274549119698) rotate(0 59.01148854758992 -4.31003957620743)"><path d="M0 0 C42.06 -3.07, 84.11 -6.14, 118.02 -8.62 M0 0 C41.6 -3.04, 83.2 -6.08, 118.02 -8.62" stroke="#e03131" stroke-width="1" fill="none"></path></g></g><mask></mask><g stroke-linecap="round"><g stroke-opacity="0.9" fill-opacity="0.9" transform="translate(37.871576239523165 67.37741335005848) rotate(0 70.70256725692877 1.5607860070105062)"><path d="M0 0 C23.57 0.52, 117.84 2.6, 141.41 3.12 M0 0 C23.57 0.52, 117.84 2.6, 141.41 3.12" stroke="#e03131" stroke-width="1" fill="none"></path></g></g><mask></mask><g stroke-linecap="round"><g stroke-opacity="0.9" fill-opacity="0.9" transform="translate(37.723463983649424 67.3080192916928) rotate(0 69.56031258249877 13.495767957673081)"><path d="M0 0 C23.19 4.5, 115.93 22.49, 139.12 26.99 M0 0 C23.19 4.5, 115.93 22.49, 139.12 26.99" stroke="#e03131" stroke-width="1" fill="none"></path></g></g><mask></mask></svg>