<svg version="1.1" xmlns="http://www.w3.org/2000/svg" viewBox="0 0 430.2262384582 264.2922243465741" width="430.2262384582" height="264.2922243465741">
  <!-- svg-source:excalidraw -->
  
  <defs>
    <style class="style-fonts">
      @font-face {
        font-family: "Virgil";
        src: url("https://excalidraw.com/Virgil.woff2");
      }
      @font-face {
        font-family: "Cascadia";
        src: url("https://excalidraw.com/Cascadia.woff2");
      }
      @font-face {
        font-family: "Assistant";
        src: url("https://excalidraw.com/Assistant-Regular.woff2");
      }
    </style>
    
  </defs>
  <rect x="0" y="0" width="430.2262384582" height="264.2922243465741" fill="#ffffff"></rect><g stroke-linecap="round"><g transform="translate(10 144.20482586918473) rotate(0 205.1131192291 0)"><path d="M0 0 C68.37 0, 341.86 0, 410.23 0 M0 0 C68.37 0, 341.86 0, 410.23 0" stroke="#1e1e1e" stroke-width="4" fill="none"></path></g></g><mask></mask><g stroke-linecap="round"><g transform="translate(222.65520654113726 254.29222434657407) rotate(0 0 -108.77102290009802)"><path d="M0 0 C0 -36.26, 0 -181.29, 0 -217.54" stroke="#1971c2" stroke-width="2.5" fill="none" stroke-dasharray="8 10"></path></g></g><mask></mask><g transform="translate(199.3243679909222 89.16908060491255) rotate(0 5.5615234375 11.5)"><text x="0" y="18.400390625" font-family="Helvetica, Segoe UI Emoji" font-size="20px" fill="#2f9e44" text-anchor="start" style="white-space: pre;" direction="ltr" dominant-baseline="alphabetic">θ</text></g><g stroke-linecap="round"><g transform="translate(87.13400564430901 10) rotate(0 67.76060084361185 67.76060084361185)"><path d="M0 0 C22.59 22.59, 112.93 112.93, 135.52 135.52 M0 0 C22.59 22.59, 112.93 112.93, 135.52 135.52" stroke="#1e1e1e" stroke-width="2" fill="none"></path></g><g transform="translate(87.13400564430901 10) rotate(0 67.76060084361185 67.76060084361185)"><path d="M135.52 135.52 L121.43 130.39 L130.39 121.43 L135.52 135.52" stroke="none" stroke-width="0" fill="#1e1e1e" fill-rule="evenodd"></path><path d="M135.52 135.52 C132.23 134.32, 128.94 133.12, 121.43 130.39 M135.52 135.52 C130.39 133.65, 125.26 131.79, 121.43 130.39 M121.43 130.39 C123.55 128.27, 125.66 126.15, 130.39 121.43 M121.43 130.39 C123.75 128.07, 126.07 125.75, 130.39 121.43 M130.39 121.43 C131.45 124.33, 132.51 127.24, 135.52 135.52 M130.39 121.43 C132.06 126.02, 133.73 130.61, 135.52 135.52 M135.52 135.52 C135.52 135.52, 135.52 135.52, 135.52 135.52 M135.52 135.52 C135.52 135.52, 135.52 135.52, 135.52 135.52" stroke="#1e1e1e" stroke-width="2" fill="none"></path></g></g><mask></mask><g stroke-linecap="round"><g transform="translate(198.44425902133509 119.98340772041445) rotate(0 10.861583982285907 -5.6669133820622335)"><path d="M0 0 C1.44 -1.44, 5.04 -6.77, 8.66 -8.66 C12.28 -10.55, 19.55 -10.89, 21.72 -11.33 M0 0 C1.44 -1.44, 5.04 -6.77, 8.66 -8.66 C12.28 -10.55, 19.55 -10.89, 21.72 -11.33" stroke="#2f9e44" stroke-width="2" fill="none"></path></g></g><mask></mask><g stroke-linecap="round"><g transform="translate(222.65520683210815 144.20482576246195) rotate(0 98.41230343889978 26.369497231739814)"><path d="M0 0 C32.8 8.79, 164.02 43.95, 196.82 52.74 M0 0 C32.8 8.79, 164.02 43.95, 196.82 52.74" stroke="#e03131" stroke-width="2" fill="none"></path></g><g transform="translate(222.65520683210815 144.20482576246195) rotate(0 98.41230343889978 26.369497231739814)"><path d="M196.82 52.74 L182.05 55.34 L185.33 43.1 L196.82 52.74" stroke="none" stroke-width="0" fill="#e03131" fill-rule="evenodd"></path><path d="M196.82 52.74 C191.58 53.66, 186.33 54.59, 182.05 55.34 M196.82 52.74 C193.17 53.38, 189.51 54.03, 182.05 55.34 M182.05 55.34 C182.81 52.53, 183.56 49.71, 185.33 43.1 M182.05 55.34 C183.3 50.67, 184.56 46, 185.33 43.1 M185.33 43.1 C188.17 45.47, 191 47.85, 196.82 52.74 M185.33 43.1 C188.5 45.75, 191.67 48.41, 196.82 52.74 M196.82 52.74 C196.82 52.74, 196.82 52.74, 196.82 52.74 M196.82 52.74 C196.82 52.74, 196.82 52.74, 196.82 52.74" stroke="#e03131" stroke-width="2" fill="none"></path></g></g><mask></mask><g transform="translate(242.31428841029327 166.4995316584774) rotate(0 7.470703125 11.5)"><text x="0" y="18.400390625" font-family="Helvetica, Segoe UI Emoji" font-size="20px" fill="#2f9e44" text-anchor="start" style="white-space: pre;" direction="ltr" dominant-baseline="alphabetic">θ'</text></g><g stroke-linecap="round"><g transform="translate(249.08627900487397 152.57972135978213) rotate(0 -13.11339420170782 10.288970835186092)"><path d="M0 0 C-1.48 2.49, -4.51 11.5, -8.88 14.93 C-13.25 18.36, -23.34 19.64, -26.23 20.58 M0 0 C-1.48 2.49, -4.51 11.5, -8.88 14.93 C-13.25 18.36, -23.34 19.64, -26.23 20.58" stroke="#2f9e44" stroke-width="2" fill="none"></path></g></g><mask></mask></svg>