<svg version="1.1" xmlns="http://www.w3.org/2000/svg" viewBox="0 0 430.2262384582 265.60860042873253" width="1290.6787153746" height="796.8258012861976">
  <!-- svg-source:excalidraw -->
  
  <defs>
    <style class="style-fonts">
      
    </style>
    
  </defs>
  <rect x="0" y="0" width="430.2262384582" height="265.60860042873253" fill="#ffffff"></rect><g stroke-linecap="round"><g transform="translate(10 145.5212019513432) rotate(0 205.1131192291 0)"><path d="M0 0 C68.37 0, 341.86 0, 410.23 0 M0 0 C68.37 0, 341.86 0, 410.23 0" stroke="#1e1e1e" stroke-width="4" fill="none"></path></g></g><mask></mask><g stroke-linecap="round"><g transform="translate(222.65520654113726 255.60860042873253) rotate(0 0 -108.77102290009802)"><path d="M0 0 C0 -36.26, 0 -181.29, 0 -217.54" stroke="#1971c2" stroke-width="2.5" fill="none" stroke-dasharray="8 10"></path></g></g><mask></mask><g transform="translate(199.3243679909222 90.48545668707101) rotate(0 5.5615234375 11.5)"><text x="0" y="16.900390625" font-family="Helvetica, Segoe UI Emoji" font-size="20px" fill="#2f9e44" text-anchor="start" style="white-space: pre;" direction="ltr" dominant-baseline="alphabetic">θ</text></g><g stroke-linecap="round"><g transform="translate(87.13400564430901 11.316376082158456) rotate(0 67.76060084361185 67.76060084361185)"><path d="M0 0 C22.59 22.59, 112.93 112.93, 135.52 135.52 M0 0 C22.59 22.59, 112.93 112.93, 135.52 135.52" stroke="#1e1e1e" stroke-width="2" fill="none"></path></g><g transform="translate(87.13400564430901 11.316376082158456) rotate(0 67.76060084361185 67.76060084361185)"><path d="M135.52 135.52 L121.43 130.39 L130.39 121.43 L135.52 135.52" stroke="none" stroke-width="0" fill="#1e1e1e" fill-rule="evenodd"></path><path d="M135.52 135.52 C132.23 134.32, 128.94 133.12, 121.43 130.39 M135.52 135.52 C130.39 133.65, 125.26 131.79, 121.43 130.39 M121.43 130.39 C123.55 128.27, 125.66 126.15, 130.39 121.43 M121.43 130.39 C123.75 128.07, 126.07 125.75, 130.39 121.43 M130.39 121.43 C131.45 124.33, 132.51 127.24, 135.52 135.52 M130.39 121.43 C132.06 126.02, 133.73 130.61, 135.52 135.52 M135.52 135.52 C135.52 135.52, 135.52 135.52, 135.52 135.52 M135.52 135.52 C135.52 135.52, 135.52 135.52, 135.52 135.52" stroke="#1e1e1e" stroke-width="2" fill="none"></path></g></g><mask></mask><g stroke-linecap="round"><g transform="translate(198.44425902133509 121.2997838025729) rotate(0 10.861583982285907 -5.6669133820622335)"><path d="M0 0 C1.44 -1.44, 5.04 -6.77, 8.66 -8.66 C12.28 -10.55, 19.55 -10.89, 21.72 -11.33 M0 0 C1.44 -1.44, 5.04 -6.77, 8.66 -8.66 C12.28 -10.55, 19.55 -10.89, 21.72 -11.33" stroke="#2f9e44" stroke-width="2" fill="none"></path></g></g><mask></mask><g stroke-linecap="round"><g transform="translate(222.65520683210815 145.5212018446204) rotate(0 98.41230343889978 26.369497231739814)"><path d="M0 0 C32.8 8.79, 164.02 43.95, 196.82 52.74 M0 0 C32.8 8.79, 164.02 43.95, 196.82 52.74" stroke="#e03131" stroke-width="2" fill="none"></path></g><g transform="translate(222.65520683210815 145.5212018446204) rotate(0 98.41230343889978 26.369497231739814)"><path d="M196.82 52.74 L182.05 55.34 L185.33 43.1 L196.82 52.74" stroke="none" stroke-width="0" fill="#e03131" fill-rule="evenodd"></path><path d="M196.82 52.74 C191.58 53.66, 186.33 54.59, 182.05 55.34 M196.82 52.74 C193.17 53.38, 189.51 54.03, 182.05 55.34 M182.05 55.34 C182.81 52.53, 183.56 49.71, 185.33 43.1 M182.05 55.34 C183.3 50.67, 184.56 46, 185.33 43.1 M185.33 43.1 C188.17 45.47, 191 47.85, 196.82 52.74 M185.33 43.1 C188.5 45.75, 191.67 48.41, 196.82 52.74 M196.82 52.74 C196.82 52.74, 196.82 52.74, 196.82 52.74 M196.82 52.74 C196.82 52.74, 196.82 52.74, 196.82 52.74" stroke="#e03131" stroke-width="2" fill="none"></path></g></g><mask></mask><g transform="translate(242.31428841029327 167.81590774063585) rotate(0 7.470703125 11.5)"><text x="0" y="16.900390625" font-family="Helvetica, Segoe UI Emoji" font-size="20px" fill="#2f9e44" text-anchor="start" style="white-space: pre;" direction="ltr" dominant-baseline="alphabetic">θ'</text></g><g stroke-linecap="round"><g transform="translate(249.08627900487397 153.89609744194058) rotate(0 -13.11339420170782 10.288970835186092)"><path d="M0 0 C-1.48 2.49, -4.51 11.5, -8.88 14.93 C-13.25 18.36, -23.34 19.64, -26.23 20.58 M0 0 C-1.48 2.49, -4.51 11.5, -8.88 14.93 C-13.25 18.36, -23.34 19.64, -26.23 20.58" stroke="#2f9e44" stroke-width="2" fill="none"></path></g></g><mask></mask><g stroke-linecap="round"><g transform="translate(222.85949064050942 145.52120168722377) rotate(0 67.76060084361188 -67.76060084361188)"><path d="M0 0 C22.59 -22.59, 112.93 -112.93, 135.52 -135.52" stroke="#1e1e1e" stroke-width="2.5" fill="none" stroke-dasharray="8 10"></path></g><g transform="translate(222.85949064050942 145.52120168722377) rotate(0 67.76060084361188 -67.76060084361188)"><path d="M135.52 -135.52 L130.39 -121.43 L121.43 -130.39 L135.52 -135.52" stroke="none" stroke-width="0" fill="#1e1e1e" fill-rule="evenodd"></path><path d="M135.52 -135.52 C133.94 -131.19, 132.37 -126.85, 130.39 -121.43 M130.39 -121.43 C127.04 -124.77, 123.7 -128.12, 121.43 -130.39 M121.43 -130.39 C126.98 -132.41, 132.54 -134.44, 135.52 -135.52 M135.52 -135.52 C135.52 -135.52, 135.52 -135.52, 135.52 -135.52" stroke="#1e1e1e" stroke-width="2.5" fill="none"></path></g></g><mask></mask><g transform="translate(235.32469882741032 86.24119967365755) rotate(0 5.5615234375 11.5)"><text x="0" y="16.900390625" font-family="Helvetica, Segoe UI Emoji" font-size="20px" fill="#2f9e44" text-anchor="start" style="white-space: pre;" direction="ltr" dominant-baseline="alphabetic">θ</text></g><g stroke-linecap="round"><g transform="translate(248.39648052539656 118.83656987815806) rotate(0 -11.930209835685048 -6.824591389911319)"><path d="M0 0 C-1.44 -1.53, -4.68 -6.92, -8.66 -9.19 C-12.63 -11.47, -21.33 -12.91, -23.86 -13.65 M0 0 C-1.44 -1.53, -4.68 -6.92, -8.66 -9.19 C-12.63 -11.47, -21.33 -12.91, -23.86 -13.65" stroke="#2f9e44" stroke-width="2" fill="none"></path></g></g><mask></mask></svg>