<svg version="1.1" xmlns="http://www.w3.org/2000/svg" viewBox="0 0 609.0190183593127 349.625" width="609.0190183593127" height="349.625">
  <!-- svg-source:excalidraw -->
  
  <defs>
    <style class="style-fonts">
      @font-face {
        font-family: "Virgil";
        src: url("https://excalidraw.com/Virgil.woff2");
      }
      @font-face {
        font-family: "Cascadia";
        src: url("https://excalidraw.com/Cascadia.woff2");
      }
      @font-face {
        font-family: "Assistant";
        src: url("https://excalidraw.com/Assistant-Regular.woff2");
      }
    </style>
    
  </defs>
  <rect x="0" y="0" width="609.0190183593127" height="349.625" fill="#ffffff"></rect><g transform="translate(70.69874520321088 297.875) rotate(0 -19.5 19.5)" stroke="none"><path fill="#1e1e1e" d="M 1.18,1.18 Q 1.18,1.18 0.07,2.37 -1.03,3.55 -2.01,4.85 -2.99,6.14 -4.40,7.42 -5.82,8.70 -7.55,10.26 -9.28,11.81 -11.19,13.61 -13.09,15.41 -15.07,17.31 -17.04,19.22 -19.36,21.20 -21.68,23.19 -23.79,25.14 -25.89,27.09 -27.94,29.07 -29.99,31.05 -31.73,32.74 -33.47,34.44 -35.20,36.73 -36.92,39.02 -37.12,39.20 -37.32,39.37 -37.56,39.47 -37.80,39.57 -38.06,39.59 -38.32,39.61 -38.58,39.54 -38.83,39.47 -39.05,39.33 -39.27,39.19 -39.43,38.98 -39.59,38.77 -39.67,38.53 -39.76,38.28 -39.77,38.02 -39.77,37.76 -39.69,37.51 -39.61,37.26 -39.45,37.05 -39.30,36.84 -39.08,36.69 -38.87,36.54 -38.62,36.47 -38.37,36.39 -38.11,36.40 -37.85,36.41 -37.60,36.51 -37.36,36.60 -37.16,36.77 -36.95,36.93 -36.82,37.16 -36.68,37.38 -36.62,37.63 -36.56,37.89 -36.58,38.15 -36.61,38.41 -36.71,38.65 -36.82,38.88 -37.00,39.08 -37.18,39.27 -37.40,39.39 -37.63,39.52 -37.89,39.57 -38.15,39.61 -38.41,39.57 -38.67,39.53 -38.90,39.42 -39.13,39.30 -39.31,39.11 -39.50,38.92 -39.61,38.69 -39.72,38.45 -39.75,38.19 -39.79,37.93 -39.73,37.68 -39.68,37.42 -39.55,37.19 -39.42,36.97 -39.42,36.97 -39.42,36.97 -37.41,34.73 -35.40,32.49 -33.67,30.77 -31.94,29.05 -29.90,27.03 -27.85,25.02 -25.73,22.99 -23.61,20.97 -21.40,19.01 -19.19,17.05 -17.27,15.09 -15.35,13.12 -13.50,11.23 -11.66,9.33 -9.97,7.61 -8.28,5.89 -7.07,4.88 -5.86,3.86 -4.71,2.45 -3.56,1.04 -2.37,-0.07 -1.18,-1.18 -1.02,-1.30 -0.86,-1.43 -0.68,-1.51 -0.49,-1.59 -0.29,-1.63 -0.10,-1.67 0.10,-1.66 0.30,-1.64 0.49,-1.58 0.68,-1.52 0.86,-1.42 1.03,-1.31 1.17,-1.17 1.31,-1.03 1.42,-0.86 1.52,-0.68 1.58,-0.49 1.64,-0.30 1.66,-0.10 1.67,0.10 1.63,0.29 1.59,0.49 1.51,0.68 1.43,0.86 1.30,1.02 1.18,1.18 1.18,1.18 L 1.18,1.18 Z"></path></g><g transform="translate(111.44874520321088 297.125) rotate(0 -19.5 19.5)" stroke="none"><path fill="#1e1e1e" d="M 1.18,1.18 Q 1.18,1.18 0.07,2.37 -1.03,3.55 -2.01,4.85 -2.99,6.14 -4.40,7.42 -5.82,8.70 -7.55,10.26 -9.28,11.81 -11.19,13.61 -13.09,15.41 -15.07,17.31 -17.04,19.22 -19.36,21.20 -21.68,23.19 -23.79,25.14 -25.89,27.09 -27.94,29.07 -29.99,31.05 -31.73,32.74 -33.47,34.44 -35.20,36.73 -36.92,39.02 -37.12,39.20 -37.32,39.37 -37.56,39.47 -37.80,39.57 -38.06,39.59 -38.32,39.61 -38.58,39.54 -38.83,39.47 -39.05,39.33 -39.27,39.19 -39.43,38.98 -39.59,38.77 -39.67,38.53 -39.76,38.28 -39.77,38.02 -39.77,37.76 -39.69,37.51 -39.61,37.26 -39.45,37.05 -39.30,36.84 -39.08,36.69 -38.87,36.54 -38.62,36.47 -38.37,36.39 -38.11,36.40 -37.85,36.41 -37.60,36.51 -37.36,36.60 -37.16,36.77 -36.95,36.93 -36.82,37.16 -36.68,37.38 -36.62,37.63 -36.56,37.89 -36.58,38.15 -36.61,38.41 -36.71,38.65 -36.82,38.88 -37.00,39.08 -37.18,39.27 -37.40,39.39 -37.63,39.52 -37.89,39.57 -38.15,39.61 -38.41,39.57 -38.67,39.53 -38.90,39.42 -39.13,39.30 -39.31,39.11 -39.50,38.92 -39.61,38.69 -39.72,38.45 -39.75,38.19 -39.79,37.93 -39.73,37.68 -39.68,37.42 -39.55,37.19 -39.42,36.97 -39.42,36.97 -39.42,36.97 -37.41,34.73 -35.40,32.49 -33.67,30.77 -31.94,29.05 -29.90,27.03 -27.85,25.02 -25.73,22.99 -23.61,20.97 -21.40,19.01 -19.19,17.05 -17.27,15.09 -15.35,13.12 -13.50,11.23 -11.66,9.33 -9.97,7.61 -8.28,5.89 -7.07,4.88 -5.86,3.86 -4.71,2.45 -3.56,1.04 -2.37,-0.07 -1.18,-1.18 -1.02,-1.30 -0.86,-1.43 -0.68,-1.51 -0.49,-1.59 -0.29,-1.63 -0.10,-1.67 0.10,-1.66 0.30,-1.64 0.49,-1.58 0.68,-1.52 0.86,-1.42 1.03,-1.31 1.17,-1.17 1.31,-1.03 1.42,-0.86 1.52,-0.68 1.58,-0.49 1.64,-0.30 1.66,-0.10 1.67,0.10 1.63,0.29 1.59,0.49 1.51,0.68 1.43,0.86 1.30,1.02 1.18,1.18 1.18,1.18 L 1.18,1.18 Z"></path></g><g transform="translate(155.94874520321088 300.625) rotate(0 -19.5 19.5)" stroke="none"><path fill="#1e1e1e" d="M 1.18,1.18 Q 1.18,1.18 0.07,2.37 -1.03,3.55 -2.01,4.85 -2.99,6.14 -4.40,7.42 -5.82,8.70 -7.55,10.26 -9.28,11.81 -11.19,13.61 -13.09,15.41 -15.07,17.31 -17.04,19.22 -19.36,21.20 -21.68,23.19 -23.79,25.14 -25.89,27.09 -27.94,29.07 -29.99,31.05 -31.73,32.74 -33.47,34.44 -35.20,36.73 -36.92,39.02 -37.12,39.20 -37.32,39.37 -37.56,39.47 -37.80,39.57 -38.06,39.59 -38.32,39.61 -38.58,39.54 -38.83,39.47 -39.05,39.33 -39.27,39.19 -39.43,38.98 -39.59,38.77 -39.67,38.53 -39.76,38.28 -39.77,38.02 -39.77,37.76 -39.69,37.51 -39.61,37.26 -39.45,37.05 -39.30,36.84 -39.08,36.69 -38.87,36.54 -38.62,36.47 -38.37,36.39 -38.11,36.40 -37.85,36.41 -37.60,36.51 -37.36,36.60 -37.16,36.77 -36.95,36.93 -36.82,37.16 -36.68,37.38 -36.62,37.63 -36.56,37.89 -36.58,38.15 -36.61,38.41 -36.71,38.65 -36.82,38.88 -37.00,39.08 -37.18,39.27 -37.40,39.39 -37.63,39.52 -37.89,39.57 -38.15,39.61 -38.41,39.57 -38.67,39.53 -38.90,39.42 -39.13,39.30 -39.31,39.11 -39.50,38.92 -39.61,38.69 -39.72,38.45 -39.75,38.19 -39.79,37.93 -39.73,37.68 -39.68,37.42 -39.55,37.19 -39.42,36.97 -39.42,36.97 -39.42,36.97 -37.41,34.73 -35.40,32.49 -33.67,30.77 -31.94,29.05 -29.90,27.03 -27.85,25.02 -25.73,22.99 -23.61,20.97 -21.40,19.01 -19.19,17.05 -17.27,15.09 -15.35,13.12 -13.50,11.23 -11.66,9.33 -9.97,7.61 -8.28,5.89 -7.07,4.88 -5.86,3.86 -4.71,2.45 -3.56,1.04 -2.37,-0.07 -1.18,-1.18 -1.02,-1.30 -0.86,-1.43 -0.68,-1.51 -0.49,-1.59 -0.29,-1.63 -0.10,-1.67 0.10,-1.66 0.30,-1.64 0.49,-1.58 0.68,-1.52 0.86,-1.42 1.03,-1.31 1.17,-1.17 1.31,-1.03 1.42,-0.86 1.52,-0.68 1.58,-0.49 1.64,-0.30 1.66,-0.10 1.67,0.10 1.63,0.29 1.59,0.49 1.51,0.68 1.43,0.86 1.30,1.02 1.18,1.18 1.18,1.18 L 1.18,1.18 Z"></path></g><g transform="translate(205.38624520321088 293.6875) rotate(0 -19.5 19.5)" stroke="none"><path fill="#1e1e1e" d="M 1.18,1.18 Q 1.18,1.18 0.07,2.37 -1.03,3.55 -2.01,4.85 -2.99,6.14 -4.40,7.42 -5.82,8.70 -7.55,10.26 -9.28,11.81 -11.19,13.61 -13.09,15.41 -15.07,17.31 -17.04,19.22 -19.36,21.20 -21.68,23.19 -23.79,25.14 -25.89,27.09 -27.94,29.07 -29.99,31.05 -31.73,32.74 -33.47,34.44 -35.20,36.73 -36.92,39.02 -37.12,39.20 -37.32,39.37 -37.56,39.47 -37.80,39.57 -38.06,39.59 -38.32,39.61 -38.58,39.54 -38.83,39.47 -39.05,39.33 -39.27,39.19 -39.43,38.98 -39.59,38.77 -39.67,38.53 -39.76,38.28 -39.77,38.02 -39.77,37.76 -39.69,37.51 -39.61,37.26 -39.45,37.05 -39.30,36.84 -39.08,36.69 -38.87,36.54 -38.62,36.47 -38.37,36.39 -38.11,36.40 -37.85,36.41 -37.60,36.51 -37.36,36.60 -37.16,36.77 -36.95,36.93 -36.82,37.16 -36.68,37.38 -36.62,37.63 -36.56,37.89 -36.58,38.15 -36.61,38.41 -36.71,38.65 -36.82,38.88 -37.00,39.08 -37.18,39.27 -37.40,39.39 -37.63,39.52 -37.89,39.57 -38.15,39.61 -38.41,39.57 -38.67,39.53 -38.90,39.42 -39.13,39.30 -39.31,39.11 -39.50,38.92 -39.61,38.69 -39.72,38.45 -39.75,38.19 -39.79,37.93 -39.73,37.68 -39.68,37.42 -39.55,37.19 -39.42,36.97 -39.42,36.97 -39.42,36.97 -37.41,34.73 -35.40,32.49 -33.67,30.77 -31.94,29.05 -29.90,27.03 -27.85,25.02 -25.73,22.99 -23.61,20.97 -21.40,19.01 -19.19,17.05 -17.27,15.09 -15.35,13.12 -13.50,11.23 -11.66,9.33 -9.97,7.61 -8.28,5.89 -7.07,4.88 -5.86,3.86 -4.71,2.45 -3.56,1.04 -2.37,-0.07 -1.18,-1.18 -1.02,-1.30 -0.86,-1.43 -0.68,-1.51 -0.49,-1.59 -0.29,-1.63 -0.10,-1.67 0.10,-1.66 0.30,-1.64 0.49,-1.58 0.68,-1.52 0.86,-1.42 1.03,-1.31 1.17,-1.17 1.31,-1.03 1.42,-0.86 1.52,-0.68 1.58,-0.49 1.64,-0.30 1.66,-0.10 1.67,0.10 1.63,0.29 1.59,0.49 1.51,0.68 1.43,0.86 1.30,1.02 1.18,1.18 1.18,1.18 L 1.18,1.18 Z"></path></g><g transform="translate(249.88624520321088 297.1875) rotate(0 -19.5 19.5)" stroke="none"><path fill="#1e1e1e" d="M 1.18,1.18 Q 1.18,1.18 0.07,2.37 -1.03,3.55 -2.01,4.85 -2.99,6.14 -4.40,7.42 -5.82,8.70 -7.55,10.26 -9.28,11.81 -11.19,13.61 -13.09,15.41 -15.07,17.31 -17.04,19.22 -19.36,21.20 -21.68,23.19 -23.79,25.14 -25.89,27.09 -27.94,29.07 -29.99,31.05 -31.73,32.74 -33.47,34.44 -35.20,36.73 -36.92,39.02 -37.12,39.20 -37.32,39.37 -37.56,39.47 -37.80,39.57 -38.06,39.59 -38.32,39.61 -38.58,39.54 -38.83,39.47 -39.05,39.33 -39.27,39.19 -39.43,38.98 -39.59,38.77 -39.67,38.53 -39.76,38.28 -39.77,38.02 -39.77,37.76 -39.69,37.51 -39.61,37.26 -39.45,37.05 -39.30,36.84 -39.08,36.69 -38.87,36.54 -38.62,36.47 -38.37,36.39 -38.11,36.40 -37.85,36.41 -37.60,36.51 -37.36,36.60 -37.16,36.77 -36.95,36.93 -36.82,37.16 -36.68,37.38 -36.62,37.63 -36.56,37.89 -36.58,38.15 -36.61,38.41 -36.71,38.65 -36.82,38.88 -37.00,39.08 -37.18,39.27 -37.40,39.39 -37.63,39.52 -37.89,39.57 -38.15,39.61 -38.41,39.57 -38.67,39.53 -38.90,39.42 -39.13,39.30 -39.31,39.11 -39.50,38.92 -39.61,38.69 -39.72,38.45 -39.75,38.19 -39.79,37.93 -39.73,37.68 -39.68,37.42 -39.55,37.19 -39.42,36.97 -39.42,36.97 -39.42,36.97 -37.41,34.73 -35.40,32.49 -33.67,30.77 -31.94,29.05 -29.90,27.03 -27.85,25.02 -25.73,22.99 -23.61,20.97 -21.40,19.01 -19.19,17.05 -17.27,15.09 -15.35,13.12 -13.50,11.23 -11.66,9.33 -9.97,7.61 -8.28,5.89 -7.07,4.88 -5.86,3.86 -4.71,2.45 -3.56,1.04 -2.37,-0.07 -1.18,-1.18 -1.02,-1.30 -0.86,-1.43 -0.68,-1.51 -0.49,-1.59 -0.29,-1.63 -0.10,-1.67 0.10,-1.66 0.30,-1.64 0.49,-1.58 0.68,-1.52 0.86,-1.42 1.03,-1.31 1.17,-1.17 1.31,-1.03 1.42,-0.86 1.52,-0.68 1.58,-0.49 1.64,-0.30 1.66,-0.10 1.67,0.10 1.63,0.29 1.59,0.49 1.51,0.68 1.43,0.86 1.30,1.02 1.18,1.18 1.18,1.18 L 1.18,1.18 Z"></path></g><g transform="translate(290.6362452032109 296.4375) rotate(0 -19.5 19.5)" stroke="none"><path fill="#1e1e1e" d="M 1.18,1.18 Q 1.18,1.18 0.07,2.37 -1.03,3.55 -2.01,4.85 -2.99,6.14 -4.40,7.42 -5.82,8.70 -7.55,10.26 -9.28,11.81 -11.19,13.61 -13.09,15.41 -15.07,17.31 -17.04,19.22 -19.36,21.20 -21.68,23.19 -23.79,25.14 -25.89,27.09 -27.94,29.07 -29.99,31.05 -31.73,32.74 -33.47,34.44 -35.20,36.73 -36.92,39.02 -37.12,39.20 -37.32,39.37 -37.56,39.47 -37.80,39.57 -38.06,39.59 -38.32,39.61 -38.58,39.54 -38.83,39.47 -39.05,39.33 -39.27,39.19 -39.43,38.98 -39.59,38.77 -39.67,38.53 -39.76,38.28 -39.77,38.02 -39.77,37.76 -39.69,37.51 -39.61,37.26 -39.45,37.05 -39.30,36.84 -39.08,36.69 -38.87,36.54 -38.62,36.47 -38.37,36.39 -38.11,36.40 -37.85,36.41 -37.60,36.51 -37.36,36.60 -37.16,36.77 -36.95,36.93 -36.82,37.16 -36.68,37.38 -36.62,37.63 -36.56,37.89 -36.58,38.15 -36.61,38.41 -36.71,38.65 -36.82,38.88 -37.00,39.08 -37.18,39.27 -37.40,39.39 -37.63,39.52 -37.89,39.57 -38.15,39.61 -38.41,39.57 -38.67,39.53 -38.90,39.42 -39.13,39.30 -39.31,39.11 -39.50,38.92 -39.61,38.69 -39.72,38.45 -39.75,38.19 -39.79,37.93 -39.73,37.68 -39.68,37.42 -39.55,37.19 -39.42,36.97 -39.42,36.97 -39.42,36.97 -37.41,34.73 -35.40,32.49 -33.67,30.77 -31.94,29.05 -29.90,27.03 -27.85,25.02 -25.73,22.99 -23.61,20.97 -21.40,19.01 -19.19,17.05 -17.27,15.09 -15.35,13.12 -13.50,11.23 -11.66,9.33 -9.97,7.61 -8.28,5.89 -7.07,4.88 -5.86,3.86 -4.71,2.45 -3.56,1.04 -2.37,-0.07 -1.18,-1.18 -1.02,-1.30 -0.86,-1.43 -0.68,-1.51 -0.49,-1.59 -0.29,-1.63 -0.10,-1.67 0.10,-1.66 0.30,-1.64 0.49,-1.58 0.68,-1.52 0.86,-1.42 1.03,-1.31 1.17,-1.17 1.31,-1.03 1.42,-0.86 1.52,-0.68 1.58,-0.49 1.64,-0.30 1.66,-0.10 1.67,0.10 1.63,0.29 1.59,0.49 1.51,0.68 1.43,0.86 1.30,1.02 1.18,1.18 1.18,1.18 L 1.18,1.18 Z"></path></g><g transform="translate(334.1362452032109 290.9375) rotate(0 -19.5 19.5)" stroke="none"><path fill="#1e1e1e" d="M 1.18,1.18 Q 1.18,1.18 0.07,2.37 -1.03,3.55 -2.01,4.85 -2.99,6.14 -4.40,7.42 -5.82,8.70 -7.55,10.26 -9.28,11.81 -11.19,13.61 -13.09,15.41 -15.07,17.31 -17.04,19.22 -19.36,21.20 -21.68,23.19 -23.79,25.14 -25.89,27.09 -27.94,29.07 -29.99,31.05 -31.73,32.74 -33.47,34.44 -35.20,36.73 -36.92,39.02 -37.12,39.20 -37.32,39.37 -37.56,39.47 -37.80,39.57 -38.06,39.59 -38.32,39.61 -38.58,39.54 -38.83,39.47 -39.05,39.33 -39.27,39.19 -39.43,38.98 -39.59,38.77 -39.67,38.53 -39.76,38.28 -39.77,38.02 -39.77,37.76 -39.69,37.51 -39.61,37.26 -39.45,37.05 -39.30,36.84 -39.08,36.69 -38.87,36.54 -38.62,36.47 -38.37,36.39 -38.11,36.40 -37.85,36.41 -37.60,36.51 -37.36,36.60 -37.16,36.77 -36.95,36.93 -36.82,37.16 -36.68,37.38 -36.62,37.63 -36.56,37.89 -36.58,38.15 -36.61,38.41 -36.71,38.65 -36.82,38.88 -37.00,39.08 -37.18,39.27 -37.40,39.39 -37.63,39.52 -37.89,39.57 -38.15,39.61 -38.41,39.57 -38.67,39.53 -38.90,39.42 -39.13,39.30 -39.31,39.11 -39.50,38.92 -39.61,38.69 -39.72,38.45 -39.75,38.19 -39.79,37.93 -39.73,37.68 -39.68,37.42 -39.55,37.19 -39.42,36.97 -39.42,36.97 -39.42,36.97 -37.41,34.73 -35.40,32.49 -33.67,30.77 -31.94,29.05 -29.90,27.03 -27.85,25.02 -25.73,22.99 -23.61,20.97 -21.40,19.01 -19.19,17.05 -17.27,15.09 -15.35,13.12 -13.50,11.23 -11.66,9.33 -9.97,7.61 -8.28,5.89 -7.07,4.88 -5.86,3.86 -4.71,2.45 -3.56,1.04 -2.37,-0.07 -1.18,-1.18 -1.02,-1.30 -0.86,-1.43 -0.68,-1.51 -0.49,-1.59 -0.29,-1.63 -0.10,-1.67 0.10,-1.66 0.30,-1.64 0.49,-1.58 0.68,-1.52 0.86,-1.42 1.03,-1.31 1.17,-1.17 1.31,-1.03 1.42,-0.86 1.52,-0.68 1.58,-0.49 1.64,-0.30 1.66,-0.10 1.67,0.10 1.63,0.29 1.59,0.49 1.51,0.68 1.43,0.86 1.30,1.02 1.18,1.18 1.18,1.18 L 1.18,1.18 Z"></path></g><g transform="translate(382.0112452032109 288.0625) rotate(0 -19.5 19.5)" stroke="none"><path fill="#1e1e1e" d="M 1.18,1.18 Q 1.18,1.18 0.07,2.37 -1.03,3.55 -2.01,4.85 -2.99,6.14 -4.40,7.42 -5.82,8.70 -7.55,10.26 -9.28,11.81 -11.19,13.61 -13.09,15.41 -15.07,17.31 -17.04,19.22 -19.36,21.20 -21.68,23.19 -23.79,25.14 -25.89,27.09 -27.94,29.07 -29.99,31.05 -31.73,32.74 -33.47,34.44 -35.20,36.73 -36.92,39.02 -37.12,39.20 -37.32,39.37 -37.56,39.47 -37.80,39.57 -38.06,39.59 -38.32,39.61 -38.58,39.54 -38.83,39.47 -39.05,39.33 -39.27,39.19 -39.43,38.98 -39.59,38.77 -39.67,38.53 -39.76,38.28 -39.77,38.02 -39.77,37.76 -39.69,37.51 -39.61,37.26 -39.45,37.05 -39.30,36.84 -39.08,36.69 -38.87,36.54 -38.62,36.47 -38.37,36.39 -38.11,36.40 -37.85,36.41 -37.60,36.51 -37.36,36.60 -37.16,36.77 -36.95,36.93 -36.82,37.16 -36.68,37.38 -36.62,37.63 -36.56,37.89 -36.58,38.15 -36.61,38.41 -36.71,38.65 -36.82,38.88 -37.00,39.08 -37.18,39.27 -37.40,39.39 -37.63,39.52 -37.89,39.57 -38.15,39.61 -38.41,39.57 -38.67,39.53 -38.90,39.42 -39.13,39.30 -39.31,39.11 -39.50,38.92 -39.61,38.69 -39.72,38.45 -39.75,38.19 -39.79,37.93 -39.73,37.68 -39.68,37.42 -39.55,37.19 -39.42,36.97 -39.42,36.97 -39.42,36.97 -37.41,34.73 -35.40,32.49 -33.67,30.77 -31.94,29.05 -29.90,27.03 -27.85,25.02 -25.73,22.99 -23.61,20.97 -21.40,19.01 -19.19,17.05 -17.27,15.09 -15.35,13.12 -13.50,11.23 -11.66,9.33 -9.97,7.61 -8.28,5.89 -7.07,4.88 -5.86,3.86 -4.71,2.45 -3.56,1.04 -2.37,-0.07 -1.18,-1.18 -1.02,-1.30 -0.86,-1.43 -0.68,-1.51 -0.49,-1.59 -0.29,-1.63 -0.10,-1.67 0.10,-1.66 0.30,-1.64 0.49,-1.58 0.68,-1.52 0.86,-1.42 1.03,-1.31 1.17,-1.17 1.31,-1.03 1.42,-0.86 1.52,-0.68 1.58,-0.49 1.64,-0.30 1.66,-0.10 1.67,0.10 1.63,0.29 1.59,0.49 1.51,0.68 1.43,0.86 1.30,1.02 1.18,1.18 1.18,1.18 L 1.18,1.18 Z"></path></g><g transform="translate(426.5112452032109 291.5625) rotate(0 -19.5 19.5)" stroke="none"><path fill="#1e1e1e" d="M 1.18,1.18 Q 1.18,1.18 0.07,2.37 -1.03,3.55 -2.01,4.85 -2.99,6.14 -4.40,7.42 -5.82,8.70 -7.55,10.26 -9.28,11.81 -11.19,13.61 -13.09,15.41 -15.07,17.31 -17.04,19.22 -19.36,21.20 -21.68,23.19 -23.79,25.14 -25.89,27.09 -27.94,29.07 -29.99,31.05 -31.73,32.74 -33.47,34.44 -35.20,36.73 -36.92,39.02 -37.12,39.20 -37.32,39.37 -37.56,39.47 -37.80,39.57 -38.06,39.59 -38.32,39.61 -38.58,39.54 -38.83,39.47 -39.05,39.33 -39.27,39.19 -39.43,38.98 -39.59,38.77 -39.67,38.53 -39.76,38.28 -39.77,38.02 -39.77,37.76 -39.69,37.51 -39.61,37.26 -39.45,37.05 -39.30,36.84 -39.08,36.69 -38.87,36.54 -38.62,36.47 -38.37,36.39 -38.11,36.40 -37.85,36.41 -37.60,36.51 -37.36,36.60 -37.16,36.77 -36.95,36.93 -36.82,37.16 -36.68,37.38 -36.62,37.63 -36.56,37.89 -36.58,38.15 -36.61,38.41 -36.71,38.65 -36.82,38.88 -37.00,39.08 -37.18,39.27 -37.40,39.39 -37.63,39.52 -37.89,39.57 -38.15,39.61 -38.41,39.57 -38.67,39.53 -38.90,39.42 -39.13,39.30 -39.31,39.11 -39.50,38.92 -39.61,38.69 -39.72,38.45 -39.75,38.19 -39.79,37.93 -39.73,37.68 -39.68,37.42 -39.55,37.19 -39.42,36.97 -39.42,36.97 -39.42,36.97 -37.41,34.73 -35.40,32.49 -33.67,30.77 -31.94,29.05 -29.90,27.03 -27.85,25.02 -25.73,22.99 -23.61,20.97 -21.40,19.01 -19.19,17.05 -17.27,15.09 -15.35,13.12 -13.50,11.23 -11.66,9.33 -9.97,7.61 -8.28,5.89 -7.07,4.88 -5.86,3.86 -4.71,2.45 -3.56,1.04 -2.37,-0.07 -1.18,-1.18 -1.02,-1.30 -0.86,-1.43 -0.68,-1.51 -0.49,-1.59 -0.29,-1.63 -0.10,-1.67 0.10,-1.66 0.30,-1.64 0.49,-1.58 0.68,-1.52 0.86,-1.42 1.03,-1.31 1.17,-1.17 1.31,-1.03 1.42,-0.86 1.52,-0.68 1.58,-0.49 1.64,-0.30 1.66,-0.10 1.67,0.10 1.63,0.29 1.59,0.49 1.51,0.68 1.43,0.86 1.30,1.02 1.18,1.18 1.18,1.18 L 1.18,1.18 Z"></path></g><g transform="translate(467.2612452032109 290.8125) rotate(0 -19.5 19.5)" stroke="none"><path fill="#1e1e1e" d="M 1.18,1.18 Q 1.18,1.18 0.07,2.37 -1.03,3.55 -2.01,4.85 -2.99,6.14 -4.40,7.42 -5.82,8.70 -7.55,10.26 -9.28,11.81 -11.19,13.61 -13.09,15.41 -15.07,17.31 -17.04,19.22 -19.36,21.20 -21.68,23.19 -23.79,25.14 -25.89,27.09 -27.94,29.07 -29.99,31.05 -31.73,32.74 -33.47,34.44 -35.20,36.73 -36.92,39.02 -37.12,39.20 -37.32,39.37 -37.56,39.47 -37.80,39.57 -38.06,39.59 -38.32,39.61 -38.58,39.54 -38.83,39.47 -39.05,39.33 -39.27,39.19 -39.43,38.98 -39.59,38.77 -39.67,38.53 -39.76,38.28 -39.77,38.02 -39.77,37.76 -39.69,37.51 -39.61,37.26 -39.45,37.05 -39.30,36.84 -39.08,36.69 -38.87,36.54 -38.62,36.47 -38.37,36.39 -38.11,36.40 -37.85,36.41 -37.60,36.51 -37.36,36.60 -37.16,36.77 -36.95,36.93 -36.82,37.16 -36.68,37.38 -36.62,37.63 -36.56,37.89 -36.58,38.15 -36.61,38.41 -36.71,38.65 -36.82,38.88 -37.00,39.08 -37.18,39.27 -37.40,39.39 -37.63,39.52 -37.89,39.57 -38.15,39.61 -38.41,39.57 -38.67,39.53 -38.90,39.42 -39.13,39.30 -39.31,39.11 -39.50,38.92 -39.61,38.69 -39.72,38.45 -39.75,38.19 -39.79,37.93 -39.73,37.68 -39.68,37.42 -39.55,37.19 -39.42,36.97 -39.42,36.97 -39.42,36.97 -37.41,34.73 -35.40,32.49 -33.67,30.77 -31.94,29.05 -29.90,27.03 -27.85,25.02 -25.73,22.99 -23.61,20.97 -21.40,19.01 -19.19,17.05 -17.27,15.09 -15.35,13.12 -13.50,11.23 -11.66,9.33 -9.97,7.61 -8.28,5.89 -7.07,4.88 -5.86,3.86 -4.71,2.45 -3.56,1.04 -2.37,-0.07 -1.18,-1.18 -1.02,-1.30 -0.86,-1.43 -0.68,-1.51 -0.49,-1.59 -0.29,-1.63 -0.10,-1.67 0.10,-1.66 0.30,-1.64 0.49,-1.58 0.68,-1.52 0.86,-1.42 1.03,-1.31 1.17,-1.17 1.31,-1.03 1.42,-0.86 1.52,-0.68 1.58,-0.49 1.64,-0.30 1.66,-0.10 1.67,0.10 1.63,0.29 1.59,0.49 1.51,0.68 1.43,0.86 1.30,1.02 1.18,1.18 1.18,1.18 L 1.18,1.18 Z"></path></g><g transform="translate(513.7612452032108 289.3125) rotate(0 -19.5 19.5)" stroke="none"><path fill="#1e1e1e" d="M 1.18,1.18 Q 1.18,1.18 0.07,2.37 -1.03,3.55 -2.01,4.85 -2.99,6.14 -4.40,7.42 -5.82,8.70 -7.55,10.26 -9.28,11.81 -11.19,13.61 -13.09,15.41 -15.07,17.31 -17.04,19.22 -19.36,21.20 -21.68,23.19 -23.79,25.14 -25.89,27.09 -27.94,29.07 -29.99,31.05 -31.73,32.74 -33.47,34.44 -35.20,36.73 -36.92,39.02 -37.12,39.20 -37.32,39.37 -37.56,39.47 -37.80,39.57 -38.06,39.59 -38.32,39.61 -38.58,39.54 -38.83,39.47 -39.05,39.33 -39.27,39.19 -39.43,38.98 -39.59,38.77 -39.67,38.53 -39.76,38.28 -39.77,38.02 -39.77,37.76 -39.69,37.51 -39.61,37.26 -39.45,37.05 -39.30,36.84 -39.08,36.69 -38.87,36.54 -38.62,36.47 -38.37,36.39 -38.11,36.40 -37.85,36.41 -37.60,36.51 -37.36,36.60 -37.16,36.77 -36.95,36.93 -36.82,37.16 -36.68,37.38 -36.62,37.63 -36.56,37.89 -36.58,38.15 -36.61,38.41 -36.71,38.65 -36.82,38.88 -37.00,39.08 -37.18,39.27 -37.40,39.39 -37.63,39.52 -37.89,39.57 -38.15,39.61 -38.41,39.57 -38.67,39.53 -38.90,39.42 -39.13,39.30 -39.31,39.11 -39.50,38.92 -39.61,38.69 -39.72,38.45 -39.75,38.19 -39.79,37.93 -39.73,37.68 -39.68,37.42 -39.55,37.19 -39.42,36.97 -39.42,36.97 -39.42,36.97 -37.41,34.73 -35.40,32.49 -33.67,30.77 -31.94,29.05 -29.90,27.03 -27.85,25.02 -25.73,22.99 -23.61,20.97 -21.40,19.01 -19.19,17.05 -17.27,15.09 -15.35,13.12 -13.50,11.23 -11.66,9.33 -9.97,7.61 -8.28,5.89 -7.07,4.88 -5.86,3.86 -4.71,2.45 -3.56,1.04 -2.37,-0.07 -1.18,-1.18 -1.02,-1.30 -0.86,-1.43 -0.68,-1.51 -0.49,-1.59 -0.29,-1.63 -0.10,-1.67 0.10,-1.66 0.30,-1.64 0.49,-1.58 0.68,-1.52 0.86,-1.42 1.03,-1.31 1.17,-1.17 1.31,-1.03 1.42,-0.86 1.52,-0.68 1.58,-0.49 1.64,-0.30 1.66,-0.10 1.67,0.10 1.63,0.29 1.59,0.49 1.51,0.68 1.43,0.86 1.30,1.02 1.18,1.18 1.18,1.18 L 1.18,1.18 Z"></path></g><g transform="translate(562.9022774696236 291.60592418686974) rotate(0 -19.5 19.5)" stroke="none"><path fill="#1e1e1e" d="M 1.18,1.18 Q 1.18,1.18 0.07,2.37 -1.03,3.55 -2.01,4.85 -2.99,6.14 -4.40,7.42 -5.82,8.70 -7.55,10.26 -9.28,11.81 -11.19,13.61 -13.09,15.41 -15.07,17.31 -17.04,19.22 -19.36,21.20 -21.68,23.19 -23.79,25.14 -25.89,27.09 -27.94,29.07 -29.99,31.05 -31.73,32.74 -33.47,34.44 -35.20,36.73 -36.92,39.02 -37.12,39.20 -37.32,39.37 -37.56,39.47 -37.80,39.57 -38.06,39.59 -38.32,39.61 -38.58,39.54 -38.83,39.47 -39.05,39.33 -39.27,39.19 -39.43,38.98 -39.59,38.77 -39.67,38.53 -39.76,38.28 -39.77,38.02 -39.77,37.76 -39.69,37.51 -39.61,37.26 -39.45,37.05 -39.30,36.84 -39.08,36.69 -38.87,36.54 -38.62,36.47 -38.37,36.39 -38.11,36.40 -37.85,36.41 -37.60,36.51 -37.36,36.60 -37.16,36.77 -36.95,36.93 -36.82,37.16 -36.68,37.38 -36.62,37.63 -36.56,37.89 -36.58,38.15 -36.61,38.41 -36.71,38.65 -36.82,38.88 -37.00,39.08 -37.18,39.27 -37.40,39.39 -37.63,39.52 -37.89,39.57 -38.15,39.61 -38.41,39.57 -38.67,39.53 -38.90,39.42 -39.13,39.30 -39.31,39.11 -39.50,38.92 -39.61,38.69 -39.72,38.45 -39.75,38.19 -39.79,37.93 -39.73,37.68 -39.68,37.42 -39.55,37.19 -39.42,36.97 -39.42,36.97 -39.42,36.97 -37.41,34.73 -35.40,32.49 -33.67,30.77 -31.94,29.05 -29.90,27.03 -27.85,25.02 -25.73,22.99 -23.61,20.97 -21.40,19.01 -19.19,17.05 -17.27,15.09 -15.35,13.12 -13.50,11.23 -11.66,9.33 -9.97,7.61 -8.28,5.89 -7.07,4.88 -5.86,3.86 -4.71,2.45 -3.56,1.04 -2.37,-0.07 -1.18,-1.18 -1.02,-1.30 -0.86,-1.43 -0.68,-1.51 -0.49,-1.59 -0.29,-1.63 -0.10,-1.67 0.10,-1.66 0.30,-1.64 0.49,-1.58 0.68,-1.52 0.86,-1.42 1.03,-1.31 1.17,-1.17 1.31,-1.03 1.42,-0.86 1.52,-0.68 1.58,-0.49 1.64,-0.30 1.66,-0.10 1.67,0.10 1.63,0.29 1.59,0.49 1.51,0.68 1.43,0.86 1.30,1.02 1.18,1.18 1.18,1.18 L 1.18,1.18 Z"></path></g><g stroke-linecap="round" transform="translate(175.57374520321088 10) rotate(0 138.5 138.5)"><path d="M277 138.5 C277 142.31, 276.84 146.14, 276.53 149.94 C276.21 153.74, 275.74 157.54, 275.11 161.3 C274.48 165.06, 273.7 168.8, 272.76 172.5 C271.83 176.2, 270.73 179.87, 269.5 183.47 C268.26 187.08, 266.87 190.64, 265.33 194.13 C263.8 197.63, 262.12 201.07, 260.31 204.42 C258.49 207.77, 256.53 211.06, 254.45 214.25 C252.36 217.44, 250.14 220.56, 247.8 223.57 C245.45 226.58, 242.98 229.5, 240.4 232.3 C237.82 235.11, 235.11 237.82, 232.3 240.4 C229.5 242.98, 226.58 245.45, 223.57 247.8 C220.56 250.14, 217.44 252.36, 214.25 254.45 C211.06 256.53, 207.77 258.49, 204.42 260.31 C201.07 262.12, 197.63 263.8, 194.13 265.33 C190.64 266.87, 187.08 268.26, 183.47 269.5 C179.87 270.73, 176.2 271.83, 172.5 272.76 C168.8 273.7, 165.06 274.48, 161.3 275.11 C157.54 275.74, 153.74 276.21, 149.94 276.53 C146.14 276.84, 142.31 277, 138.5 277 C134.69 277, 130.86 276.84, 127.06 276.53 C123.26 276.21, 119.46 275.74, 115.7 275.11 C111.94 274.48, 108.2 273.7, 104.5 272.76 C100.8 271.83, 97.13 270.73, 93.53 269.5 C89.92 268.26, 86.36 266.87, 82.87 265.33 C79.37 263.8, 75.93 262.12, 72.58 260.31 C69.23 258.49, 65.94 256.53, 62.75 254.45 C59.56 252.36, 56.44 250.14, 53.43 247.8 C50.42 245.45, 47.5 242.98, 44.7 240.4 C41.89 237.82, 39.18 235.11, 36.6 232.3 C34.02 229.5, 31.55 226.58, 29.2 223.57 C26.86 220.56, 24.64 217.44, 22.55 214.25 C20.47 211.06, 18.51 207.77, 16.69 204.42 C14.88 201.07, 13.2 197.63, 11.67 194.13 C10.13 190.64, 8.74 187.08, 7.5 183.47 C6.27 179.87, 5.17 176.2, 4.24 172.5 C3.3 168.8, 2.52 165.06, 1.89 161.3 C1.26 157.54, 0.79 153.74, 0.47 149.94 C0.16 146.14, 0 142.31, 0 138.5 C0 134.69, 0.16 130.86, 0.47 127.06 C0.79 123.26, 1.26 119.46, 1.89 115.7 C2.52 111.94, 3.3 108.2, 4.24 104.5 C5.17 100.8, 6.27 97.13, 7.5 93.53 C8.74 89.92, 10.13 86.36, 11.67 82.87 C13.2 79.37, 14.88 75.93, 16.69 72.58 C18.51 69.23, 20.47 65.94, 22.55 62.75 C24.64 59.56, 26.86 56.44, 29.2 53.43 C31.55 50.42, 34.02 47.5, 36.6 44.7 C39.18 41.89, 41.89 39.18, 44.7 36.6 C47.5 34.02, 50.42 31.55, 53.43 29.2 C56.44 26.86, 59.56 24.64, 62.75 22.55 C65.94 20.47, 69.23 18.51, 72.58 16.69 C75.93 14.88, 79.37 13.2, 82.87 11.67 C86.36 10.13, 89.92 8.74, 93.53 7.5 C97.13 6.27, 100.8 5.17, 104.5 4.24 C108.2 3.3, 111.94 2.52, 115.7 1.89 C119.46 1.26, 123.26 0.79, 127.06 0.47 C130.86 0.16, 134.69 0, 138.5 0 C142.31 0, 146.14 0.16, 149.94 0.47 C153.74 0.79, 157.54 1.26, 161.3 1.89 C165.06 2.52, 168.8 3.3, 172.5 4.24 C176.2 5.17, 179.87 6.27, 183.47 7.5 C187.08 8.74, 190.64 10.13, 194.13 11.67 C197.63 13.2, 201.07 14.88, 204.42 16.69 C207.77 18.51, 211.06 20.47, 214.25 22.55 C217.44 24.64, 220.56 26.86, 223.57 29.2 C226.58 31.55, 229.5 34.02, 232.3 36.6 C235.11 39.18, 237.82 41.89, 240.4 44.7 C242.98 47.5, 245.45 50.42, 247.8 53.43 C250.14 56.44, 252.36 59.56, 254.45 62.75 C256.53 65.94, 258.49 69.23, 260.31 72.58 C262.12 75.93, 263.8 79.37, 265.33 82.87 C266.87 86.36, 268.26 89.92, 269.5 93.53 C270.73 97.13, 271.83 100.8, 272.76 104.5 C273.7 108.2, 274.48 111.94, 275.11 115.7 C275.74 119.46, 276.21 123.26, 276.53 127.06 C276.84 130.86, 277 134.69, 277 138.5" stroke="#e03131" stroke-width="2" fill="none"></path></g><g stroke-linecap="round"><g transform="translate(311.39929024260715 286.7990364448309) rotate(0 0 -138.31057164876222)"><path d="M0 0 C0 -46.1, 0 -230.52, 0 -276.62 M0 0 C0 -46.1, 0 -230.52, 0 -276.62" stroke="#e03131" stroke-width="2" fill="none"></path></g><g transform="translate(311.39929024260715 286.7990364448309) rotate(0 0 -138.31057164876222)"><path d="M0 -276.62 L6.34 -263.03 L-6.34 -263.03 L0 -276.62" stroke="none" stroke-width="0" fill="#e03131" fill-rule="evenodd"></path><path d="M0 -276.62 C2.53 -271.19, 5.06 -265.76, 6.34 -263.03 M0 -276.62 C1.94 -272.47, 3.87 -268.31, 6.34 -263.03 M6.34 -263.03 C1.95 -263.03, -2.44 -263.03, -6.34 -263.03 M6.34 -263.03 C1.77 -263.03, -2.81 -263.03, -6.34 -263.03 M-6.34 -263.03 C-4.37 -267.26, -2.39 -271.49, 0 -276.62 M-6.34 -263.03 C-4.05 -267.94, -1.76 -272.85, 0 -276.62 M0 -276.62 C0 -276.62, 0 -276.62, 0 -276.62 M0 -276.62 C0 -276.62, 0 -276.62, 0 -276.62" stroke="#e03131" stroke-width="2" fill="none"></path></g></g><mask></mask><g stroke-linecap="round"><g transform="translate(311.39929024260715 286.2839132729547) rotate(0 34.6750583021165 -129.40907933891145)"><path d="M0 0 C11.56 -43.14, 57.79 -215.68, 69.35 -258.82 M0 0 C11.56 -43.14, 57.79 -215.68, 69.35 -258.82" stroke="#e03131" stroke-width="2" fill="none"></path></g><g transform="translate(311.39929024260715 286.2839132729547) rotate(0 34.6750583021165 -129.40907933891145)"><path d="M69.35 -258.82 L71.95 -244.05 L59.71 -247.33 L69.35 -258.82" stroke="none" stroke-width="0" fill="#e03131" fill-rule="evenodd"></path><path d="M69.35 -258.82 C70.34 -253.23, 71.32 -247.64, 71.95 -244.05 M69.35 -258.82 C70.2 -253.99, 71.05 -249.17, 71.95 -244.05 M71.95 -244.05 C67.58 -245.22, 63.21 -246.39, 59.71 -247.33 M71.95 -244.05 C68.08 -245.09, 64.2 -246.12, 59.71 -247.33 M59.71 -247.33 C62.33 -250.45, 64.94 -253.56, 69.35 -258.82 M59.71 -247.33 C61.7 -249.7, 63.69 -252.08, 69.35 -258.82 M69.35 -258.82 C69.35 -258.82, 69.35 -258.82, 69.35 -258.82 M69.35 -258.82 C69.35 -258.82, 69.35 -258.82, 69.35 -258.82" stroke="#e03131" stroke-width="2" fill="none"></path></g></g><mask></mask><g stroke-linecap="round"><g transform="translate(314.1875658363402 285.9814498354305) rotate(0 -33.98899828727724 -129.40907933891145)"><path d="M0 0 C-11.33 -43.14, -56.65 -215.68, -67.98 -258.82 M0 0 C-11.33 -43.14, -56.65 -215.68, -67.98 -258.82" stroke="#e03131" stroke-width="2" fill="none"></path></g><g transform="translate(314.1875658363402 285.9814498354305) rotate(0 -33.98899828727724 -129.40907933891145)"><path d="M-67.98 -258.82 L-58.39 -247.28 L-70.66 -244.06 L-67.98 -258.82" stroke="none" stroke-width="0" fill="#e03131" fill-rule="evenodd"></path><path d="M-67.98 -258.82 C-64.32 -254.42, -60.67 -250.02, -58.39 -247.28 M-67.98 -258.82 C-65.73 -256.11, -63.48 -253.4, -58.39 -247.28 M-58.39 -247.28 C-63.06 -246.05, -67.73 -244.83, -70.66 -244.06 M-58.39 -247.28 C-63.18 -246.02, -67.96 -244.77, -70.66 -244.06 M-70.66 -244.06 C-69.84 -248.54, -69.03 -253.02, -67.98 -258.82 M-70.66 -244.06 C-69.9 -248.21, -69.15 -252.37, -67.98 -258.82 M-67.98 -258.82 C-67.98 -258.82, -67.98 -258.82, -67.98 -258.82 M-67.98 -258.82 C-67.98 -258.82, -67.98 -258.82, -67.98 -258.82" stroke="#e03131" stroke-width="2" fill="none"></path></g></g><mask></mask><g stroke-linecap="round"><g transform="translate(311.91441341448336 287.8292827885833) rotate(0 60.27509499275965 -104.39952695850027)"><path d="M0 0 C20.09 -34.8, 100.46 -174, 120.55 -208.8 M0 0 C20.09 -34.8, 100.46 -174, 120.55 -208.8" stroke="#e03131" stroke-width="2" fill="none"></path></g><g transform="translate(311.91441341448336 287.8292827885833) rotate(0 60.27509499275965 -104.39952695850027)"><path d="M120.55 -208.8 L119.24 -193.86 L108.26 -200.2 L120.55 -208.8" stroke="none" stroke-width="0" fill="#e03131" fill-rule="evenodd"></path><path d="M120.55 -208.8 C120.27 -205.59, 119.99 -202.39, 119.24 -193.86 M120.55 -208.8 C120.04 -203.01, 119.54 -197.21, 119.24 -193.86 M119.24 -193.86 C115.77 -195.86, 112.3 -197.86, 108.26 -200.2 M119.24 -193.86 C115.25 -196.16, 111.26 -198.47, 108.26 -200.2 M108.26 -200.2 C112.96 -203.49, 117.66 -206.78, 120.55 -208.8 M108.26 -200.2 C112.28 -203, 116.29 -205.81, 120.55 -208.8 M120.55 -208.8 C120.55 -208.8, 120.55 -208.8, 120.55 -208.8 M120.55 -208.8 C120.55 -208.8, 120.55 -208.8, 120.55 -208.8" stroke="#e03131" stroke-width="2" fill="none"></path></g></g><mask></mask><g stroke-linecap="round"><g transform="translate(313.6826345841968 287.52681935105915) rotate(0 -59.08252792611262 -104.39952695850027)"><path d="M0 0 C-19.69 -34.8, -98.47 -174, -118.17 -208.8 M0 0 C-19.69 -34.8, -98.47 -174, -118.17 -208.8" stroke="#e03131" stroke-width="2" fill="none"></path></g><g transform="translate(313.6826345841968 287.52681935105915) rotate(0 -59.08252792611262 -104.39952695850027)"><path d="M-118.17 -208.8 L-105.95 -200.09 L-116.99 -193.85 L-118.17 -208.8" stroke="none" stroke-width="0" fill="#e03131" fill-rule="evenodd"></path><path d="M-118.17 -208.8 C-115.23 -206.7, -112.29 -204.61, -105.95 -200.09 M-118.17 -208.8 C-114.63 -206.28, -111.09 -203.75, -105.95 -200.09 M-105.95 -200.09 C-109.95 -197.83, -113.95 -195.56, -116.99 -193.85 M-105.95 -200.09 C-109.65 -198, -113.36 -195.9, -116.99 -193.85 M-116.99 -193.85 C-117.41 -199.22, -117.83 -204.59, -118.17 -208.8 M-116.99 -193.85 C-117.44 -199.62, -117.9 -205.4, -118.17 -208.8 M-118.17 -208.8 C-118.17 -208.8, -118.17 -208.8, -118.17 -208.8 M-118.17 -208.8 C-118.17 -208.8, -118.17 -208.8, -118.17 -208.8" stroke="#e03131" stroke-width="2" fill="none"></path></g></g><mask></mask><g stroke-linecap="round"><g transform="translate(312.9446597582358 286.7990364448309) rotate(0 69.67040899625732 -69.67040899625731)"><path d="M0 0 C23.22 -23.22, 116.12 -116.12, 139.34 -139.34 M0 0 C23.22 -23.22, 116.12 -116.12, 139.34 -139.34" stroke="#e03131" stroke-width="2" fill="none"></path></g><g transform="translate(312.9446597582358 286.7990364448309) rotate(0 69.67040899625732 -69.67040899625731)"><path d="M139.34 -139.34 L134.21 -125.25 L125.25 -134.21 L139.34 -139.34" stroke="none" stroke-width="0" fill="#e03131" fill-rule="evenodd"></path><path d="M139.34 -139.34 C137.56 -134.45, 135.78 -129.56, 134.21 -125.25 M139.34 -139.34 C138.31 -136.51, 137.28 -133.68, 134.21 -125.25 M134.21 -125.25 C130.82 -128.64, 127.43 -132.03, 125.25 -134.21 M134.21 -125.25 C130.89 -128.57, 127.57 -131.89, 125.25 -134.21 M125.25 -134.21 C128.69 -135.46, 132.13 -136.72, 139.34 -139.34 M125.25 -134.21 C129.01 -135.58, 132.78 -136.95, 139.34 -139.34 M139.34 -139.34 C139.34 -139.34, 139.34 -139.34, 139.34 -139.34 M139.34 -139.34 C139.34 -139.34, 139.34 -139.34, 139.34 -139.34" stroke="#e03131" stroke-width="2" fill="none"></path></g></g><mask></mask><g stroke-linecap="round"><g transform="translate(312.6727720799095 286.4965730073067) rotate(0 -68.29195185241133 -69.67040899625731)"><path d="M0 0 C-22.76 -23.22, -113.82 -116.12, -136.58 -139.34 M0 0 C-22.76 -23.22, -113.82 -116.12, -136.58 -139.34" stroke="#e03131" stroke-width="2" fill="none"></path></g><g transform="translate(312.6727720799095 286.4965730073067) rotate(0 -68.29195185241133 -69.67040899625731)"><path d="M-136.58 -139.34 L-122.54 -134.07 L-131.59 -125.19 L-136.58 -139.34" stroke="none" stroke-width="0" fill="#e03131" fill-rule="evenodd"></path><path d="M-136.58 -139.34 C-131.45 -137.42, -126.33 -135.49, -122.54 -134.07 M-136.58 -139.34 C-131.96 -137.6, -127.33 -135.87, -122.54 -134.07 M-122.54 -134.07 C-125.34 -131.33, -128.14 -128.58, -131.59 -125.19 M-122.54 -134.07 C-125.6 -131.07, -128.67 -128.06, -131.59 -125.19 M-131.59 -125.19 C-132.99 -129.15, -134.38 -133.1, -136.58 -139.34 M-131.59 -125.19 C-133.37 -130.22, -135.14 -135.24, -136.58 -139.34 M-136.58 -139.34 C-136.58 -139.34, -136.58 -139.34, -136.58 -139.34 M-136.58 -139.34 C-136.58 -139.34, -136.58 -139.34, -136.58 -139.34" stroke="#e03131" stroke-width="2" fill="none"></path></g></g><mask></mask><g stroke-linecap="round"><g transform="translate(313.459782930112 287.8292827885833) rotate(0 58.814267553889295 -33.956433204428635)"><path d="M0 0 C19.6 -11.32, 98.02 -56.59, 117.63 -67.91 M0 0 C19.6 -11.32, 98.02 -56.59, 117.63 -67.91" stroke="#e03131" stroke-width="2" fill="none"></path></g><g transform="translate(313.459782930112 287.8292827885833) rotate(0 58.814267553889295 -33.956433204428635)"><path d="M117.63 -67.91 L109.02 -55.63 L102.69 -66.61 L117.63 -67.91" stroke="none" stroke-width="0" fill="#e03131" fill-rule="evenodd"></path><path d="M117.63 -67.91 C114.62 -63.61, 111.61 -59.31, 109.02 -55.63 M117.63 -67.91 C114.4 -63.31, 111.18 -58.7, 109.02 -55.63 M109.02 -55.63 C106.54 -59.94, 104.05 -64.25, 102.69 -66.61 M109.02 -55.63 C106.76 -59.56, 104.49 -63.49, 102.69 -66.61 M102.69 -66.61 C107.68 -67.04, 112.68 -67.48, 117.63 -67.91 M102.69 -66.61 C107.13 -66.99, 111.58 -67.38, 117.63 -67.91 M117.63 -67.91 C117.63 -67.91, 117.63 -67.91, 117.63 -67.91 M117.63 -67.91 C117.63 -67.91, 117.63 -67.91, 117.63 -67.91" stroke="#e03131" stroke-width="2" fill="none"></path></g></g><mask></mask><g stroke-linecap="round"><g transform="translate(312.16784082776616 287.52681935105915) rotate(0 -57.65060354735124 -33.956433204428635)"><path d="M0 0 C-19.22 -11.32, -96.08 -56.59, -115.3 -67.91 M0 0 C-19.22 -11.32, -96.08 -56.59, -115.3 -67.91" stroke="#e03131" stroke-width="2" fill="none"></path></g><g transform="translate(312.16784082776616 287.52681935105915) rotate(0 -57.65060354735124 -33.956433204428635)"><path d="M-115.3 -67.91 L-100.37 -66.48 L-106.8 -55.55 L-115.3 -67.91" stroke="none" stroke-width="0" fill="#e03131" fill-rule="evenodd"></path><path d="M-115.3 -67.91 C-111.1 -67.51, -106.89 -67.1, -100.37 -66.48 M-115.3 -67.91 C-110.84 -67.48, -106.38 -67.05, -100.37 -66.48 M-100.37 -66.48 C-102.62 -62.66, -104.86 -58.85, -106.8 -55.55 M-100.37 -66.48 C-101.76 -64.11, -103.16 -61.75, -106.8 -55.55 M-106.8 -55.55 C-109.87 -60.01, -112.94 -64.48, -115.3 -67.91 M-106.8 -55.55 C-108.83 -58.5, -110.86 -61.45, -115.3 -67.91 M-115.3 -67.91 C-115.3 -67.91, -115.3 -67.91, -115.3 -67.91 M-115.3 -67.91 C-115.3 -67.91, -115.3 -67.91, -115.3 -67.91" stroke="#e03131" stroke-width="2" fill="none"></path></g></g><mask></mask><g stroke-linecap="round"><g transform="translate(312.4295365863596 286.7990364448309) rotate(0 35.84967920317814 -9.60589259140636)"><path d="M0 0 C11.95 -3.2, 59.75 -16.01, 71.7 -19.21 M0 0 C11.95 -3.2, 59.75 -16.01, 71.7 -19.21" stroke="#e03131" stroke-width="2" fill="none"></path></g><g transform="translate(312.4295365863596 286.7990364448309) rotate(0 35.84967920317814 -9.60589259140636)"><path d="M71.7 -19.21 L60.21 -9.57 L56.93 -21.82 L71.7 -19.21" stroke="none" stroke-width="0" fill="#e03131" fill-rule="evenodd"></path><path d="M71.7 -19.21 C68.24 -16.31, 64.77 -13.4, 60.21 -9.57 M71.7 -19.21 C67.83 -15.97, 63.96 -12.72, 60.21 -9.57 M60.21 -9.57 C59.13 -13.6, 58.05 -17.64, 56.93 -21.82 M60.21 -9.57 C59.46 -12.35, 58.72 -15.13, 56.93 -21.82 M56.93 -21.82 C60.17 -21.24, 63.41 -20.67, 71.7 -19.21 M56.93 -21.82 C61.26 -21.05, 65.6 -20.29, 71.7 -19.21 M71.7 -19.21 C71.7 -19.21, 71.7 -19.21, 71.7 -19.21 M71.7 -19.21 C71.7 -19.21, 71.7 -19.21, 71.7 -19.21" stroke="#e03131" stroke-width="2" fill="none"></path></g></g><mask></mask><g stroke-linecap="round"><g transform="translate(313.1777033320532 286.4965730073067) rotate(0 -35.14037884002306 -9.60589259140636)"><path d="M0 0 C-11.71 -3.2, -58.57 -16.01, -70.28 -19.21 M0 0 C-11.71 -3.2, -58.57 -16.01, -70.28 -19.21" stroke="#e03131" stroke-width="2" fill="none"></path></g><g transform="translate(313.1777033320532 286.4965730073067) rotate(0 -35.14037884002306 -9.60589259140636)"><path d="M-70.28 -19.21 L-55.5 -21.74 L-58.84 -9.51 L-70.28 -19.21" stroke="none" stroke-width="0" fill="#e03131" fill-rule="evenodd"></path><path d="M-70.28 -19.21 C-67.1 -19.76, -63.91 -20.3, -55.5 -21.74 M-70.28 -19.21 C-65.89 -19.96, -61.5 -20.72, -55.5 -21.74 M-55.5 -21.74 C-56.52 -17.99, -57.54 -14.25, -58.84 -9.51 M-55.5 -21.74 C-56.66 -17.49, -57.82 -13.23, -58.84 -9.51 M-58.84 -9.51 C-63.28 -13.28, -67.72 -17.04, -70.28 -19.21 M-58.84 -9.51 C-61.46 -11.73, -64.08 -13.95, -70.28 -19.21 M-70.28 -19.21 C-70.28 -19.21, -70.28 -19.21, -70.28 -19.21 M-70.28 -19.21 C-70.28 -19.21, -70.28 -19.21, -70.28 -19.21" stroke="#e03131" stroke-width="2" fill="none"></path></g></g><mask></mask><g stroke-linecap="round"><g transform="translate(10 57.150296390677) rotate(0 150.92174790083718 115.2241909621336)"><path d="M0 0 C50.31 38.41, 251.54 192.04, 301.84 230.45 M0 0 C50.31 38.41, 251.54 192.04, 301.84 230.45" stroke="#1e1e1e" stroke-width="2" fill="none"></path></g><g transform="translate(10 57.150296390677) rotate(0 150.92174790083718 115.2241909621336)"><path d="M301.84 230.45 L287.19 227.24 L294.88 217.16 L301.84 230.45" stroke="none" stroke-width="0" fill="#1e1e1e" fill-rule="evenodd"></path><path d="M301.84 230.45 C298.42 229.7, 295 228.95, 287.19 227.24 M301.84 230.45 C296.51 229.28, 291.17 228.11, 287.19 227.24 M287.19 227.24 C289.01 224.86, 290.83 222.47, 294.88 217.16 M287.19 227.24 C289.18 224.63, 291.17 222.02, 294.88 217.16 M294.88 217.16 C296.32 219.9, 297.76 222.64, 301.84 230.45 M294.88 217.16 C297.15 221.49, 299.42 225.81, 301.84 230.45 M301.84 230.45 C301.84 230.45, 301.84 230.45, 301.84 230.45 M301.84 230.45 C301.84 230.45, 301.84 230.45, 301.84 230.45" stroke="#1e1e1e" stroke-width="2" fill="none"></path></g></g><mask></mask><g stroke-linecap="round"><g transform="translate(31.019018359312724 289.50814626348347) rotate(0 284 0)"><path d="M0 0 C94.67 0, 473.33 0, 568 0 M0 0 C94.67 0, 473.33 0, 568 0" stroke="#1e1e1e" stroke-width="4" fill="none"></path></g></g><mask></mask></svg>