<svg version="1.1" xmlns="http://www.w3.org/2000/svg" viewBox="0 0 470.4248302471984 302.474703609323" width="470.4248302471984" height="302.474703609323">
  <!-- svg-source:excalidraw -->
  
  <defs>
    <style class="style-fonts">
      @font-face {
        font-family: "Virgil";
        src: url("https://excalidraw.com/Virgil.woff2");
      }
      @font-face {
        font-family: "Cascadia";
        src: url("https://excalidraw.com/Cascadia.woff2");
      }
      @font-face {
        font-family: "Assistant";
        src: url("https://excalidraw.com/Assistant-Regular.woff2");
      }
    </style>
    
  </defs>
  <rect x="0" y="0" width="470.4248302471984" height="302.474703609323" fill="#ffffff"></rect><g transform="translate(70.69874520321088 250.724703609323) rotate(0 -19.5 19.5)" stroke="none"><path fill="#1e1e1e" d="M 1.18,1.18 Q 1.18,1.18 0.07,2.37 -1.03,3.55 -2.01,4.85 -2.99,6.14 -4.40,7.42 -5.82,8.70 -7.55,10.26 -9.28,11.81 -11.19,13.61 -13.09,15.41 -15.07,17.31 -17.04,19.22 -19.36,21.20 -21.68,23.19 -23.79,25.14 -25.89,27.09 -27.94,29.07 -29.99,31.05 -31.73,32.74 -33.47,34.44 -35.20,36.73 -36.92,39.02 -37.12,39.20 -37.32,39.37 -37.56,39.47 -37.80,39.57 -38.06,39.59 -38.32,39.61 -38.58,39.54 -38.83,39.47 -39.05,39.33 -39.27,39.19 -39.43,38.98 -39.59,38.77 -39.67,38.53 -39.76,38.28 -39.77,38.02 -39.77,37.76 -39.69,37.51 -39.61,37.26 -39.45,37.05 -39.30,36.84 -39.08,36.69 -38.87,36.54 -38.62,36.47 -38.37,36.39 -38.11,36.40 -37.85,36.41 -37.60,36.51 -37.36,36.60 -37.16,36.77 -36.95,36.93 -36.82,37.16 -36.68,37.38 -36.62,37.63 -36.56,37.89 -36.58,38.15 -36.61,38.41 -36.71,38.65 -36.82,38.88 -37.00,39.08 -37.18,39.27 -37.40,39.39 -37.63,39.52 -37.89,39.57 -38.15,39.61 -38.41,39.57 -38.67,39.53 -38.90,39.42 -39.13,39.30 -39.31,39.11 -39.50,38.92 -39.61,38.69 -39.72,38.45 -39.75,38.19 -39.79,37.93 -39.73,37.68 -39.68,37.42 -39.55,37.19 -39.42,36.97 -39.42,36.97 -39.42,36.97 -37.41,34.73 -35.40,32.49 -33.67,30.77 -31.94,29.05 -29.90,27.03 -27.85,25.02 -25.73,22.99 -23.61,20.97 -21.40,19.01 -19.19,17.05 -17.27,15.09 -15.35,13.12 -13.50,11.23 -11.66,9.33 -9.97,7.61 -8.28,5.89 -7.07,4.88 -5.86,3.86 -4.71,2.45 -3.56,1.04 -2.37,-0.07 -1.18,-1.18 -1.02,-1.30 -0.86,-1.43 -0.68,-1.51 -0.49,-1.59 -0.29,-1.63 -0.10,-1.67 0.10,-1.66 0.30,-1.64 0.49,-1.58 0.68,-1.52 0.86,-1.42 1.03,-1.31 1.17,-1.17 1.31,-1.03 1.42,-0.86 1.52,-0.68 1.58,-0.49 1.64,-0.30 1.66,-0.10 1.67,0.10 1.63,0.29 1.59,0.49 1.51,0.68 1.43,0.86 1.30,1.02 1.18,1.18 1.18,1.18 L 1.18,1.18 Z"></path></g><g transform="translate(111.44874520321088 249.974703609323) rotate(0 -19.5 19.5)" stroke="none"><path fill="#1e1e1e" d="M 1.18,1.18 Q 1.18,1.18 0.07,2.37 -1.03,3.55 -2.01,4.85 -2.99,6.14 -4.40,7.42 -5.82,8.70 -7.55,10.26 -9.28,11.81 -11.19,13.61 -13.09,15.41 -15.07,17.31 -17.04,19.22 -19.36,21.20 -21.68,23.19 -23.79,25.14 -25.89,27.09 -27.94,29.07 -29.99,31.05 -31.73,32.74 -33.47,34.44 -35.20,36.73 -36.92,39.02 -37.12,39.20 -37.32,39.37 -37.56,39.47 -37.80,39.57 -38.06,39.59 -38.32,39.61 -38.58,39.54 -38.83,39.47 -39.05,39.33 -39.27,39.19 -39.43,38.98 -39.59,38.77 -39.67,38.53 -39.76,38.28 -39.77,38.02 -39.77,37.76 -39.69,37.51 -39.61,37.26 -39.45,37.05 -39.30,36.84 -39.08,36.69 -38.87,36.54 -38.62,36.47 -38.37,36.39 -38.11,36.40 -37.85,36.41 -37.60,36.51 -37.36,36.60 -37.16,36.77 -36.95,36.93 -36.82,37.16 -36.68,37.38 -36.62,37.63 -36.56,37.89 -36.58,38.15 -36.61,38.41 -36.71,38.65 -36.82,38.88 -37.00,39.08 -37.18,39.27 -37.40,39.39 -37.63,39.52 -37.89,39.57 -38.15,39.61 -38.41,39.57 -38.67,39.53 -38.90,39.42 -39.13,39.30 -39.31,39.11 -39.50,38.92 -39.61,38.69 -39.72,38.45 -39.75,38.19 -39.79,37.93 -39.73,37.68 -39.68,37.42 -39.55,37.19 -39.42,36.97 -39.42,36.97 -39.42,36.97 -37.41,34.73 -35.40,32.49 -33.67,30.77 -31.94,29.05 -29.90,27.03 -27.85,25.02 -25.73,22.99 -23.61,20.97 -21.40,19.01 -19.19,17.05 -17.27,15.09 -15.35,13.12 -13.50,11.23 -11.66,9.33 -9.97,7.61 -8.28,5.89 -7.07,4.88 -5.86,3.86 -4.71,2.45 -3.56,1.04 -2.37,-0.07 -1.18,-1.18 -1.02,-1.30 -0.86,-1.43 -0.68,-1.51 -0.49,-1.59 -0.29,-1.63 -0.10,-1.67 0.10,-1.66 0.30,-1.64 0.49,-1.58 0.68,-1.52 0.86,-1.42 1.03,-1.31 1.17,-1.17 1.31,-1.03 1.42,-0.86 1.52,-0.68 1.58,-0.49 1.64,-0.30 1.66,-0.10 1.67,0.10 1.63,0.29 1.59,0.49 1.51,0.68 1.43,0.86 1.30,1.02 1.18,1.18 1.18,1.18 L 1.18,1.18 Z"></path></g><g transform="translate(155.94874520321088 253.474703609323) rotate(0 -19.5 19.5)" stroke="none"><path fill="#1e1e1e" d="M 1.18,1.18 Q 1.18,1.18 0.07,2.37 -1.03,3.55 -2.01,4.85 -2.99,6.14 -4.40,7.42 -5.82,8.70 -7.55,10.26 -9.28,11.81 -11.19,13.61 -13.09,15.41 -15.07,17.31 -17.04,19.22 -19.36,21.20 -21.68,23.19 -23.79,25.14 -25.89,27.09 -27.94,29.07 -29.99,31.05 -31.73,32.74 -33.47,34.44 -35.20,36.73 -36.92,39.02 -37.12,39.20 -37.32,39.37 -37.56,39.47 -37.80,39.57 -38.06,39.59 -38.32,39.61 -38.58,39.54 -38.83,39.47 -39.05,39.33 -39.27,39.19 -39.43,38.98 -39.59,38.77 -39.67,38.53 -39.76,38.28 -39.77,38.02 -39.77,37.76 -39.69,37.51 -39.61,37.26 -39.45,37.05 -39.30,36.84 -39.08,36.69 -38.87,36.54 -38.62,36.47 -38.37,36.39 -38.11,36.40 -37.85,36.41 -37.60,36.51 -37.36,36.60 -37.16,36.77 -36.95,36.93 -36.82,37.16 -36.68,37.38 -36.62,37.63 -36.56,37.89 -36.58,38.15 -36.61,38.41 -36.71,38.65 -36.82,38.88 -37.00,39.08 -37.18,39.27 -37.40,39.39 -37.63,39.52 -37.89,39.57 -38.15,39.61 -38.41,39.57 -38.67,39.53 -38.90,39.42 -39.13,39.30 -39.31,39.11 -39.50,38.92 -39.61,38.69 -39.72,38.45 -39.75,38.19 -39.79,37.93 -39.73,37.68 -39.68,37.42 -39.55,37.19 -39.42,36.97 -39.42,36.97 -39.42,36.97 -37.41,34.73 -35.40,32.49 -33.67,30.77 -31.94,29.05 -29.90,27.03 -27.85,25.02 -25.73,22.99 -23.61,20.97 -21.40,19.01 -19.19,17.05 -17.27,15.09 -15.35,13.12 -13.50,11.23 -11.66,9.33 -9.97,7.61 -8.28,5.89 -7.07,4.88 -5.86,3.86 -4.71,2.45 -3.56,1.04 -2.37,-0.07 -1.18,-1.18 -1.02,-1.30 -0.86,-1.43 -0.68,-1.51 -0.49,-1.59 -0.29,-1.63 -0.10,-1.67 0.10,-1.66 0.30,-1.64 0.49,-1.58 0.68,-1.52 0.86,-1.42 1.03,-1.31 1.17,-1.17 1.31,-1.03 1.42,-0.86 1.52,-0.68 1.58,-0.49 1.64,-0.30 1.66,-0.10 1.67,0.10 1.63,0.29 1.59,0.49 1.51,0.68 1.43,0.86 1.30,1.02 1.18,1.18 1.18,1.18 L 1.18,1.18 Z"></path></g><g transform="translate(205.38624520321088 246.537203609323) rotate(0 -19.5 19.5)" stroke="none"><path fill="#1e1e1e" d="M 1.18,1.18 Q 1.18,1.18 0.07,2.37 -1.03,3.55 -2.01,4.85 -2.99,6.14 -4.40,7.42 -5.82,8.70 -7.55,10.26 -9.28,11.81 -11.19,13.61 -13.09,15.41 -15.07,17.31 -17.04,19.22 -19.36,21.20 -21.68,23.19 -23.79,25.14 -25.89,27.09 -27.94,29.07 -29.99,31.05 -31.73,32.74 -33.47,34.44 -35.20,36.73 -36.92,39.02 -37.12,39.20 -37.32,39.37 -37.56,39.47 -37.80,39.57 -38.06,39.59 -38.32,39.61 -38.58,39.54 -38.83,39.47 -39.05,39.33 -39.27,39.19 -39.43,38.98 -39.59,38.77 -39.67,38.53 -39.76,38.28 -39.77,38.02 -39.77,37.76 -39.69,37.51 -39.61,37.26 -39.45,37.05 -39.30,36.84 -39.08,36.69 -38.87,36.54 -38.62,36.47 -38.37,36.39 -38.11,36.40 -37.85,36.41 -37.60,36.51 -37.36,36.60 -37.16,36.77 -36.95,36.93 -36.82,37.16 -36.68,37.38 -36.62,37.63 -36.56,37.89 -36.58,38.15 -36.61,38.41 -36.71,38.65 -36.82,38.88 -37.00,39.08 -37.18,39.27 -37.40,39.39 -37.63,39.52 -37.89,39.57 -38.15,39.61 -38.41,39.57 -38.67,39.53 -38.90,39.42 -39.13,39.30 -39.31,39.11 -39.50,38.92 -39.61,38.69 -39.72,38.45 -39.75,38.19 -39.79,37.93 -39.73,37.68 -39.68,37.42 -39.55,37.19 -39.42,36.97 -39.42,36.97 -39.42,36.97 -37.41,34.73 -35.40,32.49 -33.67,30.77 -31.94,29.05 -29.90,27.03 -27.85,25.02 -25.73,22.99 -23.61,20.97 -21.40,19.01 -19.19,17.05 -17.27,15.09 -15.35,13.12 -13.50,11.23 -11.66,9.33 -9.97,7.61 -8.28,5.89 -7.07,4.88 -5.86,3.86 -4.71,2.45 -3.56,1.04 -2.37,-0.07 -1.18,-1.18 -1.02,-1.30 -0.86,-1.43 -0.68,-1.51 -0.49,-1.59 -0.29,-1.63 -0.10,-1.67 0.10,-1.66 0.30,-1.64 0.49,-1.58 0.68,-1.52 0.86,-1.42 1.03,-1.31 1.17,-1.17 1.31,-1.03 1.42,-0.86 1.52,-0.68 1.58,-0.49 1.64,-0.30 1.66,-0.10 1.67,0.10 1.63,0.29 1.59,0.49 1.51,0.68 1.43,0.86 1.30,1.02 1.18,1.18 1.18,1.18 L 1.18,1.18 Z"></path></g><g transform="translate(249.88624520321088 250.037203609323) rotate(0 -19.5 19.5)" stroke="none"><path fill="#1e1e1e" d="M 1.18,1.18 Q 1.18,1.18 0.07,2.37 -1.03,3.55 -2.01,4.85 -2.99,6.14 -4.40,7.42 -5.82,8.70 -7.55,10.26 -9.28,11.81 -11.19,13.61 -13.09,15.41 -15.07,17.31 -17.04,19.22 -19.36,21.20 -21.68,23.19 -23.79,25.14 -25.89,27.09 -27.94,29.07 -29.99,31.05 -31.73,32.74 -33.47,34.44 -35.20,36.73 -36.92,39.02 -37.12,39.20 -37.32,39.37 -37.56,39.47 -37.80,39.57 -38.06,39.59 -38.32,39.61 -38.58,39.54 -38.83,39.47 -39.05,39.33 -39.27,39.19 -39.43,38.98 -39.59,38.77 -39.67,38.53 -39.76,38.28 -39.77,38.02 -39.77,37.76 -39.69,37.51 -39.61,37.26 -39.45,37.05 -39.30,36.84 -39.08,36.69 -38.87,36.54 -38.62,36.47 -38.37,36.39 -38.11,36.40 -37.85,36.41 -37.60,36.51 -37.36,36.60 -37.16,36.77 -36.95,36.93 -36.82,37.16 -36.68,37.38 -36.62,37.63 -36.56,37.89 -36.58,38.15 -36.61,38.41 -36.71,38.65 -36.82,38.88 -37.00,39.08 -37.18,39.27 -37.40,39.39 -37.63,39.52 -37.89,39.57 -38.15,39.61 -38.41,39.57 -38.67,39.53 -38.90,39.42 -39.13,39.30 -39.31,39.11 -39.50,38.92 -39.61,38.69 -39.72,38.45 -39.75,38.19 -39.79,37.93 -39.73,37.68 -39.68,37.42 -39.55,37.19 -39.42,36.97 -39.42,36.97 -39.42,36.97 -37.41,34.73 -35.40,32.49 -33.67,30.77 -31.94,29.05 -29.90,27.03 -27.85,25.02 -25.73,22.99 -23.61,20.97 -21.40,19.01 -19.19,17.05 -17.27,15.09 -15.35,13.12 -13.50,11.23 -11.66,9.33 -9.97,7.61 -8.28,5.89 -7.07,4.88 -5.86,3.86 -4.71,2.45 -3.56,1.04 -2.37,-0.07 -1.18,-1.18 -1.02,-1.30 -0.86,-1.43 -0.68,-1.51 -0.49,-1.59 -0.29,-1.63 -0.10,-1.67 0.10,-1.66 0.30,-1.64 0.49,-1.58 0.68,-1.52 0.86,-1.42 1.03,-1.31 1.17,-1.17 1.31,-1.03 1.42,-0.86 1.52,-0.68 1.58,-0.49 1.64,-0.30 1.66,-0.10 1.67,0.10 1.63,0.29 1.59,0.49 1.51,0.68 1.43,0.86 1.30,1.02 1.18,1.18 1.18,1.18 L 1.18,1.18 Z"></path></g><g transform="translate(290.6362452032109 249.287203609323) rotate(0 -19.5 19.5)" stroke="none"><path fill="#1e1e1e" d="M 1.18,1.18 Q 1.18,1.18 0.07,2.37 -1.03,3.55 -2.01,4.85 -2.99,6.14 -4.40,7.42 -5.82,8.70 -7.55,10.26 -9.28,11.81 -11.19,13.61 -13.09,15.41 -15.07,17.31 -17.04,19.22 -19.36,21.20 -21.68,23.19 -23.79,25.14 -25.89,27.09 -27.94,29.07 -29.99,31.05 -31.73,32.74 -33.47,34.44 -35.20,36.73 -36.92,39.02 -37.12,39.20 -37.32,39.37 -37.56,39.47 -37.80,39.57 -38.06,39.59 -38.32,39.61 -38.58,39.54 -38.83,39.47 -39.05,39.33 -39.27,39.19 -39.43,38.98 -39.59,38.77 -39.67,38.53 -39.76,38.28 -39.77,38.02 -39.77,37.76 -39.69,37.51 -39.61,37.26 -39.45,37.05 -39.30,36.84 -39.08,36.69 -38.87,36.54 -38.62,36.47 -38.37,36.39 -38.11,36.40 -37.85,36.41 -37.60,36.51 -37.36,36.60 -37.16,36.77 -36.95,36.93 -36.82,37.16 -36.68,37.38 -36.62,37.63 -36.56,37.89 -36.58,38.15 -36.61,38.41 -36.71,38.65 -36.82,38.88 -37.00,39.08 -37.18,39.27 -37.40,39.39 -37.63,39.52 -37.89,39.57 -38.15,39.61 -38.41,39.57 -38.67,39.53 -38.90,39.42 -39.13,39.30 -39.31,39.11 -39.50,38.92 -39.61,38.69 -39.72,38.45 -39.75,38.19 -39.79,37.93 -39.73,37.68 -39.68,37.42 -39.55,37.19 -39.42,36.97 -39.42,36.97 -39.42,36.97 -37.41,34.73 -35.40,32.49 -33.67,30.77 -31.94,29.05 -29.90,27.03 -27.85,25.02 -25.73,22.99 -23.61,20.97 -21.40,19.01 -19.19,17.05 -17.27,15.09 -15.35,13.12 -13.50,11.23 -11.66,9.33 -9.97,7.61 -8.28,5.89 -7.07,4.88 -5.86,3.86 -4.71,2.45 -3.56,1.04 -2.37,-0.07 -1.18,-1.18 -1.02,-1.30 -0.86,-1.43 -0.68,-1.51 -0.49,-1.59 -0.29,-1.63 -0.10,-1.67 0.10,-1.66 0.30,-1.64 0.49,-1.58 0.68,-1.52 0.86,-1.42 1.03,-1.31 1.17,-1.17 1.31,-1.03 1.42,-0.86 1.52,-0.68 1.58,-0.49 1.64,-0.30 1.66,-0.10 1.67,0.10 1.63,0.29 1.59,0.49 1.51,0.68 1.43,0.86 1.30,1.02 1.18,1.18 1.18,1.18 L 1.18,1.18 Z"></path></g><g transform="translate(334.1362452032109 243.787203609323) rotate(0 -19.5 19.5)" stroke="none"><path fill="#1e1e1e" d="M 1.18,1.18 Q 1.18,1.18 0.07,2.37 -1.03,3.55 -2.01,4.85 -2.99,6.14 -4.40,7.42 -5.82,8.70 -7.55,10.26 -9.28,11.81 -11.19,13.61 -13.09,15.41 -15.07,17.31 -17.04,19.22 -19.36,21.20 -21.68,23.19 -23.79,25.14 -25.89,27.09 -27.94,29.07 -29.99,31.05 -31.73,32.74 -33.47,34.44 -35.20,36.73 -36.92,39.02 -37.12,39.20 -37.32,39.37 -37.56,39.47 -37.80,39.57 -38.06,39.59 -38.32,39.61 -38.58,39.54 -38.83,39.47 -39.05,39.33 -39.27,39.19 -39.43,38.98 -39.59,38.77 -39.67,38.53 -39.76,38.28 -39.77,38.02 -39.77,37.76 -39.69,37.51 -39.61,37.26 -39.45,37.05 -39.30,36.84 -39.08,36.69 -38.87,36.54 -38.62,36.47 -38.37,36.39 -38.11,36.40 -37.85,36.41 -37.60,36.51 -37.36,36.60 -37.16,36.77 -36.95,36.93 -36.82,37.16 -36.68,37.38 -36.62,37.63 -36.56,37.89 -36.58,38.15 -36.61,38.41 -36.71,38.65 -36.82,38.88 -37.00,39.08 -37.18,39.27 -37.40,39.39 -37.63,39.52 -37.89,39.57 -38.15,39.61 -38.41,39.57 -38.67,39.53 -38.90,39.42 -39.13,39.30 -39.31,39.11 -39.50,38.92 -39.61,38.69 -39.72,38.45 -39.75,38.19 -39.79,37.93 -39.73,37.68 -39.68,37.42 -39.55,37.19 -39.42,36.97 -39.42,36.97 -39.42,36.97 -37.41,34.73 -35.40,32.49 -33.67,30.77 -31.94,29.05 -29.90,27.03 -27.85,25.02 -25.73,22.99 -23.61,20.97 -21.40,19.01 -19.19,17.05 -17.27,15.09 -15.35,13.12 -13.50,11.23 -11.66,9.33 -9.97,7.61 -8.28,5.89 -7.07,4.88 -5.86,3.86 -4.71,2.45 -3.56,1.04 -2.37,-0.07 -1.18,-1.18 -1.02,-1.30 -0.86,-1.43 -0.68,-1.51 -0.49,-1.59 -0.29,-1.63 -0.10,-1.67 0.10,-1.66 0.30,-1.64 0.49,-1.58 0.68,-1.52 0.86,-1.42 1.03,-1.31 1.17,-1.17 1.31,-1.03 1.42,-0.86 1.52,-0.68 1.58,-0.49 1.64,-0.30 1.66,-0.10 1.67,0.10 1.63,0.29 1.59,0.49 1.51,0.68 1.43,0.86 1.30,1.02 1.18,1.18 1.18,1.18 L 1.18,1.18 Z"></path></g><g transform="translate(382.0112452032109 240.912203609323) rotate(0 -19.5 19.5)" stroke="none"><path fill="#1e1e1e" d="M 1.18,1.18 Q 1.18,1.18 0.07,2.37 -1.03,3.55 -2.01,4.85 -2.99,6.14 -4.40,7.42 -5.82,8.70 -7.55,10.26 -9.28,11.81 -11.19,13.61 -13.09,15.41 -15.07,17.31 -17.04,19.22 -19.36,21.20 -21.68,23.19 -23.79,25.14 -25.89,27.09 -27.94,29.07 -29.99,31.05 -31.73,32.74 -33.47,34.44 -35.20,36.73 -36.92,39.02 -37.12,39.20 -37.32,39.37 -37.56,39.47 -37.80,39.57 -38.06,39.59 -38.32,39.61 -38.58,39.54 -38.83,39.47 -39.05,39.33 -39.27,39.19 -39.43,38.98 -39.59,38.77 -39.67,38.53 -39.76,38.28 -39.77,38.02 -39.77,37.76 -39.69,37.51 -39.61,37.26 -39.45,37.05 -39.30,36.84 -39.08,36.69 -38.87,36.54 -38.62,36.47 -38.37,36.39 -38.11,36.40 -37.85,36.41 -37.60,36.51 -37.36,36.60 -37.16,36.77 -36.95,36.93 -36.82,37.16 -36.68,37.38 -36.62,37.63 -36.56,37.89 -36.58,38.15 -36.61,38.41 -36.71,38.65 -36.82,38.88 -37.00,39.08 -37.18,39.27 -37.40,39.39 -37.63,39.52 -37.89,39.57 -38.15,39.61 -38.41,39.57 -38.67,39.53 -38.90,39.42 -39.13,39.30 -39.31,39.11 -39.50,38.92 -39.61,38.69 -39.72,38.45 -39.75,38.19 -39.79,37.93 -39.73,37.68 -39.68,37.42 -39.55,37.19 -39.42,36.97 -39.42,36.97 -39.42,36.97 -37.41,34.73 -35.40,32.49 -33.67,30.77 -31.94,29.05 -29.90,27.03 -27.85,25.02 -25.73,22.99 -23.61,20.97 -21.40,19.01 -19.19,17.05 -17.27,15.09 -15.35,13.12 -13.50,11.23 -11.66,9.33 -9.97,7.61 -8.28,5.89 -7.07,4.88 -5.86,3.86 -4.71,2.45 -3.56,1.04 -2.37,-0.07 -1.18,-1.18 -1.02,-1.30 -0.86,-1.43 -0.68,-1.51 -0.49,-1.59 -0.29,-1.63 -0.10,-1.67 0.10,-1.66 0.30,-1.64 0.49,-1.58 0.68,-1.52 0.86,-1.42 1.03,-1.31 1.17,-1.17 1.31,-1.03 1.42,-0.86 1.52,-0.68 1.58,-0.49 1.64,-0.30 1.66,-0.10 1.67,0.10 1.63,0.29 1.59,0.49 1.51,0.68 1.43,0.86 1.30,1.02 1.18,1.18 1.18,1.18 L 1.18,1.18 Z"></path></g><g transform="translate(426.5112452032109 244.412203609323) rotate(0 -19.5 19.5)" stroke="none"><path fill="#1e1e1e" d="M 1.18,1.18 Q 1.18,1.18 0.07,2.37 -1.03,3.55 -2.01,4.85 -2.99,6.14 -4.40,7.42 -5.82,8.70 -7.55,10.26 -9.28,11.81 -11.19,13.61 -13.09,15.41 -15.07,17.31 -17.04,19.22 -19.36,21.20 -21.68,23.19 -23.79,25.14 -25.89,27.09 -27.94,29.07 -29.99,31.05 -31.73,32.74 -33.47,34.44 -35.20,36.73 -36.92,39.02 -37.12,39.20 -37.32,39.37 -37.56,39.47 -37.80,39.57 -38.06,39.59 -38.32,39.61 -38.58,39.54 -38.83,39.47 -39.05,39.33 -39.27,39.19 -39.43,38.98 -39.59,38.77 -39.67,38.53 -39.76,38.28 -39.77,38.02 -39.77,37.76 -39.69,37.51 -39.61,37.26 -39.45,37.05 -39.30,36.84 -39.08,36.69 -38.87,36.54 -38.62,36.47 -38.37,36.39 -38.11,36.40 -37.85,36.41 -37.60,36.51 -37.36,36.60 -37.16,36.77 -36.95,36.93 -36.82,37.16 -36.68,37.38 -36.62,37.63 -36.56,37.89 -36.58,38.15 -36.61,38.41 -36.71,38.65 -36.82,38.88 -37.00,39.08 -37.18,39.27 -37.40,39.39 -37.63,39.52 -37.89,39.57 -38.15,39.61 -38.41,39.57 -38.67,39.53 -38.90,39.42 -39.13,39.30 -39.31,39.11 -39.50,38.92 -39.61,38.69 -39.72,38.45 -39.75,38.19 -39.79,37.93 -39.73,37.68 -39.68,37.42 -39.55,37.19 -39.42,36.97 -39.42,36.97 -39.42,36.97 -37.41,34.73 -35.40,32.49 -33.67,30.77 -31.94,29.05 -29.90,27.03 -27.85,25.02 -25.73,22.99 -23.61,20.97 -21.40,19.01 -19.19,17.05 -17.27,15.09 -15.35,13.12 -13.50,11.23 -11.66,9.33 -9.97,7.61 -8.28,5.89 -7.07,4.88 -5.86,3.86 -4.71,2.45 -3.56,1.04 -2.37,-0.07 -1.18,-1.18 -1.02,-1.30 -0.86,-1.43 -0.68,-1.51 -0.49,-1.59 -0.29,-1.63 -0.10,-1.67 0.10,-1.66 0.30,-1.64 0.49,-1.58 0.68,-1.52 0.86,-1.42 1.03,-1.31 1.17,-1.17 1.31,-1.03 1.42,-0.86 1.52,-0.68 1.58,-0.49 1.64,-0.30 1.66,-0.10 1.67,0.10 1.63,0.29 1.59,0.49 1.51,0.68 1.43,0.86 1.30,1.02 1.18,1.18 1.18,1.18 L 1.18,1.18 Z"></path></g><g stroke-linecap="round"><g transform="translate(31.019018359312724 242.35784987280647) rotate(0 205.1131192291 0)"><path d="M0 0 C68.37 0, 341.86 0, 410.23 0 M0 0 C68.37 0, 341.86 0, 410.23 0" stroke="#1e1e1e" stroke-width="4" fill="none"></path></g></g><mask></mask><g stroke-linecap="round"><g transform="translate(241.43255290044993 242.05141046212572) rotate(0 0 -53.60051245606297)"><path d="M0 0 C0 -17.87, 0 -89.33, 0 -107.2 M0 0 C0 -17.87, 0 -89.33, 0 -107.2" stroke="#1971c2" stroke-width="2" fill="none"></path></g><g transform="translate(241.43255290044993 242.05141046212572) rotate(0 0 -53.60051245606297)"><path d="M0 -107.2 L6.34 -93.61 L-6.34 -93.61 L0 -107.2" stroke="none" stroke-width="0" fill="#1971c2" fill-rule="evenodd"></path><path d="M0 -107.2 C1.39 -104.22, 2.78 -101.25, 6.34 -93.61 M0 -107.2 C2.5 -101.84, 5 -96.48, 6.34 -93.61 M6.34 -93.61 C1.53 -93.61, -3.28 -93.61, -6.34 -93.61 M6.34 -93.61 C3.26 -93.61, 0.18 -93.61, -6.34 -93.61 M-6.34 -93.61 C-4.7 -97.11, -3.07 -100.62, 0 -107.2 M-6.34 -93.61 C-4.46 -97.63, -2.59 -101.65, 0 -107.2 M0 -107.2 C0 -107.2, 0 -107.2, 0 -107.2 M0 -107.2 C0 -107.2, 0 -107.2, 0 -107.2" stroke="#1971c2" stroke-width="2" fill="none"></path></g></g><mask></mask><g transform="translate(220.34338635023494 187.3221046085343) rotate(0 5.5615234375 11.5)"><text x="0" y="18.400390625" font-family="Helvetica, Segoe UI Emoji" font-size="20px" fill="#2f9e44" text-anchor="start" style="white-space: pre;" direction="ltr" dominant-baseline="alphabetic">θ</text></g><g stroke-linecap="round"><g transform="translate(460.4248302471984 24.186929012041674) rotate(0 -109.05947530878922 109.05947530878913)"><path d="M0 0 C-36.35 36.35, -181.77 181.77, -218.12 218.12 M0 0 C-36.35 36.35, -181.77 181.77, -218.12 218.12" stroke="#e03131" stroke-width="2" fill="none"></path></g><g transform="translate(460.4248302471984 24.186929012041674) rotate(0 -109.05947530878922 109.05947530878913)"><path d="M0 0 L-5.13 14.1 L-14.1 5.13 L0 0" stroke="none" stroke-width="0" fill="#e03131" fill-rule="evenodd"></path><path d="M0 0 C-1.72 4.73, -3.44 9.45, -5.13 14.1 M0 0 C-1.76 4.83, -3.51 9.65, -5.13 14.1 M-5.13 14.1 C-8.34 10.89, -11.54 7.68, -14.1 5.13 M-5.13 14.1 C-7.29 11.93, -9.45 9.77, -14.1 5.13 M-14.1 5.13 C-11.27 4.1, -8.45 3.08, 0 0 M-14.1 5.13 C-8.96 3.26, -3.82 1.39, 0 0 M0 0 C0 0, 0 0, 0 0 M0 0 C0 0, 0 0, 0 0" stroke="#e03131" stroke-width="2" fill="none"></path></g></g><mask></mask><g stroke-linecap="round"><g transform="translate(10 10) rotate(0 116.15293981480997 116.15293981480997)"><path d="M0 0 C38.72 38.72, 193.59 193.59, 232.31 232.31 M0 0 C38.72 38.72, 193.59 193.59, 232.31 232.31" stroke="#1e1e1e" stroke-width="2" fill="none"></path></g><g transform="translate(10 10) rotate(0 116.15293981480997 116.15293981480997)"><path d="M232.31 232.31 L218.21 227.18 L227.18 218.21 L232.31 232.31" stroke="none" stroke-width="0" fill="#1e1e1e" fill-rule="evenodd"></path><path d="M232.31 232.31 C229.01 231.11, 225.72 229.91, 218.21 227.18 M232.31 232.31 C227.17 230.44, 222.04 228.57, 218.21 227.18 M218.21 227.18 C220.33 225.06, 222.45 222.94, 227.18 218.21 M218.21 227.18 C220.53 224.85, 222.85 222.53, 227.18 218.21 M227.18 218.21 C228.23 221.12, 229.29 224.02, 232.31 232.31 M227.18 218.21 C228.85 222.8, 230.52 227.39, 232.31 232.31 M232.31 232.31 C232.31 232.31, 232.31 232.31, 232.31 232.31 M232.31 232.31 C232.31 232.31, 232.31 232.31, 232.31 232.31" stroke="#1e1e1e" stroke-width="2" fill="none"></path></g></g><mask></mask><g stroke-linecap="round"><g transform="translate(219.4632773806478 218.5399207763964) rotate(0 10.861583982285907 -5.6669133820622335)"><path d="M0 0 C1.44 -1.44, 5.04 -6.77, 8.66 -8.66 C12.28 -10.55, 19.55 -10.89, 21.72 -11.33 M0 0 C1.44 -1.44, 5.04 -6.77, 8.66 -8.66 C12.28 -10.55, 19.55 -10.89, 21.72 -11.33" stroke="#2f9e44" stroke-width="2" fill="none"></path></g></g><mask></mask><g stroke-linecap="round"><g transform="translate(241.50127386644527 213.50266443678555) rotate(0 9.130027115544635 5.194670600223674)"><path d="M0 0 C1.73 0.47, 7.35 1.1, 10.39 2.83 C13.43 4.57, 16.95 9.13, 18.26 10.39 M0 0 C1.73 0.47, 7.35 1.1, 10.39 2.83 C13.43 4.57, 16.95 9.13, 18.26 10.39" stroke="#2f9e44" stroke-width="2" fill="none"></path></g></g><mask></mask><g transform="translate(249.16254832042364 190.35400915143543) rotate(0 5.5615234375 11.5)"><text x="0" y="18.400390625" font-family="Helvetica, Segoe UI Emoji" font-size="20px" fill="#2f9e44" text-anchor="start" style="white-space: pre;" direction="ltr" dominant-baseline="alphabetic">θ</text></g></svg>